<?xml version="1.0" encoding="UTF-8"?>
<svg width="512px" height="346px" viewBox="0 0 512 346" version="1.1" xmlns="http://www.w3.org/2000/svg" xmlns:xlink="http://www.w3.org/1999/xlink" xmlns:sketch="http://www.bohemiancoding.com/sketch/ns">
    <!-- Generator: Sketch 3.4.4 (17249) - http://www.bohemiancoding.com/sketch -->
    <title>closed</title>
    <desc>Created with Sketch.</desc>
    <defs></defs>
    <g id="Page-1" stroke="none" stroke-width="1" fill="none" fill-rule="evenodd" sketch:type="MSPage">
        <g id="closed" sketch:type="MSLayerGroup">
            <g sketch:type="MSShapeGroup">
                <path d="M477.261,107.805 L367.065,107.805 L287.304,28.045 C285.353,12.503 272.063,0.436 256,0.436 C239.936,0.436 226.647,12.502 224.695,28.045 L144.934,107.805 L34.739,107.805 C15.584,107.805 0,123.389 0,142.544 L0,310.824 C0,329.98 15.584,345.563 34.739,345.563 L477.262,345.563 C496.418,345.563 512.001,329.979 512.001,310.824 L512.001,142.544 C512,123.389 496.416,107.805 477.261,107.805 L477.261,107.805 Z M256.001,18.283 C263.563,18.283 269.716,24.435 269.716,31.998 C269.716,39.56 263.564,45.713 256.001,45.713 C248.438,45.713 242.286,39.561 242.286,31.998 C242.284,24.435 248.438,18.283 256.001,18.283 L256.001,18.283 Z M229.255,48.724 C234.842,57.624 244.739,63.559 256.001,63.559 C267.263,63.559 277.16,57.626 282.746,48.724 L341.828,107.805 L170.172,107.805 L229.255,48.724 L229.255,48.724 Z M494.154,310.824 C494.154,320.139 486.576,327.717 477.261,327.717 L34.739,327.717 C25.424,327.717 17.846,320.139 17.846,310.824 L17.846,142.544 C17.846,133.229 25.424,125.651 34.739,125.651 L477.262,125.651 C486.577,125.651 494.155,133.229 494.155,142.544 L494.155,310.824 L494.154,310.824 Z" id="Shape" fill="#000000"></path>
                <rect id="Rectangle-1" stroke="#979797" fill="#363636" x="18" y="126" width="476" height="202" rx="17"></rect>
                <path d="M73.8157895,191.578947 C81.5426842,191.578947 88.4583158,196.471947 91.0236316,203.755632 C92.5444737,208.071684 97.2805263,210.338579 101.595474,208.819947 C105.913737,207.298 108.180632,202.565263 106.659789,198.247 C101.762368,184.341684 88.5633158,175 73.8157895,175 C54.6184737,175 39,190.618474 39,209.815789 L39,245.184211 C39,264.381526 54.6184737,280 73.8157895,280 C88.5456316,280 101.740263,270.673789 106.647632,256.791684 C108.172895,252.475632 105.911526,247.739579 101.595474,246.213211 C97.2794211,244.689053 92.5433684,246.949316 91.017,251.265368 C88.4461579,258.535789 81.5338421,263.421053 73.8157895,263.421053 C63.7601053,263.421053 55.5789474,255.239895 55.5789474,245.184211 L55.5789474,209.815789 C55.5789474,199.760105 63.7601053,191.578947 73.8157895,191.578947 L73.8157895,191.578947 Z" id="Shape" fill="#FFFFFF"></path>
                <path d="M171.078947,263.421053 L135.157895,263.421053 L135.157895,183.289474 C135.157895,178.710368 131.446421,175 126.868421,175 C122.290421,175 118.578947,178.710368 118.578947,183.289474 L118.578947,271.710526 C118.578947,276.289632 122.290421,280 126.868421,280 L171.078947,280 C175.656947,280 179.368421,276.289632 179.368421,271.710526 C179.368421,267.131421 175.656947,263.421053 171.078947,263.421053 L171.078947,263.421053 Z" id="Shape" fill="#FFFFFF"></path>
                <path d="M215.289474,175 C196.092158,175 180.473684,190.618474 180.473684,209.815789 L180.473684,245.184211 C180.473684,264.381526 196.092158,280 215.289474,280 C234.486789,280 250.105263,264.381526 250.105263,245.184211 L250.105263,209.815789 C250.105263,190.618474 234.486789,175 215.289474,175 L215.289474,175 Z M233.526316,245.184211 C233.526316,255.239895 225.345158,263.421053 215.289474,263.421053 C205.233789,263.421053 197.052632,255.239895 197.052632,245.184211 L197.052632,209.815789 C197.052632,199.760105 205.233789,191.578947 215.289474,191.578947 C225.345158,191.578947 233.526316,199.760105 233.526316,209.815789 L233.526316,245.184211 L233.526316,245.184211 Z" id="Shape" fill="#FFFFFF"></path>
                <path d="M294.868421,219.210526 C284.982947,219.210526 276.631579,212.882895 276.631579,205.394737 C276.631579,197.906579 284.982947,191.578947 294.868421,191.578947 C303.532579,191.578947 311.247316,196.469737 312.814579,202.954316 C313.89,207.403 318.366316,210.138526 322.819421,209.064211 C327.269211,207.988789 330.004737,203.510263 328.929316,199.059368 C325.561579,185.118684 311.236263,175 294.868421,175 C275.671105,175 260.052632,188.635632 260.052632,205.394737 C260.052632,222.153842 275.671105,235.789474 294.868421,235.789474 C304.753895,235.789474 313.105263,242.117105 313.105263,249.605263 C313.105263,257.093421 304.753895,263.421053 294.868421,263.421053 C286.204263,263.421053 278.489526,258.530263 276.922263,252.045684 C275.846842,247.594789 271.367211,244.850421 266.917421,245.935789 C262.467632,247.011211 259.732105,251.489737 260.807526,255.940632 C264.175263,269.881316 278.500579,280 294.868421,280 C314.065737,280 329.684211,266.364368 329.684211,249.605263 C329.684211,232.846158 314.065737,219.210526 294.868421,219.210526 L294.868421,219.210526 Z" id="Shape" fill="#FFFFFF"></path>
                <path d="M392.131579,191.578947 C396.709579,191.578947 400.421053,187.868579 400.421053,183.289474 C400.421053,178.710368 396.709579,175 392.131579,175 L347.921053,175 C343.343053,175 339.631579,178.710368 339.631579,183.289474 L339.631579,271.710526 C339.631579,276.289632 343.343053,280 347.921053,280 L392.131579,280 C396.709579,280 400.421053,276.289632 400.421053,271.710526 C400.421053,267.131421 396.709579,263.421053 392.131579,263.421053 L356.210526,263.421053 L356.210526,235.789474 L383.289474,235.789474 C387.867474,235.789474 391.578947,232.079105 391.578947,227.5 C391.578947,222.920895 387.867474,219.210526 383.289474,219.210526 L356.210526,219.210526 L356.210526,191.578947 L392.131579,191.578947 L392.131579,191.578947 Z" id="Shape" fill="#FFFFFF"></path>
                <path d="M427.5,175 L418.657895,175 C414.079895,175 410.368421,178.710368 410.368421,183.289474 L410.368421,271.710526 C410.368421,276.289632 414.079895,280 418.657895,280 L427.5,280 C456.447947,280 480,256.447947 480,227.5 C480,198.552053 456.447947,175 427.5,175 L427.5,175 Z M427.5,263.421053 L426.947368,263.421053 L426.947368,191.578947 L427.5,191.578947 C447.306316,191.578947 463.421053,207.692579 463.421053,227.5 C463.421053,247.307421 447.306316,263.421053 427.5,263.421053 L427.5,263.421053 Z" id="Shape" fill="#FFFFFF"></path>
            </g>
        </g>
    </g>
</svg>