<svg id="svg" version="1.1" width="500" height="630" xmlns="http://www.w3.org/2000/svg" xmlns:xlink="http://www.w3.org/1999/xlink" style="display: block;"><g id="svgg"><path id="path0" d="M173.600 6.400 C 173.600 6.851,171.349 7.200,168.447 7.200 C 165.613 7.200,163.072 7.560,162.800 8.000 C 162.528 8.440,160.728 8.800,158.800 8.800 C 156.872 8.800,155.072 9.160,154.800 9.600 C 154.528 10.040,153.247 10.400,151.953 10.400 C 150.659 10.400,149.600 10.760,149.600 11.200 C 149.600 11.640,148.160 12.000,146.400 12.000 C 144.640 12.000,143.200 12.360,143.200 12.800 C 143.200 13.240,142.120 13.600,140.800 13.600 C 139.480 13.600,138.400 13.960,138.400 14.400 C 138.400 14.840,137.320 15.200,136.000 15.200 C 134.680 15.200,133.600 15.560,133.600 16.000 C 133.600 16.440,132.901 16.800,132.047 16.800 C 131.193 16.800,130.272 17.160,130.000 17.600 C 129.728 18.040,128.627 18.400,127.553 18.400 C 126.479 18.400,125.600 18.760,125.600 19.200 C 125.600 19.640,124.520 20.000,123.200 20.000 C 121.880 20.000,120.800 20.360,120.800 20.800 C 120.800 21.240,120.080 21.600,119.200 21.600 C 118.320 21.600,117.600 21.960,117.600 22.400 C 117.600 22.840,116.880 23.200,116.000 23.200 C 115.120 23.200,114.400 23.560,114.400 24.000 C 114.400 24.440,113.680 24.800,112.800 24.800 C 111.920 24.800,111.200 25.160,111.200 25.600 C 111.200 26.040,110.480 26.400,109.600 26.400 C 108.720 26.400,108.000 26.760,108.000 27.200 C 108.000 27.640,107.280 28.000,106.400 28.000 C 105.520 28.000,104.800 28.360,104.800 28.800 C 104.800 29.240,104.328 29.600,103.751 29.600 C 103.174 29.600,101.929 30.320,100.984 31.200 C 100.040 32.080,98.791 32.800,98.210 32.800 C 97.629 32.800,96.634 33.520,96.000 34.400 C 95.366 35.280,94.206 36.000,93.423 36.000 C 92.641 36.000,92.000 36.360,92.000 36.800 C 92.000 37.240,91.424 37.600,90.721 37.600 C 90.018 37.600,88.433 38.680,87.200 40.000 C 85.967 41.320,84.527 42.400,84.000 42.400 C 83.473 42.400,82.033 43.480,80.800 44.800 C 79.567 46.120,78.165 47.200,77.685 47.200 C 77.205 47.200,74.261 49.720,71.144 52.800 C 68.028 55.880,65.136 58.400,64.718 58.400 C 63.728 58.400,56.800 65.328,56.800 66.318 C 56.800 66.736,54.280 69.628,51.200 72.744 C 48.120 75.861,45.600 78.805,45.600 79.285 C 45.600 79.765,44.520 81.167,43.200 82.400 C 41.880 83.633,40.800 85.073,40.800 85.600 C 40.800 86.127,39.720 87.567,38.400 88.800 C 37.080 90.033,36.000 91.618,36.000 92.321 C 36.000 93.024,35.640 93.600,35.200 93.600 C 34.760 93.600,34.400 94.241,34.400 95.023 C 34.400 95.806,33.680 96.966,32.800 97.600 C 31.920 98.234,31.200 99.394,31.200 100.177 C 31.200 100.959,30.840 101.600,30.400 101.600 C 29.960 101.600,29.600 102.241,29.600 103.023 C 29.600 103.806,28.880 104.966,28.000 105.600 C 27.120 106.234,26.400 107.394,26.400 108.177 C 26.400 108.959,26.040 109.600,25.600 109.600 C 25.160 109.600,24.800 110.320,24.800 111.200 C 24.800 112.080,24.440 112.800,24.000 112.800 C 23.560 112.800,23.200 113.520,23.200 114.400 C 23.200 115.280,22.840 116.000,22.400 116.000 C 21.960 116.000,21.600 116.529,21.600 117.176 C 21.600 117.822,20.880 119.633,20.000 121.200 C 19.120 122.767,18.400 124.758,18.400 125.624 C 18.400 126.491,18.040 127.200,17.600 127.200 C 17.160 127.200,16.800 128.280,16.800 129.600 C 16.800 130.920,16.440 132.000,16.000 132.000 C 15.560 132.000,15.200 132.699,15.200 133.553 C 15.200 134.407,14.840 135.328,14.400 135.600 C 13.960 135.872,13.600 136.973,13.600 138.047 C 13.600 139.121,13.240 140.000,12.800 140.000 C 12.360 140.000,12.000 141.059,12.000 142.353 C 12.000 143.647,11.640 144.928,11.200 145.200 C 10.760 145.472,10.400 146.933,10.400 148.447 C 10.400 149.961,10.040 151.200,9.600 151.200 C 9.160 151.200,8.800 152.640,8.800 154.400 C 8.800 156.160,8.440 157.600,8.000 157.600 C 7.560 157.600,7.200 159.400,7.200 161.600 C 7.200 163.800,6.840 165.600,6.400 165.600 C 5.943 165.600,5.600 168.000,5.600 171.200 C 5.600 174.400,5.257 176.800,4.800 176.800 C 3.705 176.800,3.705 223.724,4.800 224.400 C 5.240 224.672,5.600 227.192,5.600 230.000 C 5.600 232.808,5.960 235.328,6.400 235.600 C 6.840 235.872,7.200 237.492,7.200 239.200 C 7.200 240.908,7.560 242.528,8.000 242.800 C 8.440 243.072,8.800 244.692,8.800 246.400 C 8.800 248.108,9.160 249.728,9.600 250.000 C 10.040 250.272,10.400 251.532,10.400 252.800 C 10.400 254.068,10.760 255.328,11.200 255.600 C 11.640 255.872,12.000 256.952,12.000 258.000 C 12.000 259.048,12.360 260.128,12.800 260.400 C 13.240 260.672,13.600 261.932,13.600 263.200 C 13.600 264.468,13.960 265.728,14.400 266.000 C 14.840 266.272,15.200 267.193,15.200 268.047 C 15.200 268.901,15.560 269.600,16.000 269.600 C 16.440 269.600,16.800 270.680,16.800 272.000 C 16.800 273.320,17.160 274.400,17.600 274.400 C 18.040 274.400,18.400 275.120,18.400 276.000 C 18.400 276.880,18.760 277.600,19.200 277.600 C 19.640 277.600,20.000 278.320,20.000 279.200 C 20.000 280.080,20.360 280.800,20.800 280.800 C 21.240 280.800,21.608 281.610,21.618 282.600 C 21.628 283.590,22.340 285.300,23.200 286.400 C 24.060 287.500,24.772 288.962,24.782 289.649 C 24.792 290.336,25.520 291.671,26.400 292.616 C 27.280 293.560,28.000 294.888,28.000 295.567 C 28.000 296.245,28.360 296.800,28.800 296.800 C 29.240 296.800,29.600 297.520,29.600 298.400 C 29.600 299.280,29.960 300.000,30.400 300.000 C 30.840 300.000,31.200 300.472,31.200 301.049 C 31.200 301.626,31.920 302.871,32.800 303.816 C 33.680 304.760,34.400 306.009,34.400 306.590 C 34.400 307.171,35.120 308.166,36.000 308.800 C 36.880 309.434,37.600 310.449,37.600 311.056 C 37.600 311.662,38.680 313.167,40.000 314.400 C 41.320 315.633,42.400 317.073,42.400 317.600 C 42.400 318.127,43.412 319.512,44.649 320.679 C 45.886 321.846,47.135 323.430,47.424 324.200 C 47.715 324.975,48.771 325.600,49.790 325.600 C 51.061 325.600,54.097 328.096,59.615 333.679 C 64.007 338.122,74.620 347.907,83.200 355.423 C 104.566 374.138,112.638 382.636,123.644 398.000 C 130.564 407.661,144.000 429.590,144.000 431.225 C 144.000 431.651,144.289 432.000,144.643 432.000 C 144.996 432.000,146.166 433.794,147.243 435.988 C 148.319 438.181,149.470 439.981,149.800 439.988 C 150.130 439.994,150.400 440.367,150.400 440.814 C 150.400 441.262,151.759 443.872,153.421 446.614 C 155.083 449.357,157.056 452.900,157.806 454.490 C 158.557 456.079,159.694 457.814,160.334 458.345 C 160.974 458.876,161.719 460.322,161.991 461.557 C 162.262 462.793,163.725 465.198,165.241 466.902 C 166.758 468.606,167.999 470.664,167.999 471.475 C 168.000 472.286,168.696 473.132,169.546 473.354 C 170.397 473.577,171.637 474.906,172.303 476.308 C 172.968 477.710,174.522 479.792,175.756 480.934 C 176.990 482.077,179.021 484.134,180.268 485.506 C 181.515 486.877,182.823 488.000,183.175 488.000 C 183.526 488.000,184.002 488.720,184.232 489.601 C 184.462 490.482,184.324 491.000,183.925 490.754 C 182.738 490.020,183.101 491.216,184.487 492.602 C 185.670 493.785,185.836 493.779,186.537 492.528 C 187.527 490.758,189.011 491.675,188.379 493.667 C 188.035 494.749,188.275 495.200,189.193 495.200 C 189.909 495.200,190.272 494.840,190.000 494.400 C 189.720 493.946,190.392 493.600,191.553 493.600 C 192.679 493.600,193.600 493.960,193.600 494.400 C 193.600 495.677,197.381 495.324,197.889 494.000 C 198.143 493.340,199.106 492.800,200.031 492.800 C 202.353 492.800,207.626 489.014,212.433 483.895 C 219.387 476.491,223.231 470.137,243.833 432.000 C 261.548 399.206,277.731 380.758,295.802 372.759 C 297.231 372.127,298.400 371.337,298.400 371.005 C 298.400 370.672,298.887 370.400,299.481 370.400 C 300.076 370.400,301.693 369.320,303.074 368.000 C 304.455 366.680,305.952 365.600,306.400 365.600 C 306.848 365.600,308.345 364.520,309.726 363.200 C 311.107 361.880,312.644 360.800,313.142 360.800 C 313.640 360.800,314.566 360.080,315.200 359.200 C 315.834 358.320,316.842 357.600,317.439 357.600 C 318.037 357.600,319.909 356.160,321.600 354.400 C 323.291 352.640,325.075 351.200,325.565 351.200 C 326.893 351.200,352.800 324.908,352.800 323.560 C 352.800 322.922,353.160 322.400,353.600 322.400 C 354.040 322.400,354.400 321.928,354.400 321.351 C 354.400 320.774,355.030 319.589,355.800 318.717 C 357.738 316.523,359.758 313.126,361.988 308.310 C 363.030 306.061,365.402 301.741,367.260 298.710 C 370.563 293.321,377.288 280.096,379.059 275.508 C 385.021 260.061,388.800 248.184,388.800 244.894 C 388.800 243.781,389.516 242.888,390.800 242.400 C 392.402 241.791,392.800 241.088,392.800 238.867 C 392.800 237.342,393.160 235.872,393.600 235.600 C 394.040 235.328,394.400 232.808,394.400 230.000 C 394.400 227.192,394.760 224.672,395.200 224.400 C 396.295 223.724,396.295 176.800,395.200 176.800 C 394.743 176.800,394.400 174.400,394.400 171.200 C 394.400 168.000,394.057 165.600,393.600 165.600 C 393.160 165.600,392.800 163.800,392.800 161.600 C 392.800 159.400,392.440 157.600,392.000 157.600 C 391.560 157.600,391.200 156.160,391.200 154.400 C 391.200 152.640,390.840 151.200,390.400 151.200 C 389.960 151.200,389.600 149.961,389.600 148.447 C 389.600 146.933,389.240 145.472,388.800 145.200 C 388.360 144.928,388.000 143.647,388.000 142.353 C 388.000 141.059,387.640 140.000,387.200 140.000 C 386.760 140.000,386.400 139.121,386.400 138.047 C 386.400 136.973,386.040 135.872,385.600 135.600 C 385.160 135.328,384.800 134.407,384.800 133.553 C 384.800 132.699,384.440 132.000,384.000 132.000 C 383.560 132.000,383.200 130.920,383.200 129.600 C 383.200 128.280,382.840 127.200,382.400 127.200 C 381.960 127.200,381.600 126.491,381.600 125.624 C 381.600 124.758,380.880 122.767,380.000 121.200 C 379.120 119.633,378.400 117.822,378.400 117.176 C 378.400 116.529,378.040 116.000,377.600 116.000 C 377.160 116.000,376.800 115.280,376.800 114.400 C 376.800 113.520,376.440 112.800,376.000 112.800 C 375.560 112.800,375.200 112.080,375.200 111.200 C 375.200 110.320,374.840 109.600,374.400 109.600 C 373.960 109.600,373.600 108.959,373.600 108.177 C 373.600 107.394,372.880 106.234,372.000 105.600 C 371.120 104.966,370.400 103.806,370.400 103.023 C 370.400 102.241,370.040 101.600,369.600 101.600 C 369.160 101.600,368.800 100.959,368.800 100.177 C 368.800 99.394,368.080 98.234,367.200 97.600 C 366.320 96.966,365.600 95.806,365.600 95.023 C 365.600 94.241,365.240 93.600,364.800 93.600 C 364.360 93.600,364.000 93.024,364.000 92.321 C 364.000 91.618,362.920 90.033,361.600 88.800 C 360.280 87.567,359.200 86.127,359.200 85.600 C 359.200 85.073,358.120 83.633,356.800 82.400 C 355.480 81.167,354.400 79.745,354.400 79.240 C 354.400 78.736,351.880 75.838,348.800 72.800 C 345.720 69.762,343.200 66.890,343.200 66.418 C 343.200 65.298,336.302 58.400,335.182 58.400 C 334.710 58.400,331.838 55.880,328.800 52.800 C 325.762 49.720,322.864 47.200,322.360 47.200 C 321.855 47.200,320.433 46.120,319.200 44.800 C 317.967 43.480,316.527 42.400,316.000 42.400 C 315.473 42.400,314.033 41.320,312.800 40.000 C 311.567 38.680,309.982 37.600,309.279 37.600 C 308.576 37.600,308.000 37.240,308.000 36.800 C 308.000 36.360,307.359 36.000,306.577 36.000 C 305.794 36.000,304.634 35.280,304.000 34.400 C 303.366 33.520,302.371 32.800,301.790 32.800 C 301.209 32.800,299.960 32.080,299.016 31.200 C 298.071 30.320,296.826 29.600,296.249 29.600 C 295.672 29.600,295.200 29.240,295.200 28.800 C 295.200 28.360,294.480 28.000,293.600 28.000 C 292.720 28.000,292.000 27.640,292.000 27.200 C 292.000 26.760,291.280 26.400,290.400 26.400 C 289.520 26.400,288.800 26.040,288.800 25.600 C 288.800 25.160,288.080 24.800,287.200 24.800 C 286.320 24.800,285.600 24.440,285.600 24.000 C 285.600 23.560,284.880 23.200,284.000 23.200 C 283.120 23.200,282.400 22.840,282.400 22.400 C 282.400 21.960,281.680 21.600,280.800 21.600 C 279.920 21.600,279.200 21.240,279.200 20.800 C 279.200 20.360,278.120 20.000,276.800 20.000 C 275.480 20.000,274.400 19.640,274.400 19.200 C 274.400 18.760,273.521 18.400,272.447 18.400 C 271.373 18.400,270.272 18.040,270.000 17.600 C 269.728 17.160,268.807 16.800,267.953 16.800 C 267.099 16.800,266.400 16.440,266.400 16.000 C 266.400 15.560,265.320 15.200,264.000 15.200 C 262.680 15.200,261.600 14.840,261.600 14.400 C 261.600 13.960,260.520 13.600,259.200 13.600 C 257.880 13.600,256.800 13.240,256.800 12.800 C 256.800 12.360,255.360 12.000,253.600 12.000 C 251.840 12.000,250.400 11.640,250.400 11.200 C 250.400 10.760,249.341 10.400,248.047 10.400 C 246.753 10.400,245.472 10.040,245.200 9.600 C 244.928 9.160,243.128 8.800,241.200 8.800 C 239.272 8.800,237.472 8.440,237.200 8.000 C 236.928 7.560,234.387 7.200,231.553 7.200 C 228.651 7.200,226.400 6.851,226.400 6.400 C 226.400 5.883,217.067 5.600,200.000 5.600 C 182.933 5.600,173.600 5.883,173.600 6.400 M226.000 45.454 C 235.146 47.076,243.081 48.981,249.200 51.025 C 259.198 54.365,274.892 61.416,280.000 64.863 C 281.100 65.605,283.440 67.013,285.200 67.992 C 302.286 77.493,327.412 103.696,337.502 122.537 C 341.758 130.483,345.234 137.745,347.395 143.200 C 347.830 144.300,348.505 145.825,348.893 146.589 C 349.282 147.353,349.600 148.682,349.600 149.542 C 349.600 150.402,349.960 151.328,350.400 151.600 C 350.840 151.872,351.200 152.952,351.200 154.000 C 351.200 155.048,351.560 156.128,352.000 156.400 C 352.440 156.672,352.800 158.112,352.800 159.600 C 352.800 161.088,353.160 162.528,353.600 162.800 C 354.040 163.072,354.400 164.461,354.400 165.887 C 354.400 167.313,354.728 168.822,355.130 169.240 C 356.092 170.242,356.813 177.209,357.293 190.137 C 357.585 197.984,357.981 200.920,358.842 201.635 C 360.204 202.765,360.467 215.092,359.263 221.361 C 358.857 223.472,358.086 227.993,357.548 231.406 C 356.841 235.899,356.051 238.175,354.686 239.648 C 353.609 240.809,352.800 242.674,352.800 243.994 C 352.800 245.265,352.440 246.528,352.000 246.800 C 351.560 247.072,351.200 248.152,351.200 249.200 C 351.200 250.248,350.840 251.328,350.400 251.600 C 349.960 251.872,349.600 252.798,349.600 253.658 C 349.600 254.518,349.282 255.847,348.893 256.611 C 348.505 257.375,347.828 258.900,347.391 260.000 C 338.261 282.938,322.316 305.525,304.688 320.491 C 289.996 332.964,274.725 342.420,260.400 347.915 C 257.760 348.927,254.880 350.045,254.000 350.397 C 250.583 351.767,243.691 353.818,238.000 355.159 C 235.800 355.677,232.740 356.420,231.200 356.810 C 225.044 358.367,218.766 358.758,200.000 358.752 C 179.317 358.744,170.847 357.858,159.000 354.460 C 157.350 353.987,154.830 353.270,153.400 352.866 C 141.970 349.641,130.308 344.363,117.200 336.480 C 105.605 329.508,91.873 318.543,84.585 310.436 C 82.589 308.216,80.634 306.400,80.240 306.400 C 75.727 306.400,53.600 271.359,53.600 264.212 C 53.600 262.763,53.240 260.863,52.800 259.989 C 52.360 259.115,51.640 257.685,51.200 256.811 C 50.760 255.937,50.400 254.518,50.400 253.658 C 50.400 252.798,50.040 251.872,49.600 251.600 C 49.160 251.328,48.800 250.248,48.800 249.200 C 48.800 248.152,48.440 247.072,48.000 246.800 C 47.560 246.528,47.200 245.088,47.200 243.600 C 47.200 242.112,46.840 240.672,46.400 240.400 C 45.960 240.128,45.600 238.688,45.600 237.200 C 45.600 235.712,45.240 234.272,44.800 234.000 C 44.360 233.728,44.000 231.439,44.000 228.913 C 44.000 226.387,43.628 223.948,43.174 223.494 C 41.489 221.809,43.073 171.112,44.870 169.240 C 45.272 168.822,45.600 167.313,45.600 165.887 C 45.600 164.461,45.960 163.072,46.400 162.800 C 46.840 162.528,47.200 161.088,47.200 159.600 C 47.200 158.112,47.560 156.672,48.000 156.400 C 48.440 156.128,48.800 155.048,48.800 154.000 C 48.800 152.952,49.160 151.872,49.600 151.600 C 50.040 151.328,50.400 150.402,50.400 149.542 C 50.400 148.682,50.718 147.353,51.107 146.589 C 51.495 145.825,52.170 144.300,52.605 143.200 C 54.766 137.745,58.242 130.483,62.498 122.537 C 72.588 103.696,97.714 77.493,114.800 67.992 C 116.560 67.013,118.900 65.605,120.000 64.863 C 121.778 63.663,137.050 56.082,141.200 54.339 C 144.234 53.065,155.608 49.390,158.800 48.652 C 166.826 46.797,169.533 46.272,174.233 45.658 C 177.002 45.296,179.503 44.763,179.792 44.475 C 180.613 43.654,220.631 44.502,226.000 45.454 M189.200 124.754 C 166.533 135.993,135.102 151.277,133.060 152.053 C 131.294 152.725,131.200 153.144,131.200 160.333 C 131.200 169.720,130.984 169.614,140.520 164.903 C 144.854 162.762,153.800 158.395,160.400 155.198 C 167.000 152.002,179.347 146.014,187.838 141.893 C 196.329 137.772,203.934 134.400,204.739 134.400 C 206.125 134.400,216.139 139.136,258.659 159.904 C 268.701 164.808,277.251 168.615,277.659 168.364 C 279.547 167.197,278.506 152.801,276.478 152.030 C 274.151 151.145,256.658 142.684,227.434 128.308 C 215.462 122.418,205.202 117.603,204.634 117.607 C 204.065 117.611,197.120 120.828,189.200 124.754 M168.325 174.379 C 167.404 174.751,166.002 176.424,165.208 178.096 C 161.942 184.978,168.797 192.527,175.199 189.100 C 185.088 183.805,178.724 170.174,168.325 174.379 M232.720 174.934 C 224.862 179.811,231.567 193.003,239.977 189.210 C 243.566 187.592,245.146 185.020,245.032 180.980 C 244.866 175.139,237.901 171.718,232.720 174.934 M152.400 187.955 C 143.419 192.222,137.571 201.471,133.617 217.663 C 129.518 234.448,130.178 235.505,144.930 235.792 C 157.959 236.046,156.800 234.902,156.800 247.514 C 156.800 258.706,158.290 263.200,162.000 263.200 C 166.051 263.200,167.201 258.975,167.188 244.139 C 167.172 225.026,167.855 226.060,155.056 225.777 C 142.838 225.507,142.645 225.378,143.884 218.346 C 145.317 210.214,150.997 200.000,154.087 200.000 C 154.717 200.000,156.862 202.520,158.855 205.600 L 162.478 211.200 173.573 211.200 C 186.016 211.200,187.200 210.963,187.200 208.474 C 187.200 205.258,185.797 204.800,175.938 204.800 C 165.704 204.800,165.782 204.834,164.114 199.600 C 163.553 197.840,162.794 195.680,162.428 194.800 C 162.061 193.920,161.309 192.000,160.756 190.533 C 159.240 186.511,156.936 185.801,152.400 187.955 M250.234 188.225 C 249.225 189.314,247.891 191.960,247.269 194.103 C 246.646 196.246,245.489 199.530,244.697 201.400 L 243.257 204.800 233.726 204.800 C 223.454 204.800,222.025 205.331,222.539 208.956 C 222.797 210.777,222.951 210.803,234.869 211.020 L 246.938 211.240 250.676 205.620 C 255.034 199.065,255.942 198.830,259.251 203.398 C 262.906 208.442,264.784 213.149,265.980 220.261 C 266.815 225.221,266.016 225.600,254.720 225.600 C 241.567 225.600,242.221 224.576,242.551 244.646 C 242.798 259.721,242.813 259.834,244.800 261.485 C 250.078 265.870,252.364 261.956,252.535 248.241 C 252.699 235.121,252.205 235.706,262.970 235.880 C 279.054 236.140,280.920 231.712,273.876 210.000 C 269.020 195.029,255.480 182.559,250.234 188.225 M194.385 209.656 C 192.747 215.671,190.446 217.785,185.772 217.568 C 180.783 217.337,180.000 217.450,180.000 218.400 C 180.000 218.869,182.749 219.200,186.648 219.200 L 193.296 219.200 194.971 214.200 C 197.759 205.877,197.811 205.600,196.599 205.600 C 195.944 205.600,195.037 207.262,194.385 209.656 M212.000 206.372 C 212.000 207.303,214.159 213.940,215.457 217.000 C 216.401 219.224,229.600 220.611,229.600 218.486 C 229.600 217.309,227.594 216.899,224.115 217.366 C 219.333 218.007,217.225 216.312,215.475 210.416 C 214.276 206.378,212.000 203.729,212.000 206.372 M179.362 230.589 L 179.600 235.600 204.582 235.811 L 229.564 236.023 230.038 234.135 C 230.298 233.097,230.396 230.842,230.256 229.124 L 230.000 226.000 204.562 225.789 L 179.123 225.577 179.362 230.589 " stroke="none" fill="#ffffff" fill-rule="evenodd"></path><path id="path1" d="M178.800 44.800 C 177.511 45.354,177.773 45.498,180.153 45.544 C 181.777 45.575,183.328 45.240,183.600 44.800 C 184.197 43.835,181.046 43.835,178.800 44.800 M216.400 44.800 C 216.672 45.240,218.223 45.594,219.847 45.588 C 222.048 45.579,222.494 45.378,221.600 44.800 C 220.003 43.768,215.762 43.768,216.400 44.800 M168.800 46.400 C 167.861 47.007,168.069 47.178,169.753 47.188 C 170.937 47.194,172.128 46.840,172.400 46.400 C 173.031 45.378,170.381 45.378,168.800 46.400 M227.600 46.400 C 227.872 46.840,229.063 47.194,230.247 47.188 C 231.931 47.178,232.139 47.007,231.200 46.400 C 229.619 45.378,226.969 45.378,227.600 46.400 M161.600 48.000 C 160.665 48.604,160.886 48.778,162.600 48.788 C 163.810 48.794,164.800 48.440,164.800 48.000 C 164.800 46.988,163.165 46.988,161.600 48.000 M235.200 48.000 C 235.200 48.440,236.190 48.794,237.400 48.788 C 239.114 48.778,239.335 48.604,238.400 48.000 C 236.835 46.988,235.200 46.988,235.200 48.000 M155.200 49.600 C 154.261 50.207,154.469 50.378,156.153 50.388 C 157.337 50.394,158.528 50.040,158.800 49.600 C 159.431 48.578,156.781 48.578,155.200 49.600 M241.200 49.600 C 241.472 50.040,242.663 50.394,243.847 50.388 C 245.531 50.378,245.739 50.207,244.800 49.600 C 243.219 48.578,240.569 48.578,241.200 49.600 M150.400 51.200 C 149.430 51.827,149.544 51.978,151.000 51.988 C 151.990 51.994,152.800 51.640,152.800 51.200 C 152.800 50.198,151.951 50.198,150.400 51.200 M247.200 51.200 C 247.200 51.640,248.010 51.994,249.000 51.988 C 250.456 51.978,250.570 51.827,249.600 51.200 C 248.049 50.198,247.200 50.198,247.200 51.200 M145.600 52.800 C 144.630 53.427,144.744 53.578,146.200 53.588 C 147.190 53.594,148.000 53.240,148.000 52.800 C 148.000 51.798,147.151 51.798,145.600 52.800 M252.000 52.800 C 252.000 53.240,252.810 53.594,253.800 53.588 C 255.256 53.578,255.370 53.427,254.400 52.800 C 252.849 51.798,252.000 51.798,252.000 52.800 M141.200 54.400 C 140.928 54.840,141.447 55.200,142.353 55.200 C 143.259 55.200,144.000 54.840,144.000 54.400 C 144.000 53.960,143.481 53.600,142.847 53.600 C 142.213 53.600,141.472 53.960,141.200 54.400 M256.000 54.400 C 256.000 54.840,256.810 55.194,257.800 55.188 C 259.256 55.178,259.370 55.027,258.400 54.400 C 256.849 53.398,256.000 53.398,256.000 54.400 M137.200 56.000 C 136.928 56.440,137.447 56.800,138.353 56.800 C 139.259 56.800,140.000 56.440,140.000 56.000 C 140.000 55.560,139.481 55.200,138.847 55.200 C 138.213 55.200,137.472 55.560,137.200 56.000 M260.000 56.000 C 260.000 56.440,260.741 56.800,261.647 56.800 C 262.553 56.800,263.072 56.440,262.800 56.000 C 262.528 55.560,261.787 55.200,261.153 55.200 C 260.519 55.200,260.000 55.560,260.000 56.000 M120.000 64.800 C 118.379 66.068,118.265 66.368,119.400 66.382 C 120.170 66.392,120.800 66.040,120.800 65.600 C 120.800 65.160,121.340 64.800,122.000 64.800 C 122.660 64.800,123.200 64.440,123.200 64.000 C 123.200 62.810,122.235 63.052,120.000 64.800 M276.800 64.000 C 276.800 64.440,277.340 64.800,278.000 64.800 C 278.660 64.800,279.200 65.160,279.200 65.600 C 279.200 66.040,279.830 66.392,280.600 66.382 C 281.735 66.368,281.621 66.068,280.000 64.800 C 277.765 63.052,276.800 62.810,276.800 64.000 M105.200 74.602 C 90.813 85.381,77.931 99.074,66.629 115.600 C 64.737 118.366,61.600 123.871,61.600 124.424 C 61.600 125.827,63.088 124.323,64.000 122.000 C 64.604 120.460,65.391 119.200,65.749 119.200 C 66.107 119.200,66.400 118.660,66.400 118.000 C 66.400 117.340,66.760 116.800,67.200 116.800 C 67.640 116.800,68.000 116.260,68.000 115.600 C 68.000 114.940,68.299 114.400,68.665 114.400 C 69.030 114.400,69.840 113.415,70.465 112.211 C 71.591 110.040,73.077 107.994,75.000 105.968 C 75.550 105.388,76.000 104.715,76.000 104.471 C 76.000 102.921,101.258 77.600,102.804 77.600 C 103.146 77.600,105.099 76.099,107.489 74.000 C 107.990 73.560,109.390 72.689,110.600 72.065 C 111.810 71.440,112.800 70.630,112.800 70.265 C 112.800 69.899,113.340 69.600,114.000 69.600 C 114.660 69.600,115.200 69.240,115.200 68.800 C 115.200 67.310,114.016 67.997,105.200 74.602 M284.800 68.800 C 284.800 69.240,285.340 69.600,286.000 69.600 C 286.660 69.600,287.200 69.899,287.200 70.265 C 287.200 70.630,288.190 71.440,289.400 72.065 C 290.610 72.689,292.010 73.560,292.511 74.000 C 294.901 76.099,296.854 77.600,297.196 77.600 C 298.742 77.600,324.000 102.921,324.000 104.471 C 324.000 105.180,326.442 107.424,326.812 107.054 C 326.997 106.870,324.670 103.639,321.640 99.874 C 311.716 87.542,284.800 64.839,284.800 68.800 M327.200 108.753 C 327.200 109.219,327.560 109.600,328.000 109.600 C 328.440 109.600,328.800 110.072,328.800 110.649 C 328.800 111.226,329.520 112.471,330.400 113.416 C 331.280 114.360,332.000 115.508,332.000 115.967 C 332.000 116.425,332.360 116.800,332.800 116.800 C 333.240 116.800,333.600 117.340,333.600 118.000 C 333.600 118.660,333.893 119.200,334.251 119.200 C 334.609 119.200,335.396 120.460,336.000 122.000 C 336.912 124.323,338.400 125.827,338.400 124.424 C 338.400 123.109,329.429 109.283,328.004 108.402 C 327.562 108.129,327.200 108.287,327.200 108.753 M195.200 120.207 C 191.460 122.030,176.340 129.424,161.600 136.639 C 146.860 143.855,133.990 150.074,133.000 150.459 C 132.010 150.845,131.200 151.520,131.200 151.960 C 131.200 153.234,136.565 150.722,187.668 125.523 C 196.505 121.165,204.170 117.600,204.701 117.600 C 205.233 117.600,215.462 122.418,227.434 128.308 C 256.658 142.684,274.151 151.145,276.478 152.030 C 279.442 153.157,278.828 151.407,275.800 150.096 C 274.370 149.477,265.100 145.017,255.200 140.185 C 199.865 113.178,205.664 115.109,195.200 120.207 M58.058 130.629 C 57.251 132.294,56.809 133.876,57.076 134.143 C 57.344 134.410,57.815 133.947,58.123 133.115 C 58.431 132.282,59.015 131.377,59.420 131.104 C 59.826 130.831,60.015 129.931,59.842 129.104 C 59.597 127.937,59.197 128.279,58.058 130.629 M340.000 129.600 C 340.000 130.480,340.318 131.200,340.707 131.200 C 341.095 131.200,341.621 131.994,341.875 132.965 C 342.129 133.936,342.578 134.489,342.873 134.194 C 343.393 133.674,341.093 128.000,340.362 128.000 C 340.163 128.000,340.000 128.720,340.000 129.600 M191.600 140.001 C 185.440 143.032,172.264 149.459,162.320 154.285 C 152.375 159.111,141.629 164.350,138.438 165.927 C 135.248 167.504,132.314 168.594,131.919 168.350 C 131.523 168.105,131.200 168.467,131.200 169.153 C 131.200 171.033,132.973 170.681,138.961 167.611 C 155.441 159.162,203.574 136.000,204.651 136.000 C 205.346 136.000,210.433 138.213,215.957 140.917 C 221.481 143.622,232.120 148.796,239.600 152.416 C 247.080 156.035,258.362 161.563,264.672 164.699 C 276.643 170.649,278.400 171.218,278.400 169.153 C 278.400 168.467,278.067 168.112,277.659 168.364 C 277.251 168.615,268.701 164.808,258.659 159.904 C 197.556 130.061,206.445 132.699,191.600 140.001 M54.183 138.883 C 53.863 139.204,53.600 140.019,53.600 140.693 C 53.600 141.594,53.837 141.683,54.490 141.030 C 54.980 140.541,55.242 139.726,55.073 139.220 C 54.905 138.714,54.504 138.563,54.183 138.883 M344.800 139.506 C 344.800 140.166,345.160 140.928,345.600 141.200 C 346.040 141.472,346.400 141.154,346.400 140.494 C 346.400 139.834,346.040 139.072,345.600 138.800 C 345.160 138.528,344.800 138.846,344.800 139.506 M52.583 142.883 C 52.263 143.204,52.000 144.019,52.000 144.693 C 52.000 145.594,52.237 145.683,52.890 145.030 C 53.380 144.541,53.642 143.726,53.473 143.220 C 53.305 142.714,52.904 142.563,52.583 142.883 M346.400 143.506 C 346.400 144.166,346.760 144.928,347.200 145.200 C 347.640 145.472,348.000 145.154,348.000 144.494 C 348.000 143.834,347.640 143.072,347.200 142.800 C 346.760 142.528,346.400 142.846,346.400 143.506 M50.825 147.435 C 50.483 148.223,50.427 149.093,50.701 149.368 C 51.514 150.180,52.168 149.039,51.795 147.463 C 51.463 146.065,51.420 146.064,50.825 147.435 M348.000 147.953 C 348.000 148.859,348.360 149.600,348.800 149.600 C 349.240 149.600,349.600 149.081,349.600 148.447 C 349.600 147.813,349.240 147.072,348.800 146.800 C 348.360 146.528,348.000 147.047,348.000 147.953 M49.225 152.235 C 48.883 153.023,48.827 153.893,49.101 154.168 C 49.914 154.980,50.568 153.839,50.195 152.263 C 49.863 150.865,49.820 150.864,49.225 152.235 M349.600 152.753 C 349.600 153.659,349.960 154.400,350.400 154.400 C 350.840 154.400,351.200 153.881,351.200 153.247 C 351.200 152.613,350.840 151.872,350.400 151.600 C 349.960 151.328,349.600 151.847,349.600 152.753 M47.733 156.533 C 46.903 157.363,47.106 160.000,48.000 160.000 C 48.440 160.000,48.800 159.100,48.800 158.000 C 48.800 155.906,48.615 155.651,47.733 156.533 M351.200 157.953 C 351.200 159.079,351.560 160.000,352.000 160.000 C 352.440 160.000,352.800 159.301,352.800 158.447 C 352.800 157.593,352.440 156.672,352.000 156.400 C 351.546 156.120,351.200 156.792,351.200 157.953 M46.133 162.933 C 45.303 163.763,45.506 166.400,46.400 166.400 C 46.840 166.400,47.200 165.500,47.200 164.400 C 47.200 162.306,47.015 162.051,46.133 162.933 M352.800 164.353 C 352.800 165.479,353.160 166.400,353.600 166.400 C 354.040 166.400,354.400 165.701,354.400 164.847 C 354.400 163.993,354.040 163.072,353.600 162.800 C 353.146 162.520,352.800 163.192,352.800 164.353 M44.533 169.333 C 43.696 170.171,43.910 173.600,44.800 173.600 C 45.240 173.600,45.600 172.520,45.600 171.200 C 45.600 168.715,45.437 168.430,44.533 169.333 M354.400 171.153 C 354.400 172.499,354.760 173.600,355.200 173.600 C 355.640 173.600,356.000 172.721,356.000 171.647 C 356.000 170.573,355.640 169.472,355.200 169.200 C 354.733 168.912,354.400 169.725,354.400 171.153 M168.374 172.778 C 160.981 176.483,160.357 185.830,167.232 189.892 C 175.744 194.920,185.891 185.336,180.835 177.043 C 177.730 171.950,173.153 170.384,168.374 172.778 M233.616 172.601 C 223.922 177.471,226.485 191.200,237.088 191.200 C 247.647 191.200,250.783 177.439,241.273 172.835 C 237.180 170.854,237.099 170.851,233.616 172.601 M176.707 174.905 C 180.015 177.222,181.128 181.201,179.436 184.662 C 175.970 191.753,167.380 191.577,164.883 184.364 C 162.312 176.938,170.386 170.478,176.707 174.905 M242.462 175.822 C 249.346 181.973,241.795 193.310,233.804 188.819 C 229.794 186.565,228.244 182.851,229.668 178.912 C 231.629 173.489,238.101 171.925,242.462 175.822 M43.000 179.465 C 42.045 181.799,42.239 186.081,43.255 185.065 C 43.725 184.595,43.995 182.813,43.855 181.105 C 43.667 178.812,43.443 178.383,43.000 179.465 M356.012 181.353 C 356.006 183.197,356.360 184.928,356.800 185.200 C 357.836 185.841,357.836 180.804,356.800 179.200 C 356.231 178.320,356.021 178.893,356.012 181.353 M154.004 185.389 C 143.707 187.993,131.120 207.953,131.252 221.468 L 131.304 226.800 133.253 218.800 C 135.758 208.517,137.235 204.569,140.503 199.419 C 147.897 187.766,158.036 183.318,160.756 190.533 C 161.309 192.000,162.061 193.920,162.428 194.800 C 162.794 195.680,163.553 197.840,164.114 199.600 C 165.782 204.834,165.704 204.800,175.938 204.800 C 185.797 204.800,187.200 205.258,187.200 208.474 C 187.200 210.963,186.016 211.200,173.573 211.200 L 162.478 211.200 158.855 205.600 C 156.862 202.520,154.717 200.000,154.087 200.000 C 150.997 200.000,145.317 210.214,143.884 218.346 C 142.645 225.378,142.838 225.507,155.056 225.777 C 167.855 226.060,167.172 225.026,167.188 244.139 C 167.200 258.190,167.187 258.292,165.129 260.739 C 159.982 266.855,156.800 261.802,156.800 247.514 C 156.800 234.902,157.959 236.046,144.930 235.792 C 135.210 235.603,135.030 235.566,133.130 233.355 C 131.457 231.410,131.200 231.318,131.200 232.663 C 131.200 235.914,134.880 237.187,144.800 237.367 C 149.860 237.459,154.270 237.549,154.600 237.567 C 154.930 237.585,155.200 242.348,155.200 248.150 C 155.200 261.191,156.423 263.985,162.135 263.995 C 168.064 264.004,168.800 261.729,168.800 243.394 C 168.800 223.539,169.492 224.546,155.473 224.000 L 145.200 223.600 145.441 220.800 C 146.043 213.798,151.212 202.398,153.782 202.401 C 154.342 202.402,155.880 204.112,157.200 206.201 C 161.507 213.018,160.943 212.800,174.276 212.800 C 187.321 212.800,188.800 212.289,188.800 207.782 C 188.800 204.105,186.326 203.200,176.276 203.200 C 167.671 203.200,167.286 203.127,166.761 201.400 C 163.391 190.305,159.114 183.817,155.879 184.893 C 155.726 184.944,154.882 185.167,154.004 185.389 M251.200 185.508 C 249.115 186.038,246.005 191.367,243.929 197.965 C 242.286 203.189,242.262 203.200,232.666 203.200 C 222.825 203.200,219.174 204.939,220.467 209.010 C 221.535 212.377,222.991 212.748,235.249 212.775 C 248.483 212.803,248.069 212.973,252.800 205.600 L 255.516 201.368 257.769 204.067 C 261.094 208.050,265.677 222.056,264.154 223.580 C 263.923 223.811,259.457 224.000,254.230 224.000 C 240.077 224.000,239.710 224.574,240.143 246.031 C 240.452 261.356,241.544 264.005,247.550 263.995 C 253.156 263.985,254.400 261.123,254.400 248.233 L 254.400 237.765 264.200 237.469 C 275.119 237.139,278.400 235.944,278.400 232.295 C 278.400 230.426,278.338 230.445,276.066 232.987 L 273.733 235.600 263.968 235.738 C 252.004 235.907,252.699 235.148,252.535 248.241 C 252.364 261.956,250.078 265.870,244.800 261.485 C 242.813 259.834,242.798 259.721,242.551 244.646 C 242.221 224.576,241.567 225.600,254.720 225.600 C 266.016 225.600,266.815 225.221,265.980 220.261 C 264.784 213.149,262.906 208.442,259.251 203.398 C 255.942 198.830,255.034 199.065,250.676 205.620 L 246.938 211.240 234.869 211.020 C 222.951 210.803,222.797 210.777,222.539 208.956 C 222.025 205.331,223.454 204.800,233.726 204.800 L 243.257 204.800 244.673 201.400 C 245.452 199.530,246.590 196.380,247.203 194.400 C 249.594 186.672,251.722 185.350,257.293 188.132 C 266.645 192.803,272.553 202.657,276.399 220.000 L 278.263 228.400 278.331 222.691 C 278.541 205.269,262.100 182.737,251.200 185.508 M195.029 204.189 C 194.311 204.745,193.161 207.136,192.474 209.503 C 190.682 215.676,190.254 216.000,183.877 216.000 C 178.015 216.000,176.340 217.118,178.431 219.638 C 179.234 220.604,181.018 220.808,187.096 220.628 L 194.751 220.400 197.119 213.316 C 199.855 205.129,198.946 201.158,195.029 204.189 M211.360 204.160 C 209.968 205.552,210.233 207.655,212.650 214.400 L 214.800 220.400 222.479 220.628 C 230.549 220.867,232.606 220.110,231.528 217.301 C 231.135 216.277,229.877 216.000,225.612 216.000 C 219.474 216.000,219.097 215.732,217.168 209.980 C 215.214 204.153,213.292 202.228,211.360 204.160 M197.177 207.400 C 196.885 208.390,195.892 211.450,194.971 214.200 L 193.296 219.200 186.648 219.200 C 182.749 219.200,180.000 218.869,180.000 218.400 C 180.000 217.450,180.783 217.337,185.772 217.568 C 190.446 217.785,192.747 215.671,194.385 209.656 C 195.037 207.262,195.944 205.600,196.599 205.600 C 197.373 205.600,197.548 206.143,197.177 207.400 M215.475 210.416 C 217.225 216.312,219.333 218.007,224.115 217.366 C 227.594 216.899,229.600 217.309,229.600 218.486 C 229.600 220.611,216.401 219.224,215.457 217.000 C 214.159 213.940,212.000 207.303,212.000 206.372 C 212.000 203.729,214.276 206.378,215.475 210.416 M359.335 213.600 C 359.251 215.580,359.012 218.640,358.804 220.400 L 358.425 223.600 359.245 220.400 C 359.696 218.640,359.935 215.580,359.777 213.600 L 359.488 210.000 359.335 213.600 M42.400 220.306 C 42.400 221.846,42.760 223.328,43.200 223.600 C 43.675 223.894,44.000 222.957,44.000 221.294 C 44.000 219.754,43.640 218.272,43.200 218.000 C 42.725 217.706,42.400 218.643,42.400 220.306 M178.144 224.523 C 177.845 224.822,177.600 227.665,177.600 230.840 C 177.600 238.117,175.381 237.576,205.247 237.589 C 233.619 237.602,232.187 238.012,231.841 229.981 L 231.600 224.400 205.144 224.189 C 190.593 224.074,178.443 224.224,178.144 224.523 M230.256 229.124 C 230.396 230.842,230.298 233.097,230.038 234.135 L 229.564 236.023 204.582 235.811 L 179.600 235.600 179.362 230.589 L 179.123 225.577 204.562 225.789 L 230.000 226.000 230.256 229.124 M357.236 229.236 C 356.930 231.277,356.844 233.110,357.044 233.310 C 357.244 233.510,357.658 232.004,357.964 229.964 C 358.270 227.923,358.356 226.090,358.156 225.890 C 357.956 225.690,357.542 227.196,357.236 229.236 M44.000 231.553 C 44.000 232.627,44.360 233.728,44.800 234.000 C 45.267 234.288,45.600 233.475,45.600 232.047 C 45.600 230.701,45.240 229.600,44.800 229.600 C 44.360 229.600,44.000 230.479,44.000 231.553 M45.600 238.353 C 45.600 239.207,45.960 240.128,46.400 240.400 C 46.854 240.680,47.200 240.008,47.200 238.847 C 47.200 237.721,46.840 236.800,46.400 236.800 C 45.960 236.800,45.600 237.499,45.600 238.353 M389.099 243.574 C 388.285 245.696,389.179 246.393,390.125 244.374 C 390.642 243.270,390.719 242.400,390.300 242.400 C 389.887 242.400,389.347 242.928,389.099 243.574 M47.200 244.753 C 47.200 245.607,47.560 246.528,48.000 246.800 C 48.454 247.080,48.800 246.408,48.800 245.247 C 48.800 244.121,48.440 243.200,48.000 243.200 C 47.560 243.200,47.200 243.899,47.200 244.753 M351.200 245.247 C 351.200 246.408,351.546 247.080,352.000 246.800 C 352.440 246.528,352.800 245.607,352.800 244.753 C 352.800 243.899,352.440 243.200,352.000 243.200 C 351.560 243.200,351.200 244.121,351.200 245.247 M48.800 249.953 C 48.800 250.587,49.160 251.328,49.600 251.600 C 50.040 251.872,50.400 251.353,50.400 250.447 C 50.400 249.541,50.040 248.800,49.600 248.800 C 49.160 248.800,48.800 249.319,48.800 249.953 M349.600 250.447 C 349.600 251.353,349.960 251.872,350.400 251.600 C 350.840 251.328,351.200 250.587,351.200 249.953 C 351.200 249.319,350.840 248.800,350.400 248.800 C 349.960 248.800,349.600 249.541,349.600 250.447 M50.400 254.753 C 50.400 255.387,50.760 256.128,51.200 256.400 C 51.640 256.672,52.000 256.153,52.000 255.247 C 52.000 254.341,51.640 253.600,51.200 253.600 C 50.760 253.600,50.400 254.119,50.400 254.753 M348.000 255.247 C 348.000 256.153,348.360 256.672,348.800 256.400 C 349.240 256.128,349.600 255.387,349.600 254.753 C 349.600 254.119,349.240 253.600,348.800 253.600 C 348.360 253.600,348.000 254.341,348.000 255.247 M52.000 258.706 C 52.000 259.366,52.360 260.128,52.800 260.400 C 53.240 260.672,53.600 260.354,53.600 259.694 C 53.600 259.034,53.240 258.272,52.800 258.000 C 52.360 257.728,52.000 258.046,52.000 258.706 M346.983 258.083 C 346.663 258.404,346.400 259.219,346.400 259.893 C 346.400 260.794,346.637 260.883,347.290 260.230 C 347.780 259.741,348.042 258.926,347.873 258.420 C 347.705 257.914,347.304 257.762,346.983 258.083 M345.383 262.083 C 345.063 262.404,344.800 263.219,344.800 263.893 C 344.800 264.794,345.037 264.883,345.690 264.230 C 346.180 263.741,346.442 262.926,346.273 262.420 C 346.105 261.914,345.704 261.762,345.383 262.083 M54.467 268.400 C 54.467 268.840,55.157 270.460,56.000 272.000 C 56.843 273.540,57.533 274.440,57.533 274.000 C 57.533 273.560,56.843 271.940,56.000 270.400 C 55.157 268.860,54.467 267.960,54.467 268.400 M381.200 269.600 C 380.900 270.546,380.834 271.501,381.054 271.721 C 381.274 271.941,381.700 271.346,382.000 270.400 C 382.300 269.454,382.366 268.499,382.146 268.279 C 381.926 268.059,381.500 268.654,381.200 269.600 M341.875 270.235 C 341.621 271.206,341.095 272.000,340.707 272.000 C 340.318 272.000,340.016 272.810,340.035 273.800 C 340.064 275.270,340.368 275.037,341.693 272.525 C 342.586 270.833,343.095 269.229,342.826 268.959 C 342.557 268.690,342.129 269.264,341.875 270.235 M336.800 279.600 C 336.800 280.260,336.440 280.800,336.000 280.800 C 335.560 280.800,335.200 281.520,335.200 282.400 C 335.200 283.280,334.840 284.000,334.400 284.000 C 333.960 284.000,333.600 284.540,333.600 285.200 C 333.600 285.860,333.240 286.400,332.800 286.400 C 332.360 286.400,332.000 286.940,332.000 287.600 C 332.000 288.260,331.701 288.800,331.335 288.800 C 330.970 288.800,330.160 289.785,329.535 290.989 C 328.409 293.160,326.923 295.206,325.000 297.232 C 324.450 297.812,324.000 298.485,324.000 298.729 C 324.000 300.432,298.709 325.593,296.987 325.604 C 296.664 325.606,295.250 326.686,293.843 328.004 C 292.437 329.322,290.975 330.400,290.594 330.400 C 290.213 330.400,289.204 331.030,288.351 331.800 C 287.498 332.570,285.810 333.711,284.600 334.335 C 283.390 334.960,282.400 335.766,282.400 336.128 C 282.400 337.766,293.577 329.925,304.688 320.491 C 315.686 311.154,326.390 298.592,334.525 285.476 C 338.661 278.806,338.838 278.400,337.600 278.400 C 337.160 278.400,336.800 278.940,336.800 279.600 M62.459 283.600 C 63.447 285.360,64.600 287.160,65.019 287.600 C 66.217 288.855,63.478 283.787,61.992 282.000 C 61.261 281.120,61.471 281.840,62.459 283.600 M68.680 293.431 C 69.667 294.817,70.889 296.208,71.395 296.520 C 71.901 296.833,71.507 295.955,70.520 294.569 C 69.533 293.183,68.311 291.792,67.805 291.480 C 67.299 291.167,67.693 292.045,68.680 293.431 M369.306 295.400 L 367.867 298.000 369.515 296.000 C 370.978 294.226,371.627 292.800,370.972 292.800 C 370.847 292.800,370.097 293.970,369.306 295.400 M73.480 299.831 C 74.467 301.217,75.689 302.608,76.195 302.920 C 76.701 303.233,76.307 302.355,75.320 300.969 C 74.333 299.583,73.111 298.192,72.605 297.880 C 72.099 297.567,72.493 298.445,73.480 299.831 M366.304 300.200 C 365.780 301.190,364.829 302.900,364.191 304.000 C 363.078 305.919,363.086 305.935,364.377 304.400 C 365.971 302.504,368.209 298.400,367.649 298.400 C 367.433 298.400,366.828 299.210,366.304 300.200 M78.298 305.000 C 78.902 305.770,79.747 306.400,80.176 306.400 C 80.605 306.400,82.589 308.216,84.585 310.436 C 92.516 319.258,117.600 338.778,117.600 336.128 C 117.600 335.766,116.610 334.960,115.400 334.335 C 114.190 333.711,112.502 332.570,111.649 331.800 C 110.796 331.030,109.787 330.400,109.406 330.400 C 109.025 330.400,107.563 329.322,106.157 328.004 C 104.750 326.686,103.336 325.606,103.013 325.604 C 102.191 325.599,95.158 319.217,87.610 311.626 C 84.096 308.092,80.908 305.303,80.526 305.428 C 80.144 305.554,79.239 305.194,78.516 304.628 C 77.342 303.711,77.318 303.751,78.298 305.000 M50.199 326.164 C 51.188 326.355,54.197 328.967,56.885 331.969 C 59.573 334.972,64.343 339.683,67.486 342.440 C 71.097 345.607,69.228 343.430,62.411 336.526 C 55.140 329.163,51.097 325.636,50.011 325.709 C 48.596 325.805,48.619 325.860,50.199 326.164 M118.400 337.132 C 118.400 337.462,125.531 341.600,126.101 341.600 C 127.437 341.600,125.861 340.087,123.600 339.200 C 122.060 338.596,120.800 337.809,120.800 337.451 C 120.800 337.093,120.260 336.800,119.600 336.800 C 118.940 336.800,118.400 336.949,118.400 337.132 M279.200 337.451 C 279.200 337.809,277.940 338.596,276.400 339.200 C 274.860 339.804,273.600 340.591,273.600 340.949 C 273.600 341.886,273.810 341.817,277.899 339.532 C 281.836 337.331,282.322 336.800,280.400 336.800 C 279.740 336.800,279.200 337.093,279.200 337.451 M127.200 341.941 C 127.200 342.263,131.925 344.800,132.523 344.800 C 133.591 344.800,132.411 343.425,130.634 342.600 C 128.425 341.574,127.200 341.339,127.200 341.941 M269.000 342.688 C 267.495 343.433,266.509 344.800,267.477 344.800 C 268.075 344.800,272.800 342.263,272.800 341.941 C 272.800 341.372,270.906 341.744,269.000 342.688 M133.600 345.189 C 133.600 345.536,138.944 348.000,139.698 348.000 C 139.864 348.000,140.000 347.640,140.000 347.200 C 140.000 346.760,139.301 346.400,138.447 346.400 C 137.593 346.400,136.672 346.040,136.400 345.600 C 135.904 344.797,133.600 344.459,133.600 345.189 M263.600 345.600 C 263.328 346.040,262.407 346.400,261.553 346.400 C 260.699 346.400,260.000 346.760,260.000 347.200 C 260.000 347.640,260.136 348.000,260.302 348.000 C 261.056 348.000,266.400 345.536,266.400 345.189 C 266.400 344.459,264.096 344.797,263.600 345.600 M73.600 347.557 C 73.600 348.032,75.958 350.212,81.400 354.766 C 86.116 358.713,84.105 356.287,78.800 351.630 C 75.940 349.119,73.600 347.286,73.600 347.557 M143.931 349.679 C 145.873 350.541,147.853 351.097,148.331 350.916 C 148.809 350.735,148.480 350.338,147.600 350.035 C 146.720 349.731,145.375 349.149,144.611 348.742 C 143.847 348.334,142.587 348.025,141.811 348.057 C 141.035 348.088,141.989 348.818,143.931 349.679 M256.000 348.800 C 256.000 349.802,256.849 349.802,258.400 348.800 C 259.370 348.173,259.256 348.022,257.800 348.012 C 256.810 348.006,256.000 348.360,256.000 348.800 M251.600 350.400 C 251.328 350.840,251.646 351.200,252.306 351.200 C 252.966 351.200,253.728 350.840,254.000 350.400 C 254.272 349.960,253.954 349.600,253.294 349.600 C 252.634 349.600,251.872 349.960,251.600 350.400 M150.400 352.000 C 151.976 353.019,153.829 353.019,153.200 352.000 C 152.928 351.560,151.917 351.206,150.953 351.212 C 149.528 351.222,149.424 351.370,150.400 352.000 M246.800 352.000 C 246.171 353.019,248.024 353.019,249.600 352.000 C 250.576 351.370,250.472 351.222,249.047 351.212 C 248.083 351.206,247.072 351.560,246.800 352.000 M156.000 353.600 C 157.576 354.619,159.429 354.619,158.800 353.600 C 158.528 353.160,157.517 352.806,156.553 352.812 C 155.128 352.822,155.024 352.970,156.000 353.600 M241.200 353.600 C 240.571 354.619,242.424 354.619,244.000 353.600 C 244.976 352.970,244.872 352.822,243.447 352.812 C 242.483 352.806,241.472 353.160,241.200 353.600 M161.600 355.200 C 163.181 356.222,165.831 356.222,165.200 355.200 C 164.928 354.760,163.737 354.406,162.553 354.412 C 160.869 354.422,160.661 354.593,161.600 355.200 M234.800 355.200 C 234.210 356.155,235.777 356.155,238.000 355.200 C 239.429 354.586,239.369 354.506,237.447 354.456 C 236.263 354.425,235.072 354.760,234.800 355.200 M168.800 356.800 C 169.460 357.227,171.080 357.575,172.400 357.575 C 174.241 357.575,174.521 357.395,173.600 356.800 C 172.940 356.373,171.320 356.025,170.000 356.025 C 168.159 356.025,167.879 356.205,168.800 356.800 M226.400 356.800 C 225.479 357.395,225.759 357.575,227.600 357.575 C 228.920 357.575,230.540 357.227,231.200 356.800 C 232.121 356.205,231.841 356.025,230.000 356.025 C 228.680 356.025,227.060 356.373,226.400 356.800 M92.979 364.870 C 97.501 368.869,102.028 373.050,103.041 374.162 C 104.054 375.275,105.051 376.016,105.257 375.810 C 105.658 375.409,86.100 357.600,85.259 357.600 C 84.984 357.600,88.458 360.872,92.979 364.870 M179.200 358.400 C 182.080 359.322,187.346 359.322,185.200 358.400 C 184.320 358.022,182.160 357.723,180.400 357.736 C 177.651 357.756,177.482 357.850,179.200 358.400 M214.800 358.400 C 212.654 359.322,217.920 359.322,220.800 358.400 C 222.518 357.850,222.349 357.756,219.600 357.736 C 217.840 357.723,215.680 358.022,214.800 358.400 M112.473 384.731 C 118.407 391.958,122.285 396.346,121.019 394.400 C 119.299 391.759,110.477 381.100,108.768 379.600 C 107.766 378.720,109.433 381.029,112.473 384.731 M279.646 382.850 C 276.760 385.298,274.400 387.676,274.400 388.135 C 274.400 388.594,275.390 387.914,276.600 386.624 C 277.810 385.335,280.538 382.957,282.661 381.340 C 284.785 379.723,286.155 378.400,285.707 378.400 C 285.258 378.400,282.531 380.403,279.646 382.850 M265.484 398.200 C 260.772 404.170,253.611 414.493,252.025 417.600 C 250.359 420.864,252.211 418.480,257.618 410.400 C 260.415 406.220,264.468 400.550,266.625 397.800 C 268.782 395.050,270.366 392.800,270.146 392.800 C 269.926 392.800,267.828 395.230,265.484 398.200 M127.268 404.525 C 132.510 412.422,135.721 416.769,133.973 413.600 C 132.300 410.568,122.908 396.714,122.250 396.307 C 121.843 396.056,124.101 399.754,127.268 404.525 M135.448 417.200 C 136.124 418.520,137.276 420.320,138.008 421.200 C 138.739 422.080,138.529 421.360,137.541 419.600 C 135.360 415.717,133.727 413.845,135.448 417.200 M249.504 421.800 C 248.980 422.790,248.029 424.500,247.391 425.600 C 246.278 427.519,246.286 427.535,247.577 426.000 C 249.171 424.104,251.409 420.000,250.849 420.000 C 250.633 420.000,250.028 420.810,249.504 421.800 M139.218 423.800 C 139.228 424.130,139.969 425.300,140.866 426.400 L 142.496 428.400 141.228 425.800 C 140.022 423.329,139.179 422.490,139.218 423.800 M145.274 434.000 C 145.994 435.100,146.715 436.000,146.875 436.000 C 147.035 436.000,146.756 435.100,146.254 434.000 C 145.753 432.900,145.033 432.000,144.653 432.000 C 144.274 432.000,144.553 432.900,145.274 434.000 M241.200 436.800 C 240.517 438.120,240.139 439.200,240.359 439.200 C 240.579 439.200,241.317 438.120,242.000 436.800 C 242.683 435.480,243.061 434.400,242.841 434.400 C 242.621 434.400,241.883 435.480,241.200 436.800 M147.200 437.464 C 147.200 438.633,150.343 442.135,150.373 441.000 C 150.388 440.450,150.040 440.000,149.600 440.000 C 149.160 440.000,148.800 439.481,148.800 438.847 C 148.800 438.213,148.440 437.472,148.000 437.200 C 147.560 436.928,147.200 437.047,147.200 437.464 M237.279 443.996 C 236.081 446.198,235.272 448.000,235.482 448.000 C 236.017 448.000,240.086 440.619,239.741 440.274 C 239.586 440.119,238.478 441.794,237.279 443.996 M151.004 444.400 C 151.214 445.500,151.705 446.400,152.093 446.400 C 152.482 446.400,152.800 447.033,152.800 447.808 C 152.800 448.582,153.520 449.665,154.400 450.214 C 155.305 450.779,156.000 452.080,156.000 453.207 C 156.000 454.303,156.360 455.200,156.800 455.200 C 157.240 455.200,157.600 455.575,157.600 456.033 C 157.600 456.492,158.320 457.640,159.200 458.584 C 160.080 459.529,160.800 461.080,160.800 462.032 C 160.800 462.984,161.880 464.893,163.200 466.274 C 164.520 467.655,165.600 469.149,165.600 469.593 C 165.600 470.037,165.960 470.400,166.400 470.400 C 166.840 470.400,167.200 471.131,167.200 472.025 C 167.200 472.919,167.830 473.891,168.600 474.186 C 169.370 474.481,170.618 475.460,171.373 476.361 C 172.129 477.262,172.747 477.640,172.748 477.200 C 172.750 475.992,170.977 473.967,169.400 473.376 C 168.630 473.087,168.000 472.209,167.999 471.425 C 167.999 470.641,166.758 468.606,165.241 466.902 C 163.725 465.198,162.262 462.793,161.991 461.557 C 161.719 460.322,160.965 458.869,160.314 458.328 C 159.663 457.788,158.510 456.053,157.752 454.473 C 156.146 451.127,151.146 442.400,150.835 442.400 C 150.718 442.400,150.794 443.300,151.004 444.400 M231.600 454.400 C 230.917 455.720,230.539 456.800,230.759 456.800 C 230.979 456.800,231.717 455.720,232.400 454.400 C 233.083 453.080,233.461 452.000,233.241 452.000 C 233.021 452.000,232.283 453.080,231.600 454.400 M226.800 463.200 C 226.117 464.520,225.739 465.600,225.959 465.600 C 226.179 465.600,226.917 464.520,227.600 463.200 C 228.283 461.880,228.661 460.800,228.441 460.800 C 228.221 460.800,227.483 461.880,226.800 463.200 M219.787 474.495 C 217.689 477.523,216.141 480.000,216.346 480.000 C 216.907 480.000,224.239 469.568,223.897 469.258 C 223.733 469.111,221.884 471.467,219.787 474.495 M173.323 479.741 C 173.608 480.544,174.777 482.121,175.921 483.248 C 177.064 484.374,178.529 486.084,179.177 487.048 C 179.824 488.011,180.814 488.800,181.377 488.800 C 181.939 488.800,182.400 489.121,182.400 489.514 C 182.400 489.907,182.899 490.420,183.509 490.655 C 185.342 491.358,184.092 488.320,182.113 487.261 C 181.150 486.745,179.694 485.350,178.878 484.161 C 176.747 481.055,172.625 477.775,173.323 479.741 M211.173 485.400 L 206.800 490.000 211.400 485.627 C 215.674 481.565,216.366 480.800,215.773 480.800 C 215.648 480.800,213.578 482.870,211.173 485.400 M186.912 491.755 C 186.011 492.656,186.363 493.600,187.600 493.600 C 188.260 493.600,188.800 493.261,188.800 492.847 C 188.800 491.838,187.551 491.116,186.912 491.755 M202.747 491.946 C 202.336 492.341,201.128 492.785,200.063 492.932 C 197.325 493.311,196.923 495.200,199.581 495.200 C 200.786 495.200,201.482 494.856,201.200 494.400 C 200.928 493.960,201.246 493.600,201.906 493.600 C 202.566 493.600,203.343 493.216,203.633 492.747 C 204.333 491.614,203.692 491.035,202.747 491.946 M190.000 494.400 C 190.272 494.840,191.193 495.200,192.047 495.200 C 192.901 495.200,193.600 494.840,193.600 494.400 C 193.600 493.960,192.679 493.600,191.553 493.600 C 190.392 493.600,189.720 493.946,190.000 494.400 " stroke="none" fill="#d2c29f" fill-rule="evenodd"></path><path id="path2" d="M183.600 44.800 C 183.328 45.240,180.808 45.600,178.000 45.600 C 175.192 45.600,172.672 45.960,172.400 46.400 C 172.128 46.840,170.307 47.200,168.353 47.200 C 166.399 47.200,164.800 47.560,164.800 48.000 C 164.800 48.440,163.561 48.800,162.047 48.800 C 160.533 48.800,159.072 49.160,158.800 49.600 C 158.528 50.040,157.067 50.400,155.553 50.400 C 154.039 50.400,152.800 50.760,152.800 51.200 C 152.800 51.640,151.720 52.000,150.400 52.000 C 149.080 52.000,148.000 52.360,148.000 52.800 C 148.000 53.240,147.100 53.600,146.000 53.600 C 144.900 53.600,144.000 53.960,144.000 54.400 C 144.000 54.840,143.100 55.200,142.000 55.200 C 140.900 55.200,140.000 55.560,140.000 56.000 C 140.000 56.440,139.100 56.800,138.000 56.800 C 136.900 56.800,136.000 57.160,136.000 57.600 C 136.000 58.040,135.532 58.400,134.959 58.400 C 133.488 58.400,129.614 60.282,129.606 61.000 C 129.603 61.330,128.679 61.600,127.553 61.600 C 126.392 61.600,125.720 61.946,126.000 62.400 C 126.272 62.840,125.753 63.200,124.847 63.200 C 123.941 63.200,123.200 63.560,123.200 64.000 C 123.200 64.440,122.660 64.800,122.000 64.800 C 121.340 64.800,120.800 65.160,120.800 65.600 C 120.800 66.040,120.080 66.400,119.200 66.400 C 118.320 66.400,117.600 66.760,117.600 67.200 C 117.600 67.640,117.060 68.000,116.400 68.000 C 115.740 68.000,115.200 68.360,115.200 68.800 C 115.200 69.240,114.660 69.600,114.000 69.600 C 113.340 69.600,112.800 69.899,112.800 70.265 C 112.800 70.630,111.815 71.440,110.611 72.065 C 108.440 73.191,106.394 74.677,104.368 76.600 C 103.788 77.150,103.115 77.600,102.871 77.600 C 101.321 77.600,76.000 102.858,76.000 104.404 C 76.000 104.746,74.499 106.699,72.400 109.089 C 71.960 109.590,71.089 110.990,70.465 112.200 C 69.840 113.410,69.030 114.400,68.665 114.400 C 68.299 114.400,68.000 114.940,68.000 115.600 C 68.000 116.260,67.640 116.800,67.200 116.800 C 66.760 116.800,66.400 117.340,66.400 118.000 C 66.400 118.660,66.107 119.200,65.749 119.200 C 65.391 119.200,64.604 120.460,64.000 122.000 C 63.396 123.540,62.609 124.800,62.251 124.800 C 61.893 124.800,61.600 125.541,61.600 126.447 C 61.600 127.353,61.240 127.872,60.800 127.600 C 60.349 127.321,60.000 127.969,60.000 129.086 C 60.000 130.175,59.730 131.187,59.400 131.333 C 58.820 131.591,55.825 137.510,54.205 141.600 C 53.770 142.700,53.095 144.225,52.707 144.989 C 52.318 145.753,52.000 147.103,52.000 147.989 C 52.000 148.875,51.640 149.600,51.200 149.600 C 50.760 149.600,50.400 150.680,50.400 152.000 C 50.400 153.320,50.040 154.400,49.600 154.400 C 49.160 154.400,48.800 155.660,48.800 157.200 C 48.800 158.740,48.440 160.000,48.000 160.000 C 47.560 160.000,47.200 161.440,47.200 163.200 C 47.200 164.960,46.840 166.400,46.400 166.400 C 45.960 166.400,45.600 168.020,45.600 170.000 C 45.600 171.980,45.240 173.600,44.800 173.600 C 44.344 173.600,44.000 175.984,44.000 179.153 C 44.000 182.207,43.640 184.928,43.200 185.200 C 42.120 185.868,42.120 217.332,43.200 218.000 C 43.640 218.272,44.000 220.993,44.000 224.047 C 44.000 227.216,44.344 229.600,44.800 229.600 C 45.240 229.600,45.600 231.220,45.600 233.200 C 45.600 235.180,45.960 236.800,46.400 236.800 C 46.840 236.800,47.200 238.240,47.200 240.000 C 47.200 241.760,47.560 243.200,48.000 243.200 C 48.440 243.200,48.800 244.460,48.800 246.000 C 48.800 247.540,49.160 248.800,49.600 248.800 C 50.040 248.800,50.400 249.880,50.400 251.200 C 50.400 252.520,50.760 253.600,51.200 253.600 C 51.640 253.600,52.000 254.479,52.000 255.553 C 52.000 256.627,52.360 257.728,52.800 258.000 C 53.240 258.272,53.600 259.193,53.600 260.047 C 53.600 260.901,53.922 261.600,54.316 261.600 C 54.710 261.600,56.682 264.930,58.698 269.000 C 65.183 282.090,69.509 288.820,82.556 306.111 C 84.262 308.372,87.552 311.972,89.867 314.111 C 99.589 323.091,102.458 325.600,103.013 325.604 C 103.336 325.606,104.680 326.596,106.000 327.804 C 107.320 329.012,109.390 330.511,110.600 331.135 C 111.810 331.760,112.800 332.570,112.800 332.935 C 112.800 333.301,113.272 333.600,113.849 333.600 C 114.426 333.600,115.671 334.320,116.616 335.200 C 117.560 336.080,118.888 336.800,119.567 336.800 C 120.245 336.800,120.800 337.093,120.800 337.451 C 120.800 337.809,122.060 338.596,123.600 339.200 C 125.140 339.804,126.400 340.591,126.400 340.949 C 126.400 341.307,126.868 341.600,127.441 341.600 C 128.912 341.600,132.786 343.482,132.794 344.200 C 132.797 344.530,133.499 344.800,134.353 344.800 C 135.207 344.800,136.128 345.160,136.400 345.600 C 136.672 346.040,137.593 346.400,138.447 346.400 C 139.301 346.400,140.000 346.760,140.000 347.200 C 140.000 347.640,140.725 348.000,141.611 348.000 C 142.497 348.000,144.027 348.416,145.011 348.925 C 148.853 350.911,149.632 351.200,151.142 351.200 C 152.002 351.200,152.928 351.560,153.200 352.000 C 153.472 352.440,154.732 352.800,156.000 352.800 C 157.268 352.800,158.528 353.160,158.800 353.600 C 159.072 354.040,160.461 354.400,161.887 354.400 C 163.313 354.400,164.822 354.725,165.240 355.122 C 165.658 355.520,167.620 356.049,169.600 356.298 C 171.580 356.548,176.080 357.178,179.600 357.699 C 187.851 358.920,212.149 358.920,220.400 357.699 C 223.920 357.178,228.420 356.548,230.400 356.298 C 232.380 356.049,234.342 355.520,234.760 355.122 C 235.178 354.725,236.687 354.400,238.113 354.400 C 239.539 354.400,240.928 354.040,241.200 353.600 C 241.472 353.160,242.732 352.800,244.000 352.800 C 245.268 352.800,246.528 352.440,246.800 352.000 C 247.072 351.560,248.152 351.200,249.200 351.200 C 250.248 351.200,251.328 350.840,251.600 350.400 C 251.872 349.960,252.973 349.600,254.047 349.600 C 255.121 349.600,256.000 349.240,256.000 348.800 C 256.000 348.360,256.900 348.000,258.000 348.000 C 259.100 348.000,260.000 347.640,260.000 347.200 C 260.000 346.760,260.699 346.400,261.553 346.400 C 262.407 346.400,263.328 346.040,263.600 345.600 C 263.872 345.160,264.793 344.800,265.647 344.800 C 266.501 344.800,267.203 344.530,267.206 344.200 C 267.214 343.482,271.088 341.600,272.559 341.600 C 273.132 341.600,273.600 341.307,273.600 340.949 C 273.600 340.591,274.860 339.804,276.400 339.200 C 277.940 338.596,279.200 337.809,279.200 337.451 C 279.200 337.093,279.755 336.800,280.433 336.800 C 281.112 336.800,282.440 336.080,283.384 335.200 C 284.329 334.320,285.574 333.600,286.151 333.600 C 286.728 333.600,287.200 333.301,287.200 332.935 C 287.200 332.570,288.190 331.760,289.400 331.135 C 290.610 330.511,292.680 329.012,294.000 327.804 C 295.320 326.596,296.664 325.606,296.987 325.604 C 298.659 325.593,324.000 300.445,324.000 298.796 C 324.000 298.454,325.501 296.501,327.600 294.111 C 328.040 293.610,328.911 292.210,329.535 291.000 C 330.160 289.790,330.970 288.800,331.335 288.800 C 331.701 288.800,332.000 288.260,332.000 287.600 C 332.000 286.940,332.360 286.400,332.800 286.400 C 333.240 286.400,333.600 285.860,333.600 285.200 C 333.600 284.540,333.960 284.000,334.400 284.000 C 334.840 284.000,335.200 283.280,335.200 282.400 C 335.200 281.520,335.560 280.800,336.000 280.800 C 336.440 280.800,336.800 280.260,336.800 279.600 C 336.800 278.940,337.160 278.400,337.600 278.400 C 338.040 278.400,338.400 277.659,338.400 276.753 C 338.400 275.847,338.760 275.328,339.200 275.600 C 339.651 275.879,340.000 275.231,340.000 274.114 C 340.000 273.025,340.270 272.013,340.600 271.867 C 341.180 271.609,344.175 265.690,345.795 261.600 C 346.230 260.500,346.905 258.975,347.293 258.211 C 347.682 257.447,348.000 256.097,348.000 255.211 C 348.000 254.325,348.360 253.600,348.800 253.600 C 349.240 253.600,349.600 252.520,349.600 251.200 C 349.600 249.880,349.960 248.800,350.400 248.800 C 350.840 248.800,351.200 247.540,351.200 246.000 C 351.200 244.460,351.560 243.200,352.000 243.200 C 352.440 243.200,352.800 241.620,352.800 239.688 C 352.800 237.757,353.322 233.347,353.960 229.888 C 356.790 214.549,358.585 186.303,356.800 185.200 C 356.360 184.928,356.000 182.207,356.000 179.153 C 356.000 175.984,355.656 173.600,355.200 173.600 C 354.760 173.600,354.400 171.980,354.400 170.000 C 354.400 168.020,354.040 166.400,353.600 166.400 C 353.160 166.400,352.800 164.960,352.800 163.200 C 352.800 161.440,352.440 160.000,352.000 160.000 C 351.560 160.000,351.200 158.740,351.200 157.200 C 351.200 155.660,350.840 154.400,350.400 154.400 C 349.960 154.400,349.600 153.320,349.600 152.000 C 349.600 150.680,349.240 149.600,348.800 149.600 C 348.360 149.600,348.000 148.875,348.000 147.989 C 348.000 147.103,347.682 145.753,347.293 144.989 C 346.905 144.225,346.230 142.700,345.795 141.600 C 344.175 137.510,341.180 131.591,340.600 131.333 C 340.270 131.187,340.000 130.175,340.000 129.086 C 340.000 127.969,339.651 127.321,339.200 127.600 C 338.760 127.872,338.400 127.353,338.400 126.447 C 338.400 125.541,338.107 124.800,337.749 124.800 C 337.391 124.800,336.604 123.540,336.000 122.000 C 335.396 120.460,334.609 119.200,334.251 119.200 C 333.893 119.200,333.600 118.660,333.600 118.000 C 333.600 117.340,333.240 116.800,332.800 116.800 C 332.360 116.800,332.000 116.425,332.000 115.967 C 332.000 115.508,331.280 114.360,330.400 113.416 C 329.520 112.471,328.800 111.226,328.800 110.649 C 328.800 110.072,328.440 109.600,328.000 109.600 C 327.560 109.600,327.200 109.139,327.200 108.577 C 327.200 108.014,326.480 107.034,325.600 106.400 C 324.720 105.766,324.000 104.972,324.000 104.637 C 324.000 102.953,298.865 77.600,297.196 77.600 C 296.854 77.600,294.901 76.099,292.511 74.000 C 292.010 73.560,290.610 72.689,289.400 72.065 C 288.190 71.440,287.200 70.630,287.200 70.265 C 287.200 69.899,286.660 69.600,286.000 69.600 C 285.340 69.600,284.800 69.240,284.800 68.800 C 284.800 68.360,284.260 68.000,283.600 68.000 C 282.940 68.000,282.400 67.640,282.400 67.200 C 282.400 66.760,281.680 66.400,280.800 66.400 C 279.920 66.400,279.200 66.040,279.200 65.600 C 279.200 65.160,278.660 64.800,278.000 64.800 C 277.340 64.800,276.800 64.440,276.800 64.000 C 276.800 63.560,276.059 63.200,275.153 63.200 C 274.247 63.200,273.728 62.840,274.000 62.400 C 274.280 61.946,273.608 61.600,272.447 61.600 C 271.321 61.600,270.397 61.330,270.394 61.000 C 270.386 60.282,266.512 58.400,265.041 58.400 C 264.468 58.400,264.000 58.040,264.000 57.600 C 264.000 57.160,263.100 56.800,262.000 56.800 C 260.900 56.800,260.000 56.440,260.000 56.000 C 260.000 55.560,259.100 55.200,258.000 55.200 C 256.900 55.200,256.000 54.840,256.000 54.400 C 256.000 53.960,255.100 53.600,254.000 53.600 C 252.900 53.600,252.000 53.240,252.000 52.800 C 252.000 52.360,250.920 52.000,249.600 52.000 C 248.280 52.000,247.200 51.640,247.200 51.200 C 247.200 50.760,245.961 50.400,244.447 50.400 C 242.933 50.400,241.472 50.040,241.200 49.600 C 240.928 49.160,239.467 48.800,237.953 48.800 C 236.439 48.800,235.200 48.440,235.200 48.000 C 235.200 47.560,233.601 47.200,231.647 47.200 C 229.693 47.200,227.872 46.840,227.600 46.400 C 227.328 45.960,224.808 45.600,222.000 45.600 C 219.192 45.600,216.672 45.240,216.400 44.800 C 216.097 44.310,209.741 44.000,200.000 44.000 C 190.259 44.000,183.903 44.310,183.600 44.800 M222.122 124.100 C 230.415 128.115,245.300 135.353,255.200 140.185 C 265.100 145.017,274.370 149.477,275.800 150.096 L 278.400 151.221 278.400 160.811 C 278.400 172.399,279.525 172.081,264.672 164.699 C 258.362 161.563,247.080 156.035,239.600 152.416 C 232.120 148.796,221.481 143.622,215.957 140.917 C 210.433 138.213,205.346 136.000,204.651 136.000 C 203.574 136.000,155.441 159.162,138.961 167.611 C 130.919 171.734,131.200 171.981,131.200 160.780 C 131.200 151.545,131.272 151.132,133.000 150.459 C 133.990 150.074,146.860 143.855,161.600 136.639 C 176.340 129.424,191.460 122.030,195.200 120.207 C 204.570 115.641,204.685 115.658,222.122 124.100 M177.438 173.298 C 181.755 176.091,183.383 181.378,181.216 185.569 C 177.512 192.731,167.731 193.177,163.708 186.368 C 158.667 177.834,169.099 167.903,177.438 173.298 M241.273 172.835 C 250.783 177.439,247.647 191.200,237.088 191.200 C 226.485 191.200,223.922 177.471,233.616 172.601 C 237.099 170.851,237.180 170.854,241.273 172.835 M158.851 186.078 C 161.434 187.303,163.974 192.225,166.761 201.400 C 167.286 203.127,167.671 203.200,176.276 203.200 C 186.326 203.200,188.800 204.105,188.800 207.782 C 188.800 212.289,187.321 212.800,174.276 212.800 C 160.943 212.800,161.507 213.018,157.200 206.201 C 155.880 204.112,154.342 202.402,153.782 202.401 C 151.212 202.398,146.043 213.798,145.441 220.800 L 145.200 223.600 155.473 224.000 C 169.492 224.546,168.800 223.539,168.800 243.394 C 168.800 261.729,168.064 264.004,162.135 263.995 C 156.423 263.985,155.200 261.191,155.200 248.150 C 155.200 242.348,154.930 237.585,154.600 237.567 C 154.270 237.549,149.860 237.459,144.800 237.367 C 131.422 237.124,131.200 236.925,131.200 225.176 C 131.200 207.757,142.328 188.342,154.004 185.389 C 154.882 185.167,155.726 184.944,155.879 184.893 C 156.033 184.842,157.370 185.375,158.851 186.078 M260.446 188.053 C 271.366 195.493,278.400 210.202,278.400 225.599 C 278.400 236.876,278.197 237.046,264.200 237.469 L 254.400 237.765 254.400 248.233 C 254.400 261.123,253.156 263.985,247.550 263.995 C 241.544 264.005,240.452 261.356,240.143 246.031 C 239.710 224.574,240.077 224.000,254.230 224.000 C 259.457 224.000,263.923 223.811,264.154 223.580 C 265.677 222.056,261.094 208.050,257.769 204.067 L 255.516 201.368 252.800 205.600 C 248.069 212.973,248.483 212.803,235.249 212.775 C 222.991 212.748,221.535 212.377,220.467 209.010 C 219.174 204.939,222.825 203.200,232.666 203.200 C 242.262 203.200,242.286 203.189,243.929 197.965 C 248.025 184.948,252.205 182.439,260.446 188.053 M198.686 204.964 C 199.265 205.882,198.831 208.193,197.119 213.316 L 194.751 220.400 187.096 220.628 C 181.018 220.808,179.234 220.604,178.431 219.638 C 176.340 217.118,178.015 216.000,183.877 216.000 C 190.254 216.000,190.682 215.676,192.474 209.503 C 194.177 203.634,196.689 201.799,198.686 204.964 M214.593 204.600 C 215.275 205.370,216.434 207.791,217.168 209.980 C 219.097 215.732,219.474 216.000,225.612 216.000 C 229.877 216.000,231.135 216.277,231.528 217.301 C 232.606 220.110,230.549 220.867,222.479 220.628 L 214.800 220.400 212.650 214.400 C 210.233 207.655,209.968 205.552,211.360 204.160 C 212.641 202.879,213.126 202.945,214.593 204.600 M231.841 229.981 C 232.187 238.012,233.619 237.602,205.247 237.589 C 175.381 237.576,177.600 238.117,177.600 230.840 C 177.600 223.327,175.022 223.950,205.144 224.189 L 231.600 224.400 231.841 229.981 " stroke="none" fill="#f8c050" fill-rule="evenodd"></path><path id="path3" d="M357.863 207.600 C 357.866 210.680,358.011 211.842,358.184 210.182 C 358.357 208.522,358.354 206.002,358.177 204.582 C 358.001 203.162,357.859 204.520,357.863 207.600 M354.900 232.100 C 354.233 235.435,354.879 236.081,355.600 232.800 C 355.904 231.417,355.985 230.119,355.782 229.915 C 355.578 229.711,355.181 230.694,354.900 232.100 M390.492 246.600 C 389.937 248.910,389.192 251.700,388.838 252.800 C 388.483 253.900,387.365 257.500,386.353 260.800 C 385.340 264.100,384.217 267.142,383.856 267.560 C 383.495 267.978,383.200 268.777,383.200 269.336 C 383.200 273.022,361.873 313.313,358.500 316.000 C 358.223 316.220,357.487 317.390,356.864 318.600 C 356.240 319.810,355.430 320.800,355.065 320.800 C 354.699 320.800,354.400 321.343,354.400 322.007 C 354.400 322.671,353.320 324.345,352.000 325.726 C 350.680 327.107,349.600 328.724,349.600 329.319 C 349.600 329.913,349.240 330.400,348.800 330.400 C 348.360 330.400,348.000 330.923,348.000 331.563 C 348.000 332.795,328.538 352.800,327.340 352.800 C 326.953 352.800,325.507 353.880,324.126 355.200 C 322.745 356.520,321.200 357.600,320.694 357.600 C 320.188 357.600,318.741 358.680,317.480 360.000 C 316.218 361.320,314.649 362.400,313.993 362.400 C 313.337 362.400,312.800 362.760,312.800 363.200 C 312.800 363.640,312.080 364.000,311.200 364.000 C 310.320 364.000,309.600 364.303,309.600 364.674 C 309.600 365.045,307.890 366.215,305.800 367.274 C 303.710 368.333,301.880 369.470,301.733 369.800 C 301.587 370.130,300.777 370.400,299.933 370.400 C 299.090 370.400,298.400 370.699,298.400 371.065 C 298.400 371.430,297.415 372.240,296.211 372.865 C 295.007 373.489,293.477 374.430,292.811 374.955 C 292.145 375.481,289.260 377.638,286.400 379.749 C 277.196 386.542,269.635 394.731,260.348 407.966 C 253.989 417.029,251.353 421.497,241.216 440.400 C 239.564 443.480,237.222 447.800,236.012 450.000 C 234.802 452.200,232.448 456.520,230.783 459.600 C 229.117 462.680,227.148 466.100,226.407 467.200 C 225.666 468.300,224.861 469.740,224.617 470.400 C 223.867 472.430,216.093 482.573,211.970 486.899 C 209.822 489.153,208.290 491.223,208.566 491.499 C 208.841 491.775,208.287 492.000,207.333 492.000 C 206.380 492.000,205.600 492.360,205.600 492.800 C 205.600 494.121,207.585 493.705,209.416 492.000 C 210.360 491.120,211.544 490.400,212.046 490.400 C 212.547 490.400,213.967 489.320,215.200 488.000 C 216.433 486.680,217.748 485.600,218.121 485.599 C 219.419 485.597,223.200 481.806,223.200 480.507 C 223.200 479.788,223.774 479.200,224.475 479.200 C 225.176 479.200,225.938 478.480,226.168 477.600 C 226.398 476.720,226.867 476.000,227.209 476.000 C 228.209 476.000,237.600 464.592,237.600 463.378 C 237.600 462.771,239.040 460.891,240.800 459.200 C 242.560 457.509,244.000 455.714,244.000 455.211 C 244.000 454.708,245.800 452.543,248.000 450.400 C 250.200 448.257,252.000 446.122,252.000 445.656 C 252.000 445.190,253.800 442.970,256.000 440.723 C 258.200 438.476,260.000 436.325,260.000 435.942 C 260.000 434.737,279.990 415.200,281.224 415.200 C 281.871 415.200,282.400 414.882,282.400 414.493 C 282.400 414.105,283.120 413.598,284.000 413.368 C 284.880 413.138,285.600 412.376,285.600 411.675 C 285.600 410.933,286.269 410.400,287.200 410.400 C 288.080 410.400,288.800 410.040,288.800 409.600 C 288.800 409.160,289.355 408.800,290.033 408.800 C 290.712 408.800,292.040 408.080,292.984 407.200 C 293.929 406.320,295.286 405.600,296.000 405.600 C 296.714 405.600,298.071 404.880,299.016 404.000 C 299.960 403.120,301.209 402.400,301.790 402.400 C 302.371 402.400,303.366 401.680,304.000 400.800 C 304.636 399.917,306.071 399.200,307.200 399.200 C 308.329 399.200,309.764 398.483,310.400 397.600 C 311.034 396.720,312.284 395.992,313.177 395.982 C 314.069 395.972,315.700 395.260,316.800 394.400 C 317.900 393.540,319.250 392.828,319.800 392.818 C 320.350 392.808,320.800 392.440,320.800 392.000 C 320.800 391.560,321.520 391.200,322.400 391.200 C 323.280 391.200,324.000 390.840,324.000 390.400 C 324.000 389.960,324.720 389.600,325.600 389.600 C 326.480 389.600,327.200 389.240,327.200 388.800 C 327.200 388.360,327.841 388.000,328.623 388.000 C 329.406 388.000,330.566 387.280,331.200 386.400 C 331.834 385.520,332.914 384.800,333.600 384.800 C 334.286 384.800,335.366 384.080,336.000 383.200 C 336.634 382.320,337.794 381.600,338.577 381.600 C 339.359 381.600,340.000 381.240,340.000 380.800 C 340.000 380.360,340.574 380.000,341.275 380.000 C 341.976 380.000,342.738 379.280,342.968 378.400 C 343.200 377.514,344.059 376.800,344.893 376.800 C 345.722 376.800,346.400 376.440,346.400 376.000 C 346.400 375.560,347.120 375.200,348.000 375.200 C 349.067 375.200,349.600 374.667,349.600 373.600 C 349.600 372.676,350.133 372.000,350.863 372.000 C 351.557 372.000,353.551 370.560,355.294 368.800 C 357.036 367.040,358.788 365.600,359.186 365.600 C 360.386 365.600,370.400 355.201,370.400 353.956 C 370.400 353.320,370.951 352.800,371.625 352.800 C 372.299 352.800,373.084 352.170,373.370 351.400 C 373.655 350.630,374.544 349.418,375.344 348.706 C 376.145 347.995,376.800 346.867,376.800 346.199 C 376.800 345.532,377.520 344.798,378.400 344.568 C 379.280 344.338,380.000 343.576,380.000 342.875 C 380.000 342.174,380.360 341.600,380.800 341.600 C 381.240 341.600,381.600 341.057,381.600 340.393 C 381.600 339.729,382.680 338.055,384.000 336.674 C 385.320 335.293,386.400 333.676,386.400 333.081 C 386.400 332.487,386.760 332.000,387.200 332.000 C 387.640 332.000,388.000 330.920,388.000 329.600 C 388.000 328.280,388.299 327.200,388.665 327.200 C 389.030 327.200,389.840 326.210,390.464 325.000 C 391.087 323.790,391.778 322.620,391.999 322.400 C 393.327 321.076,394.400 318.042,394.400 315.611 C 394.400 314.065,394.670 312.797,395.000 312.794 C 396.024 312.783,397.600 308.610,397.600 305.907 C 397.600 304.492,398.050 303.183,398.600 302.999 C 399.366 302.743,399.600 297.775,399.600 281.772 C 399.600 266.125,399.349 260.628,398.600 259.880 C 398.050 259.330,397.600 257.893,397.600 256.687 C 397.600 255.481,397.240 254.272,396.800 254.000 C 396.360 253.728,396.000 252.447,396.000 251.153 C 396.000 249.859,395.640 248.800,395.200 248.800 C 394.760 248.800,394.400 248.080,394.400 247.200 C 394.400 246.320,394.040 245.600,393.600 245.600 C 393.160 245.600,392.800 244.880,392.800 244.000 C 392.800 240.952,391.498 242.419,390.492 246.600 M48.800 328.000 C 48.800 328.440,49.160 328.800,49.600 328.800 C 50.040 328.800,50.400 329.880,50.400 331.200 C 50.400 332.520,50.760 333.600,51.200 333.600 C 51.640 333.600,52.000 334.320,52.000 335.200 C 52.000 336.080,52.360 336.800,52.800 336.800 C 53.240 336.800,53.600 337.880,53.600 339.200 C 53.600 340.520,53.960 341.600,54.400 341.600 C 54.840 341.600,55.200 342.072,55.200 342.649 C 55.200 343.226,55.920 344.471,56.800 345.416 C 57.680 346.360,58.400 347.688,58.400 348.367 C 58.400 349.045,58.760 349.600,59.200 349.600 C 59.640 349.600,60.000 350.241,60.000 351.023 C 60.000 351.806,60.720 352.966,61.600 353.600 C 62.480 354.234,63.200 355.262,63.200 355.883 C 63.200 356.504,63.832 357.595,64.605 358.306 C 65.378 359.018,66.519 360.590,67.141 361.800 C 67.762 363.010,68.775 364.000,69.392 364.000 C 70.742 364.000,72.800 365.929,72.800 367.195 C 72.800 368.261,79.611 375.036,83.853 378.191 C 85.474 379.396,87.382 381.016,88.094 381.791 C 88.805 382.566,89.831 383.200,90.373 383.200 C 90.915 383.200,92.367 384.280,93.600 385.600 C 94.833 386.920,96.241 388.000,96.728 388.000 C 97.216 388.000,98.745 389.080,100.126 390.400 C 101.507 391.720,102.899 392.800,103.220 392.800 C 103.540 392.800,105.331 394.240,107.200 396.000 C 109.069 397.760,110.913 399.200,111.298 399.200 C 111.683 399.200,113.482 400.640,115.296 402.400 C 117.109 404.160,118.879 405.600,119.228 405.600 C 120.206 405.600,125.600 411.059,125.600 412.049 C 125.600 412.531,127.040 414.309,128.800 416.000 C 130.560 417.691,132.000 419.460,132.000 419.930 C 132.000 420.401,133.080 421.818,134.400 423.080 C 135.720 424.341,136.801 425.694,136.802 426.087 C 136.803 426.479,137.882 428.060,139.200 429.600 C 140.518 431.140,141.597 432.850,141.598 433.400 C 141.599 433.950,141.872 434.400,142.205 434.400 C 142.537 434.400,143.287 435.480,143.872 436.800 C 144.893 439.107,146.400 440.061,146.400 438.400 C 146.400 437.960,146.040 437.600,145.600 437.600 C 145.160 437.600,144.800 436.880,144.800 436.000 C 144.800 435.120,144.440 434.400,144.000 434.400 C 143.560 434.400,143.200 433.860,143.200 433.200 C 143.200 432.540,142.928 432.000,142.595 432.000 C 142.263 432.000,141.482 430.830,140.859 429.400 C 140.237 427.970,139.519 426.620,139.264 426.400 C 139.009 426.180,137.580 423.660,136.090 420.800 C 127.118 403.589,109.930 381.526,95.178 368.287 C 87.299 361.215,79.132 354.073,76.000 351.513 C 74.460 350.255,73.011 349.040,72.780 348.813 C 51.275 327.685,48.800 325.537,48.800 328.000 M146.400 441.600 C 146.400 442.040,146.672 442.400,147.005 442.400 C 147.337 442.400,148.087 443.480,148.672 444.800 C 149.693 447.107,151.200 448.061,151.200 446.400 C 151.200 445.960,150.840 445.600,150.400 445.600 C 149.960 445.600,149.600 445.034,149.600 444.343 C 149.600 443.130,147.796 440.800,146.857 440.800 C 146.606 440.800,146.400 441.160,146.400 441.600 M168.102 475.797 C 170.171 478.430,171.277 479.390,171.723 478.944 C 171.969 478.698,171.248 477.575,170.121 476.448 C 167.796 474.123,166.443 473.687,168.102 475.797 M175.200 484.608 C 175.200 484.942,175.920 485.665,176.800 486.214 C 178.660 487.376,178.909 486.794,177.257 485.143 C 175.996 483.882,175.200 483.675,175.200 484.608 " stroke="none" fill="#9e9e9e" fill-rule="evenodd"></path><path id="path4" d="M356.590 212.000 C 356.254 217.060,355.621 223.360,355.182 226.000 C 353.716 234.824,353.349 239.450,354.155 238.952 C 355.758 237.961,358.219 223.257,358.666 212.000 C 358.880 206.608,358.806 205.319,358.460 208.400 L 357.920 213.200 357.560 208.000 C 357.227 203.193,357.154 203.495,356.590 212.000 M355.600 232.800 C 354.879 236.081,354.233 235.435,354.900 232.100 C 355.181 230.694,355.578 229.711,355.782 229.915 C 355.985 230.119,355.904 231.417,355.600 232.800 M389.647 246.946 C 389.145 248.626,388.337 251.440,387.852 253.200 C 387.366 254.960,386.442 258.020,385.798 260.000 C 383.678 266.519,383.220 268.302,383.858 267.546 C 384.479 266.811,386.808 259.831,388.778 252.800 C 389.333 250.820,390.106 248.152,390.497 246.870 C 390.888 245.589,391.061 244.395,390.883 244.217 C 390.705 244.039,390.149 245.267,389.647 246.946 M54.400 264.687 C 54.400 267.115,55.274 268.848,56.207 268.272 C 56.688 267.975,56.811 268.135,56.495 268.646 C 55.423 270.381,63.803 285.020,72.433 296.491 C 77.486 303.206,80.000 305.761,80.000 304.180 C 80.000 302.920,71.089 291.594,70.275 291.820 C 69.838 291.941,69.703 291.681,69.974 291.242 C 70.662 290.129,68.011 286.299,66.989 286.930 C 66.529 287.215,66.377 287.084,66.651 286.641 C 66.925 286.198,65.206 282.319,62.831 278.021 C 60.457 273.723,58.086 269.174,57.564 267.913 C 57.042 266.652,56.300 265.814,55.916 266.052 C 55.532 266.289,55.419 265.961,55.664 265.322 C 55.909 264.684,55.725 263.924,55.255 263.634 C 54.759 263.327,54.400 263.769,54.400 264.687 M381.425 272.361 C 380.684 274.362,380.235 276.000,380.428 276.000 C 380.986 276.000,383.263 270.188,383.006 269.418 C 382.878 269.035,382.167 270.360,381.425 272.361 M379.200 276.969 C 379.200 277.209,378.655 278.709,377.989 280.302 C 377.323 281.896,376.959 283.200,377.179 283.200 C 377.812 283.200,380.067 277.400,379.611 276.944 C 379.385 276.718,379.200 276.729,379.200 276.969 M371.935 292.601 C 371.311 293.811,369.077 297.637,366.972 301.105 C 364.866 304.573,363.271 307.537,363.426 307.693 C 363.582 307.849,365.483 305.011,367.651 301.388 C 372.566 293.176,373.704 291.037,373.349 290.682 C 373.195 290.528,372.559 291.392,371.935 292.601 M50.800 327.659 C 51.680 328.324,57.080 333.462,62.800 339.076 C 68.520 344.691,74.460 350.301,76.000 351.543 C 77.540 352.785,81.310 356.006,84.378 358.701 C 101.018 373.316,106.679 378.930,114.129 388.200 C 116.515 391.170,118.639 393.600,118.848 393.600 C 121.566 393.600,100.658 371.966,84.400 357.955 C 77.800 352.267,67.500 342.840,61.511 337.007 C 55.521 331.173,50.301 326.411,49.911 326.425 C 49.520 326.439,49.920 326.995,50.800 327.659 M283.109 381.506 C 276.612 386.681,272.249 391.105,267.632 397.200 C 264.512 401.319,266.216 399.607,272.695 392.115 C 274.733 389.758,279.100 385.647,282.400 382.979 C 289.801 376.996,290.026 376.800,289.469 376.800 C 289.220 376.800,286.358 378.918,283.109 381.506 M126.265 404.931 C 130.189 410.799,134.389 417.505,135.600 419.832 C 136.811 422.160,137.968 423.899,138.171 423.695 C 138.875 422.991,121.744 395.878,119.859 394.713 C 119.459 394.465,122.341 399.064,126.265 404.931 M261.407 405.400 C 257.049 411.467,254.853 414.897,256.159 413.600 C 257.800 411.969,265.041 401.600,264.538 401.600 C 264.317 401.600,262.908 403.310,261.407 405.400 M253.504 417.000 C 252.980 417.990,252.029 419.700,251.391 420.800 C 250.278 422.719,250.286 422.735,251.577 421.200 C 253.171 419.304,255.409 415.200,254.849 415.200 C 254.633 415.200,254.028 416.010,253.504 417.000 M248.506 425.800 L 247.067 428.400 248.715 426.400 C 250.178 424.626,250.827 423.200,250.172 423.200 C 250.047 423.200,249.297 424.370,248.506 425.800 M138.400 425.553 C 138.400 426.019,138.693 426.400,139.051 426.400 C 139.409 426.400,140.196 427.660,140.800 429.200 C 141.404 430.740,142.199 432.000,142.566 432.000 C 142.932 432.000,142.510 430.584,141.628 428.854 C 139.994 425.652,138.400 424.021,138.400 425.553 M244.466 433.015 C 243.238 435.317,242.597 436.840,243.041 436.400 C 244.195 435.257,247.334 429.468,246.988 429.121 C 246.828 428.962,245.693 430.714,244.466 433.015 M238.840 443.408 C 237.167 446.593,236.155 448.840,236.591 448.400 C 237.729 447.253,242.515 438.249,242.171 437.904 C 242.012 437.745,240.513 440.222,238.840 443.408 M233.279 453.596 C 232.081 455.798,231.272 457.600,231.482 457.600 C 232.017 457.600,236.086 450.219,235.741 449.874 C 235.586 449.719,234.478 451.394,233.279 453.596 M229.246 461.025 C 228.438 462.441,227.078 464.770,226.223 466.200 C 225.369 467.630,224.862 468.800,225.096 468.800 C 225.661 468.800,231.347 459.081,230.991 458.725 C 230.840 458.573,230.055 459.608,229.246 461.025 M221.403 474.135 C 219.755 476.530,218.760 478.272,219.193 478.004 C 220.218 477.371,225.038 470.365,224.677 470.033 C 224.525 469.893,223.051 471.739,221.403 474.135 M211.396 486.209 C 207.763 489.976,204.973 493.240,205.196 493.462 C 205.418 493.685,205.600 493.447,205.600 492.933 C 205.600 492.420,206.380 492.000,207.333 492.000 C 208.287 492.000,208.841 491.775,208.566 491.499 C 208.290 491.223,209.893 489.082,212.128 486.740 C 215.721 482.975,218.935 479.056,218.245 479.280 C 218.110 479.324,215.028 482.442,211.396 486.209 " stroke="none" fill="#5e5e60" fill-rule="evenodd"></path><path id="path5" d="M359.185 206.639 L 359.571 210.800 359.837 207.291 C 359.983 205.362,359.810 203.489,359.451 203.130 C 359.093 202.771,358.973 204.350,359.185 206.639 M356.218 214.400 C 356.218 216.380,356.374 217.190,356.565 216.200 C 356.755 215.210,356.755 213.590,356.565 212.600 C 356.374 211.610,356.218 212.420,356.218 214.400 M358.618 216.000 C 358.618 217.980,358.774 218.790,358.965 217.800 C 359.155 216.810,359.155 215.190,358.965 214.200 C 358.774 213.210,358.618 214.020,358.618 216.000 M354.498 226.800 C 354.432 227.680,354.193 229.300,353.967 230.400 L 353.555 232.400 354.412 230.437 C 354.883 229.358,355.122 227.738,354.943 226.837 C 354.626 225.242,354.615 225.241,354.498 226.800 M352.928 237.000 C 352.803 239.931,353.735 240.924,354.876 239.076 C 355.218 238.524,355.097 238.369,354.575 238.692 C 354.033 239.027,353.581 238.243,353.380 236.615 C 353.059 234.022,353.055 234.025,352.928 237.000 M53.612 263.800 C 53.622 264.916,53.767 264.974,54.328 264.089 C 54.874 263.226,55.313 263.496,56.284 265.289 C 56.973 266.560,57.550 267.230,57.568 266.778 C 57.613 265.611,55.256 262.400,54.355 262.400 C 53.940 262.400,53.606 263.030,53.612 263.800 M62.000 276.800 C 62.683 278.120,63.421 279.200,63.641 279.200 C 63.861 279.200,63.483 278.120,62.800 276.800 C 62.117 275.480,61.379 274.400,61.159 274.400 C 60.939 274.400,61.317 275.480,62.000 276.800 M65.200 282.400 C 65.883 283.720,66.621 284.800,66.841 284.800 C 67.061 284.800,66.683 283.720,66.000 282.400 C 65.317 281.080,64.579 280.000,64.359 280.000 C 64.139 280.000,64.517 281.080,65.200 282.400 M73.950 295.463 C 75.182 297.078,76.352 298.400,76.549 298.400 C 77.105 298.400,73.642 293.720,72.618 293.087 C 72.118 292.779,72.718 293.848,73.950 295.463 M79.745 303.690 C 80.131 304.695,79.988 304.887,79.212 304.408 C 78.507 303.972,78.344 304.062,78.724 304.676 C 79.038 305.184,79.633 305.600,80.047 305.600 C 81.045 305.600,81.016 303.428,80.009 302.806 C 79.539 302.515,79.432 302.874,79.745 303.690 M50.482 326.600 C 50.673 326.710,52.623 328.420,54.815 330.400 L 58.800 334.000 55.233 330.200 C 53.272 328.110,51.322 326.400,50.900 326.400 C 50.478 326.400,50.290 326.490,50.482 326.600 M68.400 344.000 C 70.119 345.760,71.705 347.200,71.925 347.200 C 72.145 347.200,70.919 345.760,69.200 344.000 C 67.481 342.240,65.895 340.800,65.675 340.800 C 65.455 340.800,66.681 342.240,68.400 344.000 M85.600 358.650 C 85.600 358.788,86.770 359.958,88.200 361.250 L 90.800 363.600 88.450 361.000 C 86.260 358.576,85.600 358.032,85.600 358.650 M92.800 365.050 C 92.800 365.188,93.970 366.358,95.400 367.650 L 98.000 370.000 95.650 367.400 C 93.460 364.976,92.800 364.432,92.800 365.050 M138.161 423.174 C 138.388 424.039,139.064 425.156,139.665 425.654 C 140.491 426.339,140.455 425.955,139.520 424.080 C 138.106 421.245,137.562 420.882,138.161 423.174 M145.580 435.727 C 146.031 435.950,146.400 436.823,146.400 437.667 C 146.400 438.510,146.748 439.200,147.174 439.200 C 148.261 439.200,146.880 435.727,145.704 435.501 C 145.185 435.402,145.129 435.503,145.580 435.727 M153.400 450.130 C 153.950 450.352,154.400 451.043,154.400 451.667 C 154.400 452.290,154.760 452.800,155.200 452.800 C 155.640 452.800,156.000 452.512,156.000 452.160 C 156.000 451.213,154.207 449.590,153.240 449.663 C 152.778 449.698,152.850 449.908,153.400 450.130 M171.400 477.143 C 171.730 477.570,172.000 478.568,172.000 479.360 C 172.000 480.152,172.360 480.800,172.800 480.800 C 174.016 480.800,173.759 479.549,172.200 477.872 C 171.430 477.044,171.070 476.716,171.400 477.143 M210.966 486.116 C 208.418 488.582,206.459 490.725,206.612 490.879 C 206.766 491.032,209.020 489.008,211.621 486.379 C 217.595 480.341,217.128 480.154,210.966 486.116 " stroke="none" fill="#8d8c8d" fill-rule="evenodd"></path></g></svg>