<svg id="svg" version="1.1" width="500" height="630" xmlns="http://www.w3.org/2000/svg" xmlns:xlink="http://www.w3.org/1999/xlink" style="display: block;"><g id="svgg"><path id="path0" d="M173.600 6.400 C 173.600 6.851,171.349 7.200,168.447 7.200 C 165.613 7.200,163.072 7.560,162.800 8.000 C 162.528 8.440,160.728 8.800,158.800 8.800 C 156.872 8.800,155.072 9.160,154.800 9.600 C 154.528 10.040,153.247 10.400,151.953 10.400 C 150.659 10.400,149.600 10.760,149.600 11.200 C 149.600 11.640,148.160 12.000,146.400 12.000 C 144.640 12.000,143.200 12.360,143.200 12.800 C 143.200 13.240,142.120 13.600,140.800 13.600 C 139.480 13.600,138.400 13.960,138.400 14.400 C 138.400 14.840,137.320 15.200,136.000 15.200 C 134.680 15.200,133.600 15.560,133.600 16.000 C 133.600 16.440,132.901 16.800,132.047 16.800 C 131.193 16.800,130.272 17.160,130.000 17.600 C 129.728 18.040,128.627 18.400,127.553 18.400 C 126.479 18.400,125.600 18.760,125.600 19.200 C 125.600 19.640,124.520 20.000,123.200 20.000 C 121.880 20.000,120.800 20.360,120.800 20.800 C 120.800 21.240,120.080 21.600,119.200 21.600 C 118.320 21.600,117.600 21.960,117.600 22.400 C 117.600 22.840,116.880 23.200,116.000 23.200 C 115.120 23.200,114.400 23.560,114.400 24.000 C 114.400 24.440,113.680 24.800,112.800 24.800 C 111.920 24.800,111.200 25.160,111.200 25.600 C 111.200 26.040,110.480 26.400,109.600 26.400 C 108.720 26.400,108.000 26.760,108.000 27.200 C 108.000 27.640,107.280 28.000,106.400 28.000 C 105.520 28.000,104.800 28.360,104.800 28.800 C 104.800 29.240,104.328 29.600,103.751 29.600 C 103.174 29.600,101.929 30.320,100.984 31.200 C 100.040 32.080,98.791 32.800,98.210 32.800 C 97.629 32.800,96.634 33.520,96.000 34.400 C 95.366 35.280,94.206 36.000,93.423 36.000 C 92.641 36.000,92.000 36.360,92.000 36.800 C 92.000 37.240,91.424 37.600,90.721 37.600 C 90.018 37.600,88.433 38.680,87.200 40.000 C 85.967 41.320,84.527 42.400,84.000 42.400 C 83.473 42.400,82.033 43.480,80.800 44.800 C 79.567 46.120,78.165 47.200,77.685 47.200 C 77.205 47.200,74.261 49.720,71.144 52.800 C 68.028 55.880,65.136 58.400,64.718 58.400 C 63.728 58.400,56.800 65.328,56.800 66.318 C 56.800 66.736,54.280 69.628,51.200 72.744 C 48.120 75.861,45.600 78.805,45.600 79.285 C 45.600 79.765,44.520 81.167,43.200 82.400 C 41.880 83.633,40.800 85.073,40.800 85.600 C 40.800 86.127,39.720 87.567,38.400 88.800 C 37.080 90.033,36.000 91.618,36.000 92.321 C 36.000 93.024,35.640 93.600,35.200 93.600 C 34.760 93.600,34.400 94.241,34.400 95.023 C 34.400 95.806,33.680 96.966,32.800 97.600 C 31.920 98.234,31.200 99.394,31.200 100.177 C 31.200 100.959,30.840 101.600,30.400 101.600 C 29.960 101.600,29.600 102.241,29.600 103.023 C 29.600 103.806,28.880 104.966,28.000 105.600 C 27.120 106.234,26.400 107.394,26.400 108.177 C 26.400 108.959,26.040 109.600,25.600 109.600 C 25.160 109.600,24.800 110.320,24.800 111.200 C 24.800 112.080,24.440 112.800,24.000 112.800 C 23.560 112.800,23.200 113.520,23.200 114.400 C 23.200 115.280,22.840 116.000,22.400 116.000 C 21.960 116.000,21.600 116.529,21.600 117.176 C 21.600 117.822,20.880 119.633,20.000 121.200 C 19.120 122.767,18.400 124.758,18.400 125.624 C 18.400 126.491,18.040 127.200,17.600 127.200 C 17.160 127.200,16.800 128.280,16.800 129.600 C 16.800 130.920,16.440 132.000,16.000 132.000 C 15.560 132.000,15.200 132.699,15.200 133.553 C 15.200 134.407,14.840 135.328,14.400 135.600 C 13.960 135.872,13.600 136.973,13.600 138.047 C 13.600 139.121,13.240 140.000,12.800 140.000 C 12.360 140.000,12.000 141.059,12.000 142.353 C 12.000 143.647,11.640 144.928,11.200 145.200 C 10.760 145.472,10.400 146.933,10.400 148.447 C 10.400 149.961,10.040 151.200,9.600 151.200 C 9.160 151.200,8.800 152.640,8.800 154.400 C 8.800 156.160,8.440 157.600,8.000 157.600 C 7.560 157.600,7.200 159.400,7.200 161.600 C 7.200 163.800,6.840 165.600,6.400 165.600 C 5.943 165.600,5.600 168.000,5.600 171.200 C 5.600 174.400,5.257 176.800,4.800 176.800 C 3.705 176.800,3.705 223.724,4.800 224.400 C 5.240 224.672,5.600 227.192,5.600 230.000 C 5.600 232.808,5.960 235.328,6.400 235.600 C 6.840 235.872,7.200 237.492,7.200 239.200 C 7.200 240.908,7.560 242.528,8.000 242.800 C 8.440 243.072,8.800 244.692,8.800 246.400 C 8.800 248.108,9.160 249.728,9.600 250.000 C 10.040 250.272,10.400 251.532,10.400 252.800 C 10.400 254.068,10.760 255.328,11.200 255.600 C 11.640 255.872,12.000 256.952,12.000 258.000 C 12.000 259.048,12.360 260.128,12.800 260.400 C 13.240 260.672,13.600 261.932,13.600 263.200 C 13.600 264.468,13.960 265.728,14.400 266.000 C 14.840 266.272,15.200 267.193,15.200 268.047 C 15.200 268.901,15.560 269.600,16.000 269.600 C 16.440 269.600,16.800 270.680,16.800 272.000 C 16.800 273.320,17.160 274.400,17.600 274.400 C 18.040 274.400,18.400 275.120,18.400 276.000 C 18.400 276.880,18.760 277.600,19.200 277.600 C 19.640 277.600,20.000 278.320,20.000 279.200 C 20.000 280.080,20.360 280.800,20.800 280.800 C 21.240 280.800,21.608 281.610,21.618 282.600 C 21.628 283.590,22.340 285.300,23.200 286.400 C 24.060 287.500,24.772 288.962,24.782 289.649 C 24.792 290.336,25.520 291.671,26.400 292.616 C 27.280 293.560,28.000 294.888,28.000 295.567 C 28.000 296.245,28.360 296.800,28.800 296.800 C 29.240 296.800,29.600 297.520,29.600 298.400 C 29.600 299.280,29.960 300.000,30.400 300.000 C 30.840 300.000,31.200 300.472,31.200 301.049 C 31.200 301.626,31.920 302.871,32.800 303.816 C 33.680 304.760,34.400 306.009,34.400 306.590 C 34.400 307.171,35.120 308.166,36.000 308.800 C 36.880 309.434,37.600 310.449,37.600 311.056 C 37.600 311.662,38.680 313.167,40.000 314.400 C 41.320 315.633,42.400 317.073,42.400 317.600 C 42.400 318.127,43.390 319.523,44.600 320.703 C 45.810 321.883,47.178 323.525,47.641 324.351 C 48.103 325.177,49.308 325.979,50.319 326.133 C 51.370 326.294,55.800 330.120,60.678 335.079 C 65.365 339.845,74.420 348.212,80.800 353.672 C 112.342 380.668,123.019 393.996,147.393 436.800 C 148.270 438.340,149.665 440.556,150.494 441.723 C 151.322 442.891,152.000 444.087,152.000 444.379 C 152.000 444.672,153.080 446.481,154.400 448.400 C 155.720 450.319,156.800 452.381,156.800 452.984 C 156.800 453.587,157.232 454.512,157.760 455.040 C 158.288 455.568,158.449 456.000,158.119 456.000 C 157.788 456.000,158.389 456.810,159.454 457.800 C 160.519 458.790,161.646 460.770,161.959 462.200 C 162.271 463.630,162.859 464.800,163.264 464.800 C 163.669 464.800,164.000 465.340,164.000 466.000 C 164.000 466.660,164.524 467.200,165.164 467.200 C 165.853 467.200,166.535 468.305,166.836 469.910 C 167.116 471.401,168.012 472.930,168.829 473.310 C 169.646 473.689,171.323 475.322,172.557 476.937 C 179.056 485.448,180.559 487.151,182.278 487.957 C 183.499 488.529,183.990 489.271,183.681 490.078 C 183.419 490.761,183.805 491.919,184.538 492.652 C 185.508 493.622,185.962 493.715,186.202 492.993 C 186.711 491.466,188.000 491.816,188.000 493.482 C 188.000 495.452,197.958 495.905,198.701 493.969 C 198.948 493.326,200.061 492.800,201.175 492.800 C 202.289 492.800,203.200 492.440,203.200 492.000 C 203.200 491.560,203.673 491.200,204.250 491.200 C 205.281 491.200,213.152 483.568,217.085 478.754 C 220.529 474.538,226.681 464.182,235.710 447.400 C 239.380 440.578,243.430 433.057,246.911 426.600 C 260.597 401.207,280.424 379.361,295.800 372.731 C 297.230 372.114,298.400 371.337,298.400 371.005 C 298.400 370.672,298.887 370.400,299.481 370.400 C 300.076 370.400,301.693 369.320,303.074 368.000 C 304.455 366.680,305.952 365.600,306.400 365.600 C 306.848 365.600,308.345 364.520,309.726 363.200 C 311.107 361.880,312.644 360.800,313.142 360.800 C 313.640 360.800,314.566 360.080,315.200 359.200 C 315.834 358.320,316.842 357.600,317.439 357.600 C 318.037 357.600,319.909 356.160,321.600 354.400 C 323.291 352.640,325.075 351.200,325.565 351.200 C 326.893 351.200,352.800 324.908,352.800 323.560 C 352.800 322.922,353.099 322.400,353.465 322.400 C 353.830 322.400,354.640 321.410,355.264 320.200 C 355.887 318.990,356.617 317.820,356.885 317.600 C 357.153 317.380,359.809 312.700,362.788 307.200 C 365.766 301.700,368.511 296.811,368.887 296.336 C 370.125 294.771,378.900 276.495,380.668 271.800 C 385.746 258.314,388.800 248.548,388.800 245.796 C 388.800 244.802,389.670 243.467,390.800 242.726 C 392.270 241.763,392.800 240.711,392.800 238.755 C 392.800 237.292,393.160 235.872,393.600 235.600 C 394.040 235.328,394.400 232.808,394.400 230.000 C 394.400 227.192,394.760 224.672,395.200 224.400 C 396.295 223.724,396.295 176.800,395.200 176.800 C 394.743 176.800,394.400 174.400,394.400 171.200 C 394.400 168.000,394.057 165.600,393.600 165.600 C 393.160 165.600,392.800 163.800,392.800 161.600 C 392.800 159.400,392.440 157.600,392.000 157.600 C 391.560 157.600,391.200 156.160,391.200 154.400 C 391.200 152.640,390.840 151.200,390.400 151.200 C 389.960 151.200,389.600 149.961,389.600 148.447 C 389.600 146.933,389.240 145.472,388.800 145.200 C 388.360 144.928,388.000 143.647,388.000 142.353 C 388.000 141.059,387.640 140.000,387.200 140.000 C 386.760 140.000,386.400 139.121,386.400 138.047 C 386.400 136.973,386.040 135.872,385.600 135.600 C 385.160 135.328,384.800 134.407,384.800 133.553 C 384.800 132.699,384.440 132.000,384.000 132.000 C 383.560 132.000,383.200 130.920,383.200 129.600 C 383.200 128.280,382.840 127.200,382.400 127.200 C 381.960 127.200,381.600 126.491,381.600 125.624 C 381.600 124.758,380.880 122.767,380.000 121.200 C 379.120 119.633,378.400 117.822,378.400 117.176 C 378.400 116.529,378.040 116.000,377.600 116.000 C 377.160 116.000,376.800 115.280,376.800 114.400 C 376.800 113.520,376.440 112.800,376.000 112.800 C 375.560 112.800,375.200 112.080,375.200 111.200 C 375.200 110.320,374.840 109.600,374.400 109.600 C 373.960 109.600,373.600 108.959,373.600 108.177 C 373.600 107.394,372.880 106.234,372.000 105.600 C 371.120 104.966,370.400 103.806,370.400 103.023 C 370.400 102.241,370.040 101.600,369.600 101.600 C 369.160 101.600,368.800 100.959,368.800 100.177 C 368.800 99.394,368.080 98.234,367.200 97.600 C 366.320 96.966,365.600 95.806,365.600 95.023 C 365.600 94.241,365.240 93.600,364.800 93.600 C 364.360 93.600,364.000 93.024,364.000 92.321 C 364.000 91.618,362.920 90.033,361.600 88.800 C 360.280 87.567,359.200 86.127,359.200 85.600 C 359.200 85.073,358.120 83.633,356.800 82.400 C 355.480 81.167,354.400 79.745,354.400 79.240 C 354.400 78.736,351.880 75.838,348.800 72.800 C 345.720 69.762,343.200 66.890,343.200 66.418 C 343.200 65.298,336.302 58.400,335.182 58.400 C 334.710 58.400,331.838 55.880,328.800 52.800 C 325.762 49.720,322.864 47.200,322.360 47.200 C 321.855 47.200,320.433 46.120,319.200 44.800 C 317.967 43.480,316.527 42.400,316.000 42.400 C 315.473 42.400,314.033 41.320,312.800 40.000 C 311.567 38.680,309.982 37.600,309.279 37.600 C 308.576 37.600,308.000 37.240,308.000 36.800 C 308.000 36.360,307.359 36.000,306.577 36.000 C 305.794 36.000,304.634 35.280,304.000 34.400 C 303.366 33.520,302.371 32.800,301.790 32.800 C 301.209 32.800,299.960 32.080,299.016 31.200 C 298.071 30.320,296.826 29.600,296.249 29.600 C 295.672 29.600,295.200 29.240,295.200 28.800 C 295.200 28.360,294.480 28.000,293.600 28.000 C 292.720 28.000,292.000 27.640,292.000 27.200 C 292.000 26.760,291.280 26.400,290.400 26.400 C 289.520 26.400,288.800 26.040,288.800 25.600 C 288.800 25.160,288.080 24.800,287.200 24.800 C 286.320 24.800,285.600 24.440,285.600 24.000 C 285.600 23.560,284.880 23.200,284.000 23.200 C 283.120 23.200,282.400 22.840,282.400 22.400 C 282.400 21.960,281.680 21.600,280.800 21.600 C 279.920 21.600,279.200 21.240,279.200 20.800 C 279.200 20.360,278.120 20.000,276.800 20.000 C 275.480 20.000,274.400 19.640,274.400 19.200 C 274.400 18.760,273.521 18.400,272.447 18.400 C 271.373 18.400,270.272 18.040,270.000 17.600 C 269.728 17.160,268.807 16.800,267.953 16.800 C 267.099 16.800,266.400 16.440,266.400 16.000 C 266.400 15.560,265.320 15.200,264.000 15.200 C 262.680 15.200,261.600 14.840,261.600 14.400 C 261.600 13.960,260.520 13.600,259.200 13.600 C 257.880 13.600,256.800 13.240,256.800 12.800 C 256.800 12.360,255.360 12.000,253.600 12.000 C 251.840 12.000,250.400 11.640,250.400 11.200 C 250.400 10.760,249.341 10.400,248.047 10.400 C 246.753 10.400,245.472 10.040,245.200 9.600 C 244.928 9.160,243.128 8.800,241.200 8.800 C 239.272 8.800,237.472 8.440,237.200 8.000 C 236.928 7.560,234.387 7.200,231.553 7.200 C 228.651 7.200,226.400 6.851,226.400 6.400 C 226.400 5.883,217.067 5.600,200.000 5.600 C 182.933 5.600,173.600 5.883,173.600 6.400 M226.000 45.467 C 234.976 47.034,243.027 48.963,249.200 51.025 C 259.253 54.383,275.184 61.528,280.000 64.838 C 281.100 65.594,283.440 67.013,285.200 67.992 C 302.290 77.495,326.924 103.199,337.344 122.400 C 338.657 124.820,340.142 127.520,340.643 128.400 C 342.725 132.055,348.000 144.055,348.000 145.136 C 348.000 145.779,348.360 146.528,348.800 146.800 C 349.240 147.072,349.600 148.152,349.600 149.200 C 349.600 150.248,349.960 151.328,350.400 151.600 C 350.840 151.872,351.200 152.952,351.200 154.000 C 351.200 155.048,351.560 156.128,352.000 156.400 C 352.440 156.672,352.800 158.112,352.800 159.600 C 352.800 161.088,353.160 162.528,353.600 162.800 C 354.040 163.072,354.400 164.461,354.400 165.887 C 354.400 167.313,354.728 168.822,355.130 169.240 C 356.082 170.232,356.805 177.136,357.296 189.931 C 357.571 197.089,358.047 200.767,358.846 201.909 C 360.184 203.819,360.427 214.474,359.271 220.561 C 358.870 222.672,358.106 227.100,357.574 230.400 C 356.579 236.568,354.954 240.800,353.579 240.800 C 353.151 240.800,352.800 241.584,352.800 242.543 C 352.800 244.385,351.481 249.055,350.302 251.389 C 349.916 252.153,349.600 253.328,349.600 254.000 C 349.600 254.672,349.282 255.847,348.893 256.611 C 348.505 257.375,347.828 258.900,347.391 260.000 C 331.203 300.671,294.514 336.624,256.000 349.559 C 253.140 350.519,250.080 351.611,249.200 351.986 C 248.320 352.360,246.700 352.893,245.600 353.170 C 244.500 353.447,241.800 354.143,239.600 354.717 C 235.473 355.795,230.360 356.844,221.952 358.338 C 215.670 359.455,184.330 359.455,178.048 358.338 C 169.640 356.844,164.527 355.795,160.400 354.717 C 158.200 354.143,155.500 353.447,154.400 353.170 C 153.300 352.893,151.680 352.360,150.800 351.986 C 149.920 351.611,146.860 350.519,144.000 349.559 C 125.544 343.361,93.681 322.239,84.369 310.030 C 83.217 308.519,81.132 306.609,79.737 305.785 C 73.164 301.900,54.996 273.160,53.862 264.850 C 53.491 262.139,52.672 259.687,51.107 256.611 C 50.718 255.847,50.400 254.672,50.400 254.000 C 50.400 253.328,50.084 252.153,49.698 251.389 C 48.531 249.078,47.200 244.392,47.200 242.590 C 47.200 241.658,46.840 240.672,46.400 240.400 C 45.960 240.128,45.600 238.739,45.600 237.313 C 45.600 235.887,45.272 234.378,44.870 233.960 C 42.254 231.235,42.254 171.965,44.870 169.240 C 45.272 168.822,45.600 167.313,45.600 165.887 C 45.600 164.461,45.960 163.072,46.400 162.800 C 46.840 162.528,47.200 161.088,47.200 159.600 C 47.200 158.112,47.560 156.672,48.000 156.400 C 48.440 156.128,48.800 155.048,48.800 154.000 C 48.800 152.952,49.160 151.872,49.600 151.600 C 50.040 151.328,50.400 150.248,50.400 149.200 C 50.400 148.152,50.760 147.072,51.200 146.800 C 51.640 146.528,52.000 145.779,52.000 145.136 C 52.000 144.055,57.275 132.055,59.357 128.400 C 59.858 127.520,61.343 124.820,62.656 122.400 C 73.076 103.199,97.710 77.495,114.800 67.992 C 116.560 67.013,118.900 65.589,120.000 64.827 C 122.533 63.073,135.813 56.641,141.600 54.365 C 153.100 49.843,163.553 47.054,174.233 45.658 C 177.002 45.296,179.509 44.758,179.804 44.463 C 180.622 43.645,220.534 44.512,226.000 45.467 M198.800 129.794 C 197.480 130.752,192.800 134.620,188.400 138.387 C 184.000 142.155,178.420 146.845,176.000 148.808 C 173.580 150.772,171.420 152.564,171.200 152.790 C 170.744 153.261,171.565 152.572,146.800 173.262 C 132.000 185.627,133.158 184.406,134.179 186.570 C 138.349 195.410,140.871 195.317,152.057 185.913 C 157.085 181.686,162.602 177.096,164.316 175.713 C 166.030 174.331,171.250 169.950,175.916 165.977 C 197.424 147.667,203.873 142.400,204.787 142.400 C 205.329 142.400,209.907 145.910,214.960 150.200 C 223.960 157.842,240.050 171.389,245.600 176.000 C 247.140 177.279,252.515 181.762,257.543 185.963 C 266.520 193.461,268.768 194.598,270.662 192.600 C 277.615 185.265,277.778 185.810,265.600 175.661 L 255.200 166.994 255.188 148.497 C 255.173 126.032,256.166 127.892,244.336 128.173 L 234.800 128.400 234.575 137.800 C 234.290 149.654,234.382 149.642,222.313 139.366 C 207.561 126.804,204.584 125.593,198.800 129.794 M201.159 154.223 C 199.816 155.421,197.476 157.404,195.959 158.630 C 194.441 159.857,184.470 168.104,173.800 176.958 L 154.400 193.055 154.400 215.728 C 154.400 239.565,154.699 241.503,158.400 241.627 C 167.999 241.947,191.591 241.529,192.090 241.030 C 192.461 240.659,192.863 232.985,192.983 223.977 L 193.200 207.600 204.800 207.600 L 216.400 207.600 216.840 224.800 C 217.082 234.260,217.352 242.000,217.440 242.000 C 218.374 242.000,250.917 241.634,251.249 241.619 C 255.508 241.437,257.783 194.857,253.677 191.898 C 252.840 191.294,246.802 186.300,240.258 180.800 C 233.715 175.300,226.795 169.540,224.881 168.000 C 222.967 166.460,217.854 162.230,213.520 158.600 C 204.721 151.232,204.573 151.179,201.159 154.223 " stroke="none" fill="#ffffff" fill-rule="evenodd"></path><path id="path1" d="M179.804 44.463 C 179.509 44.758,177.002 45.296,174.233 45.658 C 163.553 47.054,153.100 49.843,141.600 54.365 C 135.813 56.641,122.533 63.073,120.000 64.827 C 118.900 65.589,116.560 67.013,114.800 67.992 C 110.367 70.457,97.089 80.580,95.292 82.865 C 94.478 83.899,93.655 84.588,93.462 84.396 C 93.270 84.203,90.621 86.555,87.577 89.623 C 84.533 92.690,82.331 95.200,82.683 95.200 C 83.035 95.200,82.305 96.057,81.061 97.104 C 78.598 99.178,67.115 114.302,67.018 115.600 C 66.986 116.040,66.518 116.760,65.979 117.200 C 65.440 117.640,63.935 119.980,62.634 122.400 C 61.333 124.820,59.858 127.520,59.357 128.400 C 57.275 132.055,52.000 144.055,52.000 145.136 C 52.000 145.779,51.640 146.528,51.200 146.800 C 50.760 147.072,50.400 148.152,50.400 149.200 C 50.400 150.248,50.040 151.328,49.600 151.600 C 49.160 151.872,48.800 152.952,48.800 154.000 C 48.800 155.048,48.440 156.128,48.000 156.400 C 47.560 156.672,47.200 158.112,47.200 159.600 C 47.200 161.088,46.840 162.528,46.400 162.800 C 45.960 163.072,45.600 164.512,45.600 166.000 C 45.600 167.488,45.287 168.899,44.905 169.135 C 44.523 169.371,44.169 171.385,44.119 173.609 C 44.069 175.834,43.661 178.338,43.214 179.174 C 42.121 181.215,42.121 221.985,43.214 224.026 C 43.661 224.862,44.069 227.366,44.119 229.591 C 44.169 231.815,44.523 233.829,44.905 234.065 C 45.287 234.301,45.600 235.712,45.600 237.200 C 45.600 238.688,45.960 240.128,46.400 240.400 C 46.840 240.672,47.200 241.658,47.200 242.590 C 47.200 244.392,48.531 249.078,49.698 251.389 C 50.084 252.153,50.400 253.482,50.400 254.342 C 50.400 255.202,50.760 256.128,51.200 256.400 C 51.640 256.672,52.000 257.544,52.000 258.338 C 52.000 259.132,52.926 260.708,54.057 261.839 C 55.188 262.970,58.012 267.609,60.332 272.148 C 65.359 281.981,68.860 287.610,75.796 297.005 C 78.774 301.038,80.780 304.499,80.525 305.164 C 80.270 305.827,80.660 306.505,81.441 306.757 C 82.188 306.998,83.384 308.226,84.098 309.484 C 89.786 319.516,125.215 343.213,144.000 349.551 C 146.860 350.516,149.920 351.611,150.800 351.986 C 151.680 352.360,153.300 352.893,154.400 353.170 C 155.500 353.447,158.200 354.143,160.400 354.717 C 164.527 355.795,169.640 356.844,178.048 358.338 C 184.330 359.455,215.670 359.455,221.952 358.338 C 230.360 356.844,235.473 355.795,239.600 354.717 C 241.800 354.143,244.500 353.447,245.600 353.170 C 246.700 352.893,248.320 352.360,249.200 351.986 C 250.080 351.611,253.140 350.519,256.000 349.559 C 274.030 343.504,305.981 322.482,315.161 310.634 C 316.113 309.405,318.652 306.420,320.803 304.000 C 326.034 298.113,333.565 287.790,333.135 287.095 C 332.945 286.788,333.062 286.416,333.395 286.268 C 334.927 285.589,343.936 268.680,347.391 260.000 C 347.828 258.900,348.505 257.375,348.893 256.611 C 349.282 255.847,349.600 254.672,349.600 254.000 C 349.600 253.328,349.916 252.153,350.302 251.389 C 351.407 249.202,352.800 244.429,352.800 242.831 C 352.800 242.031,353.430 240.886,354.200 240.286 C 355.511 239.266,355.503 239.230,354.074 239.732 C 352.416 240.314,352.479 238.073,354.427 227.200 C 354.861 224.780,355.407 219.200,355.642 214.800 C 356.264 203.112,356.620 201.361,358.249 201.981 C 359.332 202.393,359.402 202.295,358.600 201.487 C 357.908 200.791,357.600 197.431,357.600 190.587 C 357.600 185.146,357.234 180.011,356.786 179.174 C 356.339 178.338,355.931 175.834,355.881 173.609 C 355.831 171.385,355.477 169.371,355.095 169.135 C 354.713 168.899,354.400 167.488,354.400 166.000 C 354.400 164.512,354.040 163.072,353.600 162.800 C 353.160 162.528,352.800 161.088,352.800 159.600 C 352.800 158.112,352.440 156.672,352.000 156.400 C 351.560 156.128,351.200 155.048,351.200 154.000 C 351.200 152.952,350.840 151.872,350.400 151.600 C 349.960 151.328,349.600 150.248,349.600 149.200 C 349.600 148.152,349.240 147.072,348.800 146.800 C 348.360 146.528,348.000 145.779,348.000 145.136 C 348.000 144.055,342.725 132.055,340.643 128.400 C 340.142 127.520,338.667 124.820,337.366 122.400 C 336.065 119.980,334.415 117.535,333.700 116.966 C 332.985 116.397,332.580 115.761,332.800 115.553 C 333.364 115.019,321.653 99.389,319.044 97.193 C 317.859 96.195,317.039 95.228,317.222 95.045 C 317.405 94.862,315.045 92.221,311.977 89.177 C 308.910 86.133,306.400 83.952,306.400 84.329 C 306.400 84.707,305.687 84.109,304.815 83.000 C 302.933 80.608,289.756 70.526,285.200 67.992 C 283.440 67.013,281.100 65.594,280.000 64.838 C 275.184 61.528,259.253 54.383,249.200 51.025 C 243.027 48.963,234.976 47.034,226.000 45.467 C 220.534 44.512,180.622 43.645,179.804 44.463 M210.632 129.766 C 211.996 130.737,217.252 135.057,222.313 139.366 C 234.382 149.642,234.290 149.654,234.575 137.800 L 234.800 128.400 244.336 128.173 C 256.166 127.892,255.173 126.032,255.188 148.497 L 255.200 166.994 265.600 175.661 C 277.778 185.810,277.615 185.265,270.662 192.600 C 268.768 194.598,266.520 193.461,257.543 185.963 C 252.515 181.762,247.140 177.279,245.600 176.000 C 240.050 171.389,223.960 157.842,214.960 150.200 C 209.907 145.910,205.329 142.400,204.787 142.400 C 203.873 142.400,197.424 147.667,175.916 165.977 C 171.250 169.950,166.030 174.331,164.316 175.713 C 162.602 177.096,157.085 181.686,152.057 185.913 C 140.871 195.317,138.349 195.410,134.179 186.570 C 133.158 184.406,132.000 185.627,146.800 173.262 C 171.565 152.572,170.744 153.261,171.200 152.790 C 171.420 152.564,173.580 150.772,176.000 148.808 C 178.420 146.845,184.000 142.155,188.400 138.387 C 201.822 126.894,204.915 125.694,210.632 129.766 M213.520 158.600 C 217.854 162.230,222.967 166.460,224.881 168.000 C 226.795 169.540,233.715 175.300,240.258 180.800 C 246.802 186.300,252.840 191.294,253.677 191.898 C 257.783 194.857,255.508 241.437,251.249 241.619 C 250.917 241.634,218.374 242.000,217.440 242.000 C 217.352 242.000,217.082 234.260,216.840 224.800 L 216.400 207.600 204.800 207.600 L 193.200 207.600 192.983 223.977 C 192.863 232.985,192.461 240.659,192.090 241.030 C 191.591 241.529,167.999 241.947,158.400 241.627 C 154.699 241.503,154.400 239.565,154.400 215.728 L 154.400 193.055 173.800 176.958 C 184.470 168.104,194.441 159.857,195.959 158.630 C 197.476 157.404,199.816 155.421,201.159 154.223 C 204.573 151.179,204.721 151.232,213.520 158.600 M359.440 214.400 C 359.440 216.820,359.590 217.810,359.773 216.600 C 359.956 215.390,359.956 213.410,359.773 212.200 C 359.590 210.990,359.440 211.980,359.440 214.400 M62.000 337.600 C 63.719 339.360,65.305 340.800,65.525 340.800 C 65.745 340.800,64.519 339.360,62.800 337.600 C 61.081 335.840,59.495 334.400,59.275 334.400 C 59.055 334.400,60.281 335.840,62.000 337.600 M68.000 342.650 C 68.000 342.788,69.170 343.958,70.600 345.250 L 73.200 347.600 70.850 345.000 C 68.660 342.576,68.000 342.032,68.000 342.650 M75.200 349.050 C 75.200 349.188,76.370 350.358,77.800 351.650 L 80.400 354.000 78.050 351.400 C 75.860 348.976,75.200 348.432,75.200 349.050 M89.200 361.600 C 90.919 363.360,92.505 364.800,92.725 364.800 C 92.945 364.800,91.719 363.360,90.000 361.600 C 88.281 359.840,86.695 358.400,86.475 358.400 C 86.255 358.400,87.481 359.840,89.200 361.600 M95.200 366.650 C 95.200 366.788,96.370 367.958,97.800 369.250 L 100.400 371.600 98.050 369.000 C 95.860 366.576,95.200 366.032,95.200 366.650 M107.200 378.650 C 107.200 378.788,108.370 379.958,109.800 381.250 L 112.400 383.600 110.050 381.000 C 107.860 378.576,107.200 378.032,107.200 378.650 M135.600 417.600 C 136.283 418.920,137.021 420.000,137.241 420.000 C 137.461 420.000,137.083 418.920,136.400 417.600 C 135.717 416.280,134.979 415.200,134.759 415.200 C 134.539 415.200,134.917 416.280,135.600 417.600 M249.200 422.400 C 248.517 423.720,248.139 424.800,248.359 424.800 C 248.579 424.800,249.317 423.720,250.000 422.400 C 250.683 421.080,251.061 420.000,250.841 420.000 C 250.621 420.000,249.883 421.080,249.200 422.400 M151.009 444.424 C 151.217 445.511,151.705 446.400,152.093 446.400 C 152.482 446.400,152.800 447.033,152.800 447.808 C 152.800 448.582,153.520 449.665,154.400 450.214 C 155.280 450.764,156.000 452.072,156.000 453.121 C 156.000 454.202,156.607 455.260,157.400 455.562 C 158.523 455.989,158.602 455.895,157.800 455.087 C 157.250 454.533,156.800 453.587,156.800 452.984 C 156.800 452.381,155.720 450.319,154.400 448.400 C 153.080 446.481,152.000 444.548,152.000 444.103 C 152.000 443.658,151.692 443.104,151.316 442.871 C 150.939 442.639,150.801 443.338,151.009 444.424 M159.169 458.551 C 160.066 459.514,160.811 461.044,160.825 461.951 C 160.856 463.953,162.955 466.911,163.769 466.098 C 164.090 465.776,163.943 465.259,163.440 464.948 C 162.938 464.638,162.265 463.339,161.944 462.062 C 161.335 459.635,159.313 456.800,158.191 456.800 C 157.832 456.800,158.272 457.588,159.169 458.551 M164.600 467.730 C 165.150 467.952,165.600 468.643,165.600 469.267 C 165.600 469.890,165.926 470.400,166.325 470.400 C 166.724 470.400,166.862 469.680,166.632 468.800 C 166.402 467.920,165.625 467.228,164.907 467.263 C 164.077 467.303,163.965 467.474,164.600 467.730 M167.600 473.600 C 167.872 474.040,168.465 474.400,168.919 474.400 C 169.372 474.400,170.341 475.047,171.072 475.838 C 171.855 476.685,172.088 476.767,171.639 476.038 C 170.671 474.462,168.700 472.800,167.800 472.800 C 167.418 472.800,167.328 473.160,167.600 473.600 M173.312 479.600 C 173.603 480.480,174.777 482.121,175.921 483.248 C 177.064 484.374,178.529 486.084,179.177 487.048 C 179.824 488.011,180.784 488.800,181.310 488.800 C 181.836 488.800,182.427 489.250,182.624 489.800 C 182.827 490.369,183.287 490.501,183.690 490.106 C 184.099 489.707,183.755 489.028,182.878 488.506 C 182.041 488.008,180.601 486.723,179.678 485.651 C 174.746 479.921,172.811 478.082,173.312 479.600 M213.150 483.400 L 210.800 486.000 213.400 483.650 C 215.824 481.460,216.368 480.800,215.750 480.800 C 215.612 480.800,214.442 481.970,213.150 483.400 M203.200 491.814 C 203.200 492.298,202.238 492.808,201.062 492.947 C 198.460 493.255,197.526 495.200,199.981 495.200 C 200.923 495.200,201.472 494.840,201.200 494.400 C 200.928 493.960,201.246 493.600,201.906 493.600 C 203.248 493.600,204.421 492.154,203.680 491.413 C 203.416 491.149,203.200 491.329,203.200 491.814 " stroke="none" fill="#8fbbd8" fill-rule="evenodd"></path><path id="path2" d="M390.962 245.000 C 390.735 246.430,390.130 249.040,389.619 250.800 C 389.107 252.560,388.507 254.900,388.284 256.000 C 388.062 257.100,387.583 258.720,387.220 259.600 C 386.858 260.480,386.129 262.460,385.600 264.000 C 385.071 265.540,384.267 267.700,383.812 268.800 C 383.358 269.900,382.674 271.610,382.293 272.600 C 381.912 273.590,381.283 275.210,380.894 276.200 C 379.307 280.251,371.536 295.820,369.614 298.800 C 368.480 300.560,367.051 302.990,366.440 304.200 C 365.829 305.410,365.030 306.400,364.665 306.400 C 364.299 306.400,364.000 306.785,364.000 307.256 C 364.000 308.027,359.561 315.022,358.452 316.000 C 358.202 316.220,357.487 317.390,356.864 318.600 C 356.240 319.810,355.430 320.800,355.065 320.800 C 354.699 320.800,354.400 321.343,354.400 322.007 C 354.400 322.671,353.320 324.345,352.000 325.726 C 350.680 327.107,349.600 328.724,349.600 329.319 C 349.600 329.913,349.240 330.400,348.800 330.400 C 348.360 330.400,348.000 330.923,348.000 331.563 C 348.000 332.795,328.538 352.800,327.340 352.800 C 326.953 352.800,325.507 353.880,324.126 355.200 C 322.745 356.520,321.200 357.600,320.694 357.600 C 320.188 357.600,318.741 358.680,317.480 360.000 C 316.218 361.320,314.649 362.400,313.993 362.400 C 313.337 362.400,312.800 362.760,312.800 363.200 C 312.800 363.640,312.080 364.000,311.200 364.000 C 310.320 364.000,309.600 364.303,309.600 364.674 C 309.600 365.045,307.890 366.215,305.800 367.274 C 303.710 368.333,301.880 369.470,301.733 369.800 C 301.587 370.130,300.777 370.400,299.933 370.400 C 299.090 370.400,298.400 370.699,298.400 371.065 C 298.400 371.430,297.410 372.240,296.200 372.865 C 294.990 373.489,292.920 374.988,291.600 376.196 C 290.280 377.404,288.927 378.394,288.593 378.396 C 287.264 378.404,273.368 391.626,268.789 397.239 C 262.817 404.559,256.920 412.912,253.664 418.663 C 252.749 420.278,251.225 422.950,250.277 424.600 C 249.329 426.250,247.799 429.040,246.877 430.800 C 245.955 432.560,245.018 434.180,244.795 434.400 C 244.572 434.620,243.273 436.960,241.907 439.600 C 240.541 442.240,238.294 446.470,236.912 449.000 C 235.530 451.530,233.376 455.490,232.124 457.800 C 230.872 460.110,229.016 463.440,228.000 465.200 C 226.985 466.960,225.422 469.750,224.528 471.400 C 223.635 473.050,222.610 474.400,222.252 474.400 C 221.893 474.400,221.600 474.788,221.600 475.263 C 221.600 476.029,215.547 483.722,210.163 489.800 C 209.091 491.010,207.626 492.000,206.907 492.000 C 206.188 492.000,205.600 492.360,205.600 492.800 C 205.600 494.121,207.585 493.705,209.416 492.000 C 210.360 491.120,211.544 490.400,212.046 490.400 C 212.547 490.400,213.967 489.320,215.200 488.000 C 216.433 486.680,217.748 485.600,218.121 485.599 C 219.419 485.597,223.200 481.806,223.200 480.507 C 223.200 479.788,223.774 479.200,224.475 479.200 C 225.176 479.200,225.938 478.480,226.168 477.600 C 226.398 476.720,226.867 476.000,227.209 476.000 C 228.209 476.000,237.600 464.592,237.600 463.378 C 237.600 462.771,239.040 460.891,240.800 459.200 C 242.560 457.509,244.000 455.714,244.000 455.211 C 244.000 454.708,245.800 452.543,248.000 450.400 C 250.200 448.257,252.000 446.122,252.000 445.656 C 252.000 445.190,253.800 442.970,256.000 440.723 C 258.200 438.476,260.000 436.325,260.000 435.942 C 260.000 434.737,279.990 415.200,281.224 415.200 C 281.871 415.200,282.400 414.882,282.400 414.493 C 282.400 414.105,283.120 413.598,284.000 413.368 C 284.880 413.138,285.600 412.376,285.600 411.675 C 285.600 410.933,286.269 410.400,287.200 410.400 C 288.080 410.400,288.800 410.040,288.800 409.600 C 288.800 409.160,289.355 408.800,290.033 408.800 C 290.712 408.800,292.040 408.080,292.984 407.200 C 293.929 406.320,295.286 405.600,296.000 405.600 C 296.714 405.600,298.071 404.880,299.016 404.000 C 299.960 403.120,301.209 402.400,301.790 402.400 C 302.371 402.400,303.366 401.680,304.000 400.800 C 304.636 399.917,306.071 399.200,307.200 399.200 C 308.329 399.200,309.764 398.483,310.400 397.600 C 311.034 396.720,312.284 395.992,313.177 395.982 C 314.069 395.972,315.700 395.260,316.800 394.400 C 317.900 393.540,319.250 392.828,319.800 392.818 C 320.350 392.808,320.800 392.440,320.800 392.000 C 320.800 391.560,321.520 391.200,322.400 391.200 C 323.280 391.200,324.000 390.840,324.000 390.400 C 324.000 389.960,324.720 389.600,325.600 389.600 C 326.480 389.600,327.200 389.240,327.200 388.800 C 327.200 388.360,327.841 388.000,328.623 388.000 C 329.406 388.000,330.566 387.280,331.200 386.400 C 331.834 385.520,332.914 384.800,333.600 384.800 C 334.286 384.800,335.366 384.080,336.000 383.200 C 336.634 382.320,337.794 381.600,338.577 381.600 C 339.359 381.600,340.000 381.240,340.000 380.800 C 340.000 380.360,340.574 380.000,341.275 380.000 C 341.976 380.000,342.738 379.280,342.968 378.400 C 343.200 377.514,344.059 376.800,344.893 376.800 C 345.722 376.800,346.400 376.440,346.400 376.000 C 346.400 375.560,347.120 375.200,348.000 375.200 C 349.067 375.200,349.600 374.667,349.600 373.600 C 349.600 372.676,350.133 372.000,350.863 372.000 C 351.557 372.000,353.551 370.560,355.294 368.800 C 357.036 367.040,358.788 365.600,359.186 365.600 C 360.386 365.600,370.400 355.201,370.400 353.956 C 370.400 353.320,370.951 352.800,371.625 352.800 C 372.299 352.800,373.084 352.170,373.370 351.400 C 373.655 350.630,374.544 349.418,375.344 348.706 C 376.145 347.995,376.800 346.867,376.800 346.199 C 376.800 345.532,377.520 344.798,378.400 344.568 C 379.280 344.338,380.000 343.576,380.000 342.875 C 380.000 342.174,380.360 341.600,380.800 341.600 C 381.240 341.600,381.600 341.057,381.600 340.393 C 381.600 339.729,382.680 338.055,384.000 336.674 C 385.320 335.293,386.400 333.676,386.400 333.081 C 386.400 332.487,386.760 332.000,387.200 332.000 C 387.640 332.000,388.000 330.920,388.000 329.600 C 388.000 328.280,388.299 327.200,388.665 327.200 C 389.030 327.200,389.840 326.210,390.464 325.000 C 391.087 323.790,391.778 322.620,391.999 322.400 C 393.327 321.076,394.400 318.042,394.400 315.611 C 394.400 314.065,394.670 312.797,395.000 312.794 C 396.024 312.783,397.600 308.610,397.600 305.907 C 397.600 304.492,398.050 303.183,398.600 302.999 C 399.366 302.743,399.600 297.775,399.600 281.772 C 399.600 266.125,399.349 260.628,398.600 259.880 C 398.050 259.330,397.600 257.893,397.600 256.687 C 397.600 255.481,397.240 254.272,396.800 254.000 C 396.360 253.728,396.000 252.447,396.000 251.153 C 396.000 249.859,395.640 248.800,395.200 248.800 C 394.760 248.800,394.400 248.080,394.400 247.200 C 394.400 246.320,394.040 245.600,393.600 245.600 C 393.160 245.600,392.800 244.880,392.800 244.000 C 392.800 241.413,391.412 242.168,390.962 245.000 M48.800 328.000 C 48.800 328.440,49.160 328.800,49.600 328.800 C 50.040 328.800,50.400 329.880,50.400 331.200 C 50.400 332.520,50.760 333.600,51.200 333.600 C 51.640 333.600,52.000 334.320,52.000 335.200 C 52.000 336.080,52.360 336.800,52.800 336.800 C 53.240 336.800,53.600 337.880,53.600 339.200 C 53.600 340.520,53.960 341.600,54.400 341.600 C 54.840 341.600,55.200 342.072,55.200 342.649 C 55.200 343.226,55.920 344.471,56.800 345.416 C 57.680 346.360,58.400 347.688,58.400 348.367 C 58.400 349.045,58.760 349.600,59.200 349.600 C 59.640 349.600,60.000 350.241,60.000 351.023 C 60.000 351.806,60.720 352.966,61.600 353.600 C 62.480 354.234,63.200 355.262,63.200 355.883 C 63.200 356.504,63.832 357.595,64.605 358.306 C 65.378 359.018,66.519 360.590,67.141 361.800 C 67.762 363.010,68.775 364.000,69.392 364.000 C 70.742 364.000,72.800 365.929,72.800 367.195 C 72.800 368.261,79.611 375.036,83.853 378.191 C 85.474 379.396,87.382 381.016,88.094 381.791 C 88.805 382.566,89.831 383.200,90.373 383.200 C 90.915 383.200,92.367 384.280,93.600 385.600 C 94.833 386.920,96.241 388.000,96.728 388.000 C 97.216 388.000,98.745 389.080,100.126 390.400 C 101.507 391.720,102.899 392.800,103.220 392.800 C 103.540 392.800,105.331 394.240,107.200 396.000 C 109.069 397.760,110.913 399.200,111.298 399.200 C 111.683 399.200,113.482 400.640,115.296 402.400 C 117.109 404.160,118.879 405.600,119.228 405.600 C 120.206 405.600,125.600 411.059,125.600 412.049 C 125.600 412.531,127.040 414.309,128.800 416.000 C 130.560 417.691,132.000 419.460,132.000 419.930 C 132.000 420.401,133.080 421.818,134.400 423.080 C 135.720 424.341,136.801 425.694,136.802 426.087 C 136.803 426.479,137.882 428.060,139.200 429.600 C 140.950 431.645,141.597 432.023,141.598 431.000 C 141.599 430.230,141.240 429.600,140.800 429.600 C 140.360 429.600,140.000 428.959,140.000 428.177 C 140.000 427.394,139.280 426.234,138.400 425.600 C 137.520 424.966,136.800 423.997,136.800 423.448 C 136.800 422.351,134.269 417.607,131.906 414.277 C 131.078 413.109,130.400 411.759,130.400 411.277 C 130.400 410.794,130.040 410.400,129.600 410.400 C 129.160 410.400,128.800 410.015,128.800 409.544 C 128.800 408.761,125.064 402.945,122.681 400.018 C 122.135 399.348,119.966 396.460,117.859 393.600 C 115.753 390.740,113.663 387.980,113.215 387.467 C 105.883 379.077,100.521 373.374,97.600 370.858 C 94.178 367.911,87.290 361.866,79.260 354.762 C 77.247 352.982,74.340 350.516,72.800 349.284 C 71.260 348.052,65.471 342.579,59.935 337.122 C 50.101 327.429,48.800 326.363,48.800 328.000 M141.600 433.600 C 141.600 434.040,141.872 434.400,142.205 434.400 C 142.537 434.400,143.287 435.480,143.872 436.800 C 144.893 439.107,146.400 440.061,146.400 438.400 C 146.400 437.960,146.040 437.600,145.600 437.600 C 145.160 437.600,144.800 437.034,144.800 436.343 C 144.800 435.130,142.996 432.800,142.057 432.800 C 141.806 432.800,141.600 433.160,141.600 433.600 M146.400 441.600 C 146.400 442.040,146.672 442.400,147.005 442.400 C 147.337 442.400,148.087 443.480,148.672 444.800 C 149.693 447.107,151.200 448.061,151.200 446.400 C 151.200 445.960,150.840 445.600,150.400 445.600 C 149.960 445.600,149.600 445.034,149.600 444.343 C 149.600 443.130,147.796 440.800,146.857 440.800 C 146.606 440.800,146.400 441.160,146.400 441.600 M168.186 476.000 C 169.124 477.502,170.400 478.161,170.400 477.143 C 170.400 476.545,168.249 474.400,167.650 474.400 C 167.395 474.400,167.636 475.120,168.186 476.000 M175.200 484.608 C 175.200 484.942,175.920 485.665,176.800 486.214 C 178.660 487.376,178.909 486.794,177.257 485.143 C 175.996 483.882,175.200 483.675,175.200 484.608 " stroke="none" fill="#9e9e9e" fill-rule="evenodd"></path><path id="path3" d="M357.328 203.554 C 357.029 204.335,357.144 204.682,357.609 204.394 C 358.044 204.126,358.400 204.266,358.400 204.706 C 358.400 205.146,358.111 205.684,357.758 205.903 C 357.404 206.121,357.018 210.009,356.899 214.542 C 356.620 225.185,357.532 224.268,358.359 213.074 C 358.973 204.764,358.509 200.478,357.328 203.554 M355.747 225.106 C 355.446 225.890,355.200 228.049,355.200 229.905 C 355.200 231.761,354.768 233.712,354.240 234.240 C 353.546 234.934,353.522 235.442,354.154 236.074 C 354.786 236.706,355.303 235.411,356.021 231.394 C 357.014 225.838,356.856 222.215,355.747 225.106 M387.293 256.535 C 387.242 257.049,386.967 258.129,386.682 258.935 C 386.281 260.072,386.387 260.195,387.157 259.485 C 387.703 258.982,387.978 257.902,387.768 257.085 C 387.558 256.268,387.344 256.021,387.293 256.535 M60.012 276.429 C 60.034 277.806,61.497 279.570,62.109 278.958 C 62.437 278.630,62.096 277.753,61.352 277.010 C 60.609 276.266,60.006 276.004,60.012 276.429 M369.972 297.000 L 368.704 299.600 370.334 297.600 C 371.904 295.674,372.416 294.400,371.621 294.400 C 371.412 294.400,370.670 295.570,369.972 297.000 M50.400 327.473 C 50.400 327.623,54.810 332.083,60.200 337.384 C 69.182 346.218,74.539 351.021,83.498 358.273 L 86.800 360.946 83.600 357.980 C 81.840 356.349,76.980 352.051,72.800 348.429 C 68.620 344.807,62.068 338.549,58.239 334.522 C 52.051 328.013,50.400 326.528,50.400 327.473 M87.281 361.400 C 87.326 361.730,89.216 363.607,91.481 365.571 L 95.600 369.142 91.630 364.971 C 87.573 360.708,87.139 360.352,87.281 361.400 M96.000 369.050 C 96.000 369.188,97.170 370.358,98.600 371.650 L 101.200 374.000 98.850 371.400 C 96.660 368.976,96.000 368.432,96.000 369.050 M105.200 378.400 C 107.367 380.600,109.320 382.400,109.540 382.400 C 109.760 382.400,108.167 380.600,106.000 378.400 C 103.833 376.200,101.880 374.400,101.660 374.400 C 101.440 374.400,103.033 376.200,105.200 378.400 M283.939 381.400 L 282.000 383.600 284.400 381.600 C 285.720 380.500,286.950 379.510,287.133 379.400 C 287.317 379.290,287.109 379.200,286.673 379.200 C 286.236 379.200,285.006 380.190,283.939 381.400 M111.203 385.200 C 112.301 386.520,113.290 387.750,113.400 387.933 C 113.510 388.117,113.776 388.090,113.992 387.875 C 114.207 387.660,113.218 386.430,111.795 385.142 L 109.206 382.800 111.203 385.200 M273.674 390.939 C 269.679 395.195,266.583 398.850,266.794 399.061 C 267.005 399.272,267.978 398.399,268.957 397.122 C 269.935 395.845,273.241 392.190,276.303 389.000 C 279.365 385.810,281.660 383.200,281.404 383.200 C 281.147 383.200,277.669 386.682,273.674 390.939 M115.961 390.800 C 116.900 392.120,118.823 394.904,120.234 396.986 C 121.645 399.068,123.069 400.778,123.399 400.786 C 124.058 400.801,119.672 394.581,116.358 390.800 L 114.254 388.400 115.961 390.800 M263.550 402.937 C 262.318 404.552,261.718 405.621,262.218 405.313 C 263.242 404.680,266.705 400.000,266.149 400.000 C 265.952 400.000,264.782 401.322,263.550 402.937 M130.430 411.600 C 130.433 412.040,131.172 413.300,132.071 414.400 C 133.158 415.728,133.430 415.863,132.880 414.800 C 131.532 412.191,130.424 410.744,130.430 411.600 M248.506 426.600 L 247.067 429.200 248.715 427.200 C 250.178 425.426,250.827 424.000,250.172 424.000 C 250.047 424.000,249.297 425.170,248.506 426.600 M238.906 444.200 L 237.467 446.800 239.115 444.800 C 240.578 443.026,241.227 441.600,240.572 441.600 C 240.447 441.600,239.697 442.770,238.906 444.200 M222.890 472.375 C 222.160 473.489,221.845 474.400,222.189 474.400 C 222.968 474.400,225.038 471.172,224.564 470.697 C 224.373 470.506,223.620 471.261,222.890 472.375 M218.139 479.221 C 216.506 481.410,215.313 483.200,215.488 483.200 C 216.087 483.200,221.780 475.914,221.444 475.578 C 221.260 475.393,219.773 477.033,218.139 479.221 M210.954 487.706 C 208.839 489.724,207.292 491.558,207.516 491.783 C 207.740 492.007,208.391 491.676,208.962 491.048 C 209.533 490.419,211.241 488.576,212.757 486.952 C 216.562 482.877,215.590 483.284,210.954 487.706 " stroke="none" fill="#2d2d30" fill-rule="evenodd"></path><path id="path4" d="M358.618 209.600 C 358.618 211.580,358.774 212.390,358.965 211.400 C 359.155 210.410,359.155 208.790,358.965 207.800 C 358.774 206.810,358.618 207.620,358.618 209.600 M357.600 220.314 C 357.600 221.513,357.281 222.297,356.891 222.056 C 356.159 221.604,354.975 224.842,355.632 225.498 C 355.834 225.701,356.025 225.357,356.056 224.733 C 356.088 224.090,356.382 224.291,356.736 225.197 C 357.221 226.440,357.488 225.935,357.940 222.924 C 358.259 220.795,358.313 218.846,358.060 218.593 C 357.807 218.340,357.600 219.115,357.600 220.314 M354.156 232.511 C 353.301 233.365,353.497 234.558,354.400 234.000 C 354.840 233.728,355.200 233.947,355.200 234.486 C 355.200 235.025,355.413 235.254,355.673 234.993 C 355.934 234.733,355.824 233.943,355.429 233.238 C 355.034 232.532,354.461 232.205,354.156 232.511 M353.600 237.600 C 353.600 239.093,353.813 239.307,354.560 238.560 C 355.307 237.813,355.307 237.387,354.560 236.640 C 353.813 235.893,353.600 236.107,353.600 237.600 M54.747 265.800 C 54.957 267.640,59.892 277.767,59.962 276.502 C 59.983 276.118,60.603 276.298,61.340 276.902 C 62.506 277.858,62.494 277.715,61.248 275.800 C 60.460 274.590,59.476 273.600,59.061 273.600 C 58.645 273.600,58.562 273.185,58.875 272.679 C 59.188 272.172,58.878 271.343,58.185 270.836 C 57.492 270.330,56.987 269.214,57.063 268.358 C 57.144 267.439,56.765 266.890,56.140 267.020 C 55.412 267.171,55.241 266.732,55.594 265.620 C 55.876 264.729,55.755 264.000,55.324 264.000 C 54.893 264.000,54.633 264.810,54.747 265.800 M61.200 280.000 C 61.472 280.440,62.234 280.800,62.894 280.800 C 63.554 280.800,63.872 280.440,63.600 280.000 C 63.328 279.560,62.566 279.200,61.906 279.200 C 61.246 279.200,60.928 279.560,61.200 280.000 M64.526 285.203 C 65.676 287.259,67.107 288.789,67.868 288.775 C 69.083 288.751,69.079 288.657,67.812 287.695 C 67.049 287.116,66.651 286.416,66.927 286.140 C 67.203 285.864,66.840 285.411,66.119 285.135 C 65.399 284.859,64.997 284.328,65.227 283.956 C 65.457 283.584,64.941 282.903,64.080 282.443 C 62.672 281.690,62.717 281.966,64.526 285.203 M69.425 292.474 C 70.621 293.973,72.140 295.194,72.800 295.188 C 73.547 295.180,73.681 294.954,73.154 294.588 C 72.688 294.264,71.707 293.122,70.973 292.050 C 70.239 290.977,69.102 290.021,68.445 289.924 C 67.635 289.805,67.951 290.627,69.425 292.474 M74.272 298.933 C 75.443 300.400,76.865 301.600,77.432 301.600 C 78.032 301.600,77.613 300.682,76.432 299.408 C 75.315 298.203,74.400 297.003,74.400 296.742 C 74.400 296.480,73.893 296.267,73.272 296.267 C 72.502 296.267,72.819 297.112,74.272 298.933 M76.800 302.843 C 76.800 303.008,77.562 303.551,78.493 304.050 C 79.810 304.755,80.111 304.732,79.849 303.948 C 79.554 303.061,76.800 302.063,76.800 302.843 M61.586 337.800 C 66.198 342.530,70.068 346.400,70.186 346.400 C 70.763 346.400,69.788 345.375,61.800 337.586 L 53.200 329.200 61.586 337.800 M77.600 352.250 C 77.600 352.388,78.770 353.558,80.200 354.850 L 82.800 357.200 80.450 354.600 C 78.260 352.176,77.600 351.632,77.600 352.250 M92.800 366.000 C 94.293 367.540,95.694 368.800,95.914 368.800 C 96.134 368.800,95.093 367.540,93.600 366.000 C 92.107 364.460,90.706 363.200,90.486 363.200 C 90.266 363.200,91.307 364.460,92.800 366.000 M102.800 375.200 C 105.856 378.280,108.537 380.800,108.757 380.800 C 108.977 380.800,106.656 378.280,103.600 375.200 C 100.544 372.120,97.863 369.600,97.643 369.600 C 97.423 369.600,99.744 372.120,102.800 375.200 M275.177 388.600 L 270.000 394.000 275.400 388.823 C 278.370 385.976,280.800 383.546,280.800 383.423 C 280.800 382.834,279.985 383.584,275.177 388.600 M211.200 486.800 C 209.257 488.780,207.847 490.400,208.067 490.400 C 208.287 490.400,210.057 488.780,212.000 486.800 C 213.943 484.820,215.353 483.200,215.133 483.200 C 214.913 483.200,213.143 484.820,211.200 486.800 " stroke="none" fill="#5e5e60" fill-rule="evenodd"></path><path id="path5" d="M359.185 206.639 L 359.571 210.800 359.837 207.291 C 359.983 205.362,359.810 203.489,359.451 203.130 C 359.093 202.771,358.973 204.350,359.185 206.639 M356.169 210.961 C 356.076 215.009,355.665 220.049,355.256 222.161 C 353.816 229.592,353.531 232.937,354.381 232.412 C 354.832 232.133,355.200 230.361,355.200 228.472 C 355.200 226.584,355.573 223.968,356.030 222.659 C 356.486 221.350,356.742 216.527,356.598 211.940 L 356.337 203.600 356.169 210.961 M358.618 216.000 C 358.618 217.980,358.774 218.790,358.965 217.800 C 359.155 216.810,359.155 215.190,358.965 214.200 C 358.774 213.210,358.618 214.020,358.618 216.000 M352.934 236.600 C 352.805 239.876,353.687 241.001,354.876 239.076 C 355.219 238.523,355.097 238.369,354.573 238.693 C 354.016 239.037,353.584 238.139,353.384 236.217 L 353.069 233.200 352.934 236.600 M53.600 263.133 C 53.600 263.610,54.052 264.000,54.605 264.000 C 55.157 264.000,56.085 265.170,56.665 266.600 C 59.961 274.716,69.749 291.405,73.356 295.057 C 73.930 295.639,74.407 296.359,74.415 296.657 C 74.424 296.956,75.684 298.636,77.215 300.391 C 79.972 303.551,80.860 305.426,79.076 304.324 C 78.504 303.970,78.370 304.104,78.724 304.676 C 79.457 305.863,80.800 305.873,80.800 304.692 C 80.800 304.193,78.507 300.683,75.705 296.892 C 69.027 287.857,65.050 281.427,59.857 271.266 C 56.060 263.836,53.600 260.638,53.600 263.133 M50.484 326.600 C 50.676 326.710,52.806 328.600,55.217 330.800 L 59.600 334.800 55.630 330.600 C 53.447 328.290,51.317 326.400,50.897 326.400 C 50.477 326.400,50.291 326.490,50.484 326.600 M68.400 344.000 C 70.119 345.760,71.705 347.200,71.925 347.200 C 72.145 347.200,70.919 345.760,69.200 344.000 C 67.481 342.240,65.895 340.800,65.675 340.800 C 65.455 340.800,66.681 342.240,68.400 344.000 M85.600 358.650 C 85.600 358.788,86.770 359.958,88.200 361.250 L 90.800 363.600 88.450 361.000 C 86.260 358.576,85.600 358.032,85.600 358.650 M92.800 365.050 C 92.800 365.188,93.970 366.358,95.400 367.650 L 98.000 370.000 95.650 367.400 C 93.460 364.976,92.800 364.432,92.800 365.050 M138.161 423.174 C 138.388 424.039,139.064 425.156,139.665 425.654 C 140.491 426.339,140.455 425.955,139.520 424.080 C 138.106 421.245,137.562 420.882,138.161 423.174 M145.580 435.727 C 146.031 435.950,146.400 436.823,146.400 437.667 C 146.400 438.510,146.748 439.200,147.174 439.200 C 148.261 439.200,146.880 435.727,145.704 435.501 C 145.185 435.402,145.129 435.503,145.580 435.727 M153.400 450.130 C 153.950 450.352,154.400 451.043,154.400 451.667 C 154.400 452.290,154.760 452.800,155.200 452.800 C 155.640 452.800,156.000 452.512,156.000 452.160 C 156.000 451.213,154.207 449.590,153.240 449.663 C 152.778 449.698,152.850 449.908,153.400 450.130 M171.400 477.143 C 171.730 477.570,172.000 478.568,172.000 479.360 C 172.000 480.152,172.360 480.800,172.800 480.800 C 174.016 480.800,173.759 479.549,172.200 477.872 C 171.430 477.044,171.070 476.716,171.400 477.143 M210.966 486.116 C 208.418 488.582,206.459 490.725,206.612 490.879 C 206.766 491.032,209.020 489.008,211.621 486.379 C 217.595 480.341,217.128 480.154,210.966 486.116 " stroke="none" fill="#8d8c8d" fill-rule="evenodd"></path></g></svg>