<svg id="svg" version="1.1" width="500" height="630" xmlns="http://www.w3.org/2000/svg" xmlns:xlink="http://www.w3.org/1999/xlink" style="display: block;"><g id="svgg"><path id="path0" d="M173.600 6.400 C 173.600 6.851,171.349 7.200,168.447 7.200 C 165.613 7.200,163.072 7.560,162.800 8.000 C 162.528 8.440,160.728 8.800,158.800 8.800 C 156.872 8.800,155.072 9.160,154.800 9.600 C 154.528 10.040,153.247 10.400,151.953 10.400 C 150.659 10.400,149.600 10.760,149.600 11.200 C 149.600 11.640,148.160 12.000,146.400 12.000 C 144.640 12.000,143.200 12.360,143.200 12.800 C 143.200 13.240,142.120 13.600,140.800 13.600 C 139.480 13.600,138.400 13.960,138.400 14.400 C 138.400 14.840,137.320 15.200,136.000 15.200 C 134.680 15.200,133.600 15.560,133.600 16.000 C 133.600 16.440,132.901 16.800,132.047 16.800 C 131.193 16.800,130.272 17.160,130.000 17.600 C 129.728 18.040,128.627 18.400,127.553 18.400 C 126.479 18.400,125.600 18.760,125.600 19.200 C 125.600 19.640,124.520 20.000,123.200 20.000 C 121.880 20.000,120.800 20.360,120.800 20.800 C 120.800 21.240,120.080 21.600,119.200 21.600 C 118.320 21.600,117.600 21.960,117.600 22.400 C 117.600 22.840,116.880 23.200,116.000 23.200 C 115.120 23.200,114.400 23.560,114.400 24.000 C 114.400 24.440,113.680 24.800,112.800 24.800 C 111.920 24.800,111.200 25.160,111.200 25.600 C 111.200 26.040,110.480 26.400,109.600 26.400 C 108.720 26.400,108.000 26.760,108.000 27.200 C 108.000 27.640,107.280 28.000,106.400 28.000 C 105.520 28.000,104.800 28.360,104.800 28.800 C 104.800 29.240,104.328 29.600,103.751 29.600 C 103.174 29.600,101.929 30.320,100.984 31.200 C 100.040 32.080,98.791 32.800,98.210 32.800 C 97.629 32.800,96.634 33.520,96.000 34.400 C 95.366 35.280,94.206 36.000,93.423 36.000 C 92.641 36.000,92.000 36.360,92.000 36.800 C 92.000 37.240,91.424 37.600,90.721 37.600 C 90.018 37.600,88.433 38.680,87.200 40.000 C 85.967 41.320,84.527 42.400,84.000 42.400 C 83.473 42.400,82.033 43.480,80.800 44.800 C 79.567 46.120,78.165 47.200,77.685 47.200 C 77.205 47.200,74.261 49.720,71.144 52.800 C 68.028 55.880,65.136 58.400,64.718 58.400 C 63.728 58.400,56.800 65.328,56.800 66.318 C 56.800 66.736,54.280 69.628,51.200 72.744 C 48.120 75.861,45.600 78.805,45.600 79.285 C 45.600 79.765,44.520 81.167,43.200 82.400 C 41.880 83.633,40.800 85.073,40.800 85.600 C 40.800 86.127,39.720 87.567,38.400 88.800 C 37.080 90.033,36.000 91.618,36.000 92.321 C 36.000 93.024,35.640 93.600,35.200 93.600 C 34.760 93.600,34.400 94.241,34.400 95.023 C 34.400 95.806,33.680 96.966,32.800 97.600 C 31.920 98.234,31.200 99.394,31.200 100.177 C 31.200 100.959,30.840 101.600,30.400 101.600 C 29.960 101.600,29.600 102.241,29.600 103.023 C 29.600 103.806,28.880 104.966,28.000 105.600 C 27.120 106.234,26.400 107.394,26.400 108.177 C 26.400 108.959,26.040 109.600,25.600 109.600 C 25.160 109.600,24.800 110.320,24.800 111.200 C 24.800 112.080,24.440 112.800,24.000 112.800 C 23.560 112.800,23.200 113.520,23.200 114.400 C 23.200 115.280,22.840 116.000,22.400 116.000 C 21.960 116.000,21.600 116.529,21.600 117.176 C 21.600 117.822,20.880 119.633,20.000 121.200 C 19.120 122.767,18.400 124.758,18.400 125.624 C 18.400 126.491,18.040 127.200,17.600 127.200 C 17.160 127.200,16.800 128.280,16.800 129.600 C 16.800 130.920,16.440 132.000,16.000 132.000 C 15.560 132.000,15.200 132.699,15.200 133.553 C 15.200 134.407,14.840 135.328,14.400 135.600 C 13.960 135.872,13.600 136.973,13.600 138.047 C 13.600 139.121,13.240 140.000,12.800 140.000 C 12.360 140.000,12.000 141.059,12.000 142.353 C 12.000 143.647,11.640 144.928,11.200 145.200 C 10.760 145.472,10.400 146.933,10.400 148.447 C 10.400 149.961,10.040 151.200,9.600 151.200 C 9.160 151.200,8.800 152.640,8.800 154.400 C 8.800 156.160,8.440 157.600,8.000 157.600 C 7.560 157.600,7.200 159.400,7.200 161.600 C 7.200 163.800,6.840 165.600,6.400 165.600 C 5.943 165.600,5.600 168.000,5.600 171.200 C 5.600 174.400,5.257 176.800,4.800 176.800 C 3.705 176.800,3.705 223.724,4.800 224.400 C 5.240 224.672,5.600 227.192,5.600 230.000 C 5.600 232.808,5.960 235.328,6.400 235.600 C 6.840 235.872,7.200 237.492,7.200 239.200 C 7.200 240.908,7.560 242.528,8.000 242.800 C 8.440 243.072,8.800 244.692,8.800 246.400 C 8.800 248.108,9.160 249.728,9.600 250.000 C 10.040 250.272,10.400 251.532,10.400 252.800 C 10.400 254.068,10.760 255.328,11.200 255.600 C 11.640 255.872,12.000 256.952,12.000 258.000 C 12.000 259.048,12.360 260.128,12.800 260.400 C 13.240 260.672,13.600 261.932,13.600 263.200 C 13.600 264.468,13.960 265.728,14.400 266.000 C 14.840 266.272,15.200 267.193,15.200 268.047 C 15.200 268.901,15.560 269.600,16.000 269.600 C 16.440 269.600,16.800 270.680,16.800 272.000 C 16.800 273.320,17.160 274.400,17.600 274.400 C 18.040 274.400,18.400 275.120,18.400 276.000 C 18.400 276.880,18.760 277.600,19.200 277.600 C 19.640 277.600,20.000 278.320,20.000 279.200 C 20.000 280.080,20.360 280.800,20.800 280.800 C 21.240 280.800,21.608 281.610,21.618 282.600 C 21.628 283.590,22.340 285.300,23.200 286.400 C 24.060 287.500,24.772 288.962,24.782 289.649 C 24.792 290.336,25.520 291.671,26.400 292.616 C 27.280 293.560,28.000 294.888,28.000 295.567 C 28.000 296.245,28.360 296.800,28.800 296.800 C 29.240 296.800,29.600 297.520,29.600 298.400 C 29.600 299.280,29.960 300.000,30.400 300.000 C 30.840 300.000,31.200 300.472,31.200 301.049 C 31.200 301.626,31.920 302.871,32.800 303.816 C 33.680 304.760,34.400 306.009,34.400 306.590 C 34.400 307.171,35.120 308.166,36.000 308.800 C 36.880 309.434,37.600 310.449,37.600 311.056 C 37.600 311.662,38.680 313.167,40.000 314.400 C 41.320 315.633,42.400 317.073,42.400 317.600 C 42.400 318.127,43.412 319.512,44.649 320.679 C 45.886 321.846,47.135 323.430,47.424 324.200 C 47.715 324.975,48.771 325.600,49.789 325.600 C 51.064 325.600,54.201 328.197,60.014 334.068 C 64.626 338.725,73.440 346.897,79.600 352.227 C 112.687 380.858,126.917 398.480,147.249 436.000 C 148.322 437.980,149.407 439.780,149.660 440.000 C 149.912 440.220,150.992 442.020,152.060 444.000 C 153.127 445.980,154.270 447.720,154.600 447.867 C 154.930 448.013,155.200 448.470,155.200 448.881 C 155.200 449.292,156.550 451.895,158.200 454.664 C 159.850 457.434,161.920 461.100,162.800 462.812 C 163.680 464.524,165.210 466.804,166.200 467.879 C 167.190 468.954,168.000 470.535,168.000 471.392 C 168.000 472.249,168.642 473.118,169.426 473.323 C 170.211 473.528,171.819 475.204,173.001 477.048 C 174.182 478.892,177.160 482.341,179.617 484.713 C 182.244 487.248,184.274 489.968,184.543 491.313 C 185.047 493.837,185.969 494.278,186.709 492.349 C 187.391 490.572,188.966 491.816,188.379 493.667 C 188.035 494.749,188.275 495.200,189.193 495.200 C 189.909 495.200,190.272 494.840,190.000 494.400 C 189.720 493.946,190.392 493.600,191.553 493.600 C 192.679 493.600,193.600 493.960,193.600 494.400 C 193.600 495.677,197.381 495.324,197.889 494.000 C 198.143 493.340,199.106 492.800,200.031 492.800 C 207.007 492.800,219.434 477.354,233.179 451.600 C 260.257 400.862,274.546 382.287,292.600 374.352 C 294.030 373.724,295.200 372.937,295.200 372.605 C 295.200 372.272,295.920 372.000,296.800 372.000 C 297.680 372.000,298.400 371.640,298.400 371.200 C 298.400 370.760,298.887 370.400,299.481 370.400 C 300.076 370.400,301.693 369.320,303.074 368.000 C 304.455 366.680,305.952 365.600,306.400 365.600 C 306.848 365.600,308.345 364.520,309.726 363.200 C 311.107 361.880,312.644 360.800,313.142 360.800 C 313.640 360.800,314.566 360.080,315.200 359.200 C 315.834 358.320,316.842 357.600,317.439 357.600 C 318.037 357.600,319.909 356.160,321.600 354.400 C 323.291 352.640,325.075 351.200,325.565 351.200 C 326.893 351.200,352.800 324.908,352.800 323.560 C 352.800 322.922,353.160 322.400,353.600 322.400 C 354.040 322.400,354.400 321.928,354.400 321.351 C 354.400 320.774,355.030 319.585,355.800 318.710 C 357.582 316.684,358.854 314.548,362.418 307.600 C 363.998 304.520,367.328 298.400,369.818 294.000 C 377.433 280.544,388.800 251.035,388.800 244.723 C 388.800 243.838,389.664 242.772,390.800 242.254 C 392.342 241.552,392.800 240.742,392.800 238.719 C 392.800 237.275,393.160 235.872,393.600 235.600 C 394.040 235.328,394.400 232.808,394.400 230.000 C 394.400 227.192,394.760 224.672,395.200 224.400 C 396.295 223.724,396.295 176.800,395.200 176.800 C 394.743 176.800,394.400 174.400,394.400 171.200 C 394.400 168.000,394.057 165.600,393.600 165.600 C 393.160 165.600,392.800 163.800,392.800 161.600 C 392.800 159.400,392.440 157.600,392.000 157.600 C 391.560 157.600,391.200 156.160,391.200 154.400 C 391.200 152.640,390.840 151.200,390.400 151.200 C 389.960 151.200,389.600 149.961,389.600 148.447 C 389.600 146.933,389.240 145.472,388.800 145.200 C 388.360 144.928,388.000 143.647,388.000 142.353 C 388.000 141.059,387.640 140.000,387.200 140.000 C 386.760 140.000,386.400 139.121,386.400 138.047 C 386.400 136.973,386.040 135.872,385.600 135.600 C 385.160 135.328,384.800 134.407,384.800 133.553 C 384.800 132.699,384.440 132.000,384.000 132.000 C 383.560 132.000,383.200 130.920,383.200 129.600 C 383.200 128.280,382.840 127.200,382.400 127.200 C 381.960 127.200,381.600 126.491,381.600 125.624 C 381.600 124.758,380.880 122.767,380.000 121.200 C 379.120 119.633,378.400 117.822,378.400 117.176 C 378.400 116.529,378.040 116.000,377.600 116.000 C 377.160 116.000,376.800 115.280,376.800 114.400 C 376.800 113.520,376.440 112.800,376.000 112.800 C 375.560 112.800,375.200 112.080,375.200 111.200 C 375.200 110.320,374.840 109.600,374.400 109.600 C 373.960 109.600,373.600 108.959,373.600 108.177 C 373.600 107.394,372.880 106.234,372.000 105.600 C 371.120 104.966,370.400 103.806,370.400 103.023 C 370.400 102.241,370.040 101.600,369.600 101.600 C 369.160 101.600,368.800 100.959,368.800 100.177 C 368.800 99.394,368.080 98.234,367.200 97.600 C 366.320 96.966,365.600 95.806,365.600 95.023 C 365.600 94.241,365.240 93.600,364.800 93.600 C 364.360 93.600,364.000 93.024,364.000 92.321 C 364.000 91.618,362.920 90.033,361.600 88.800 C 360.280 87.567,359.200 86.127,359.200 85.600 C 359.200 85.073,358.120 83.633,356.800 82.400 C 355.480 81.167,354.400 79.745,354.400 79.240 C 354.400 78.736,351.880 75.838,348.800 72.800 C 345.720 69.762,343.200 66.890,343.200 66.418 C 343.200 65.298,336.302 58.400,335.182 58.400 C 334.710 58.400,331.838 55.880,328.800 52.800 C 325.762 49.720,322.864 47.200,322.360 47.200 C 321.855 47.200,320.433 46.120,319.200 44.800 C 317.967 43.480,316.527 42.400,316.000 42.400 C 315.473 42.400,314.033 41.320,312.800 40.000 C 311.567 38.680,309.982 37.600,309.279 37.600 C 308.576 37.600,308.000 37.240,308.000 36.800 C 308.000 36.360,307.359 36.000,306.577 36.000 C 305.794 36.000,304.634 35.280,304.000 34.400 C 303.366 33.520,302.371 32.800,301.790 32.800 C 301.209 32.800,299.960 32.080,299.016 31.200 C 298.071 30.320,296.826 29.600,296.249 29.600 C 295.672 29.600,295.200 29.240,295.200 28.800 C 295.200 28.360,294.480 28.000,293.600 28.000 C 292.720 28.000,292.000 27.640,292.000 27.200 C 292.000 26.760,291.280 26.400,290.400 26.400 C 289.520 26.400,288.800 26.040,288.800 25.600 C 288.800 25.160,288.080 24.800,287.200 24.800 C 286.320 24.800,285.600 24.440,285.600 24.000 C 285.600 23.560,284.880 23.200,284.000 23.200 C 283.120 23.200,282.400 22.840,282.400 22.400 C 282.400 21.960,281.680 21.600,280.800 21.600 C 279.920 21.600,279.200 21.240,279.200 20.800 C 279.200 20.360,278.120 20.000,276.800 20.000 C 275.480 20.000,274.400 19.640,274.400 19.200 C 274.400 18.760,273.521 18.400,272.447 18.400 C 271.373 18.400,270.272 18.040,270.000 17.600 C 269.728 17.160,268.807 16.800,267.953 16.800 C 267.099 16.800,266.400 16.440,266.400 16.000 C 266.400 15.560,265.320 15.200,264.000 15.200 C 262.680 15.200,261.600 14.840,261.600 14.400 C 261.600 13.960,260.520 13.600,259.200 13.600 C 257.880 13.600,256.800 13.240,256.800 12.800 C 256.800 12.360,255.360 12.000,253.600 12.000 C 251.840 12.000,250.400 11.640,250.400 11.200 C 250.400 10.760,249.341 10.400,248.047 10.400 C 246.753 10.400,245.472 10.040,245.200 9.600 C 244.928 9.160,243.128 8.800,241.200 8.800 C 239.272 8.800,237.472 8.440,237.200 8.000 C 236.928 7.560,234.387 7.200,231.553 7.200 C 228.651 7.200,226.400 6.851,226.400 6.400 C 226.400 5.883,217.067 5.600,200.000 5.600 C 182.933 5.600,173.600 5.883,173.600 6.400 M226.000 45.467 C 234.976 47.034,243.027 48.963,249.200 51.025 C 259.924 54.608,274.687 61.344,281.200 65.626 C 282.960 66.784,284.940 67.932,285.600 68.178 C 286.979 68.693,296.016 75.320,301.958 80.174 C 312.048 88.416,332.111 111.398,333.408 116.200 C 333.616 116.970,334.063 117.600,334.400 117.600 C 334.737 117.600,335.213 118.230,335.457 119.000 C 335.893 120.373,338.411 124.812,339.201 125.600 C 339.422 125.820,340.008 126.900,340.503 128.000 C 340.999 129.100,342.572 132.520,344.000 135.600 C 345.428 138.680,346.954 142.100,347.391 143.200 C 347.829 144.300,348.505 145.825,348.893 146.589 C 349.282 147.353,349.600 148.682,349.600 149.542 C 349.600 150.402,349.960 151.328,350.400 151.600 C 350.840 151.872,351.200 152.952,351.200 154.000 C 351.200 155.048,351.560 156.128,352.000 156.400 C 352.440 156.672,352.800 158.112,352.800 159.600 C 352.800 161.088,353.160 162.528,353.600 162.800 C 354.040 163.072,354.400 164.461,354.400 165.887 C 354.400 167.313,354.728 168.822,355.130 169.240 C 356.092 170.242,356.813 177.209,357.293 190.137 C 357.585 197.984,357.981 200.920,358.842 201.635 C 362.071 204.315,358.336 236.971,354.439 240.128 C 353.538 240.859,352.800 242.093,352.800 242.871 C 352.800 244.435,351.395 249.224,350.302 251.389 C 349.916 252.153,349.600 253.328,349.600 254.000 C 349.600 254.672,349.282 255.847,348.893 256.611 C 348.505 257.375,347.827 258.900,347.388 260.000 C 345.553 264.593,337.921 279.838,335.974 282.800 C 334.816 284.560,333.674 286.542,333.434 287.205 C 333.014 288.370,322.701 302.389,321.668 303.200 C 321.387 303.420,319.188 305.894,316.779 308.698 C 303.729 323.892,275.763 343.005,258.000 348.870 C 256.240 349.451,254.458 350.213,254.040 350.563 C 253.622 350.913,252.473 351.200,251.487 351.200 C 250.501 351.200,249.498 351.518,249.257 351.908 C 249.016 352.297,247.825 352.797,246.610 353.018 C 245.394 353.239,242.420 353.947,240.000 354.591 C 235.532 355.780,230.688 356.785,221.952 358.338 C 215.670 359.455,184.330 359.455,178.048 358.338 C 166.970 356.369,164.312 355.779,153.200 352.823 C 150.627 352.138,148.556 351.443,146.000 350.405 C 145.120 350.048,142.240 348.927,139.600 347.915 C 130.487 344.419,113.674 335.069,106.007 329.231 C 99.347 324.161,86.302 312.565,84.289 309.926 C 83.136 308.414,81.069 306.634,79.696 305.972 C 73.341 302.905,53.600 271.463,53.600 264.407 C 53.600 262.851,53.240 260.863,52.800 259.989 C 52.360 259.115,51.640 257.685,51.200 256.811 C 50.760 255.937,50.400 254.672,50.400 254.000 C 50.400 253.328,50.084 252.153,49.698 251.389 C 48.531 249.078,47.200 244.392,47.200 242.590 C 47.200 241.658,46.878 240.695,46.485 240.452 C 45.756 240.002,45.062 236.375,44.330 229.200 C 44.106 227.000,43.568 224.480,43.134 223.600 C 41.524 220.332,43.096 171.088,44.870 169.240 C 45.272 168.822,45.600 167.313,45.600 165.887 C 45.600 164.461,45.960 163.072,46.400 162.800 C 46.840 162.528,47.200 161.088,47.200 159.600 C 47.200 158.112,47.560 156.672,48.000 156.400 C 48.440 156.128,48.800 155.048,48.800 154.000 C 48.800 152.952,49.160 151.872,49.600 151.600 C 50.040 151.328,50.400 150.402,50.400 149.542 C 50.400 148.682,50.718 147.353,51.107 146.589 C 51.495 145.825,52.171 144.300,52.609 143.200 C 53.046 142.100,54.572 138.680,56.000 135.600 C 57.428 132.520,59.001 129.100,59.497 128.000 C 59.992 126.900,60.578 125.820,60.799 125.600 C 61.589 124.812,64.107 120.373,64.543 119.000 C 64.787 118.230,65.305 117.600,65.693 117.600 C 66.082 117.600,66.400 117.215,66.400 116.744 C 66.400 115.197,70.402 109.687,79.433 98.800 C 88.420 87.965,108.503 70.378,114.400 68.178 C 115.060 67.932,117.040 66.776,118.800 65.610 C 124.992 61.508,142.077 53.785,150.800 51.146 C 152.560 50.614,154.720 49.895,155.600 49.549 C 156.480 49.204,158.280 48.694,159.600 48.417 C 160.920 48.140,163.620 47.554,165.600 47.115 C 167.580 46.675,171.465 46.020,174.233 45.658 C 177.002 45.296,179.509 44.758,179.804 44.463 C 180.622 43.645,220.534 44.512,226.000 45.467 M176.722 113.826 C 173.025 116.151,164.960 121.242,158.800 125.140 C 152.640 129.038,145.891 133.293,143.802 134.596 C 139.039 137.566,136.372 140.712,133.922 146.254 L 132.000 150.599 132.000 197.331 C 132.000 250.110,131.672 247.256,138.394 253.010 C 146.719 260.135,170.072 261.780,175.200 255.602 C 176.221 254.372,176.461 247.887,176.808 212.078 C 177.330 158.345,175.175 163.923,202.554 145.439 C 211.756 139.227,219.985 133.254,220.842 132.165 C 224.146 127.964,222.054 121.600,217.370 121.600 C 216.559 121.600,207.369 127.304,196.948 134.276 C 159.366 159.418,150.693 163.493,145.600 158.400 C 141.328 154.128,143.852 147.526,151.600 142.706 C 153.800 141.337,160.294 137.289,166.031 133.709 C 177.338 126.653,177.888 126.461,180.348 128.708 C 185.690 133.585,189.847 130.315,190.274 120.900 C 190.801 109.311,187.032 107.344,176.722 113.826 M220.177 143.464 C 191.943 162.547,190.219 163.916,187.478 169.428 C 185.340 173.727,184.751 260.723,186.823 266.163 C 191.041 277.236,213.267 283.196,225.357 276.496 C 229.323 274.298,255.676 254.860,269.484 243.947 L 275.997 238.800 275.998 193.465 L 276.000 148.130 273.212 146.407 C 269.449 144.082,268.512 144.471,257.200 153.049 C 216.751 183.725,214.926 184.879,205.942 185.456 C 199.417 185.875,196.582 183.725,196.655 178.414 C 196.725 173.347,198.025 172.052,214.454 160.674 C 230.045 149.877,230.915 149.475,233.200 152.000 C 235.042 154.035,239.292 154.109,241.076 152.137 C 243.526 149.429,242.955 136.553,240.292 134.458 C 237.149 131.986,237.179 131.973,220.177 143.464 M264.630 186.842 C 264.903 194.480,266.682 192.375,246.800 207.931 C 229.878 221.171,229.311 221.343,228.962 213.318 C 228.651 206.166,228.713 206.084,242.937 195.030 C 249.462 189.959,256.383 184.487,258.319 182.869 C 263.489 178.547,264.353 179.091,264.630 186.842 " stroke="none" fill="#ffffff" fill-rule="evenodd"></path><path id="path1" d="M390.962 245.000 C 390.735 246.430,390.130 249.040,389.619 250.800 C 389.107 252.560,388.507 254.900,388.284 256.000 C 388.062 257.100,387.583 258.720,387.220 259.600 C 386.858 260.480,386.129 262.460,385.600 264.000 C 385.071 265.540,384.267 267.700,383.812 268.800 C 383.358 269.900,382.674 271.610,382.293 272.600 C 381.912 273.590,381.283 275.210,380.894 276.200 C 379.307 280.251,371.536 295.820,369.614 298.800 C 368.480 300.560,367.051 302.990,366.440 304.200 C 365.829 305.410,365.030 306.400,364.665 306.400 C 364.299 306.400,364.000 306.785,364.000 307.256 C 364.000 308.027,359.561 315.022,358.452 316.000 C 358.202 316.220,357.487 317.390,356.864 318.600 C 356.240 319.810,355.430 320.800,355.065 320.800 C 354.699 320.800,354.400 321.343,354.400 322.007 C 354.400 322.671,353.320 324.345,352.000 325.726 C 350.680 327.107,349.600 328.724,349.600 329.319 C 349.600 329.913,349.240 330.400,348.800 330.400 C 348.360 330.400,348.000 330.923,348.000 331.563 C 348.000 332.795,328.538 352.800,327.340 352.800 C 326.953 352.800,325.507 353.880,324.126 355.200 C 322.745 356.520,321.200 357.600,320.694 357.600 C 320.188 357.600,318.741 358.680,317.480 360.000 C 316.218 361.320,314.649 362.400,313.993 362.400 C 313.337 362.400,312.800 362.760,312.800 363.200 C 312.800 363.640,312.080 364.000,311.200 364.000 C 310.320 364.000,309.600 364.303,309.600 364.674 C 309.600 365.045,307.890 366.215,305.800 367.274 C 303.710 368.333,301.880 369.470,301.733 369.800 C 301.587 370.130,300.777 370.400,299.933 370.400 C 299.090 370.400,298.400 370.699,298.400 371.065 C 298.400 371.430,297.410 372.240,296.200 372.865 C 294.990 373.489,292.920 374.988,291.600 376.196 C 290.280 377.404,288.927 378.394,288.593 378.396 C 287.264 378.404,273.368 391.626,268.789 397.239 C 262.817 404.559,256.920 412.912,253.664 418.663 C 252.749 420.278,251.225 422.950,250.277 424.600 C 249.329 426.250,247.799 429.040,246.877 430.800 C 245.955 432.560,245.018 434.180,244.795 434.400 C 244.572 434.620,243.273 436.960,241.907 439.600 C 240.541 442.240,238.294 446.470,236.912 449.000 C 235.530 451.530,233.376 455.490,232.124 457.800 C 230.872 460.110,229.016 463.440,228.000 465.200 C 226.985 466.960,225.422 469.750,224.528 471.400 C 223.635 473.050,222.610 474.400,222.252 474.400 C 221.893 474.400,221.600 474.788,221.600 475.263 C 221.600 476.029,215.547 483.722,210.163 489.800 C 209.091 491.010,207.626 492.000,206.907 492.000 C 206.188 492.000,205.600 492.360,205.600 492.800 C 205.600 494.121,207.585 493.705,209.416 492.000 C 210.360 491.120,211.544 490.400,212.046 490.400 C 212.547 490.400,213.967 489.320,215.200 488.000 C 216.433 486.680,217.748 485.600,218.121 485.599 C 219.419 485.597,223.200 481.806,223.200 480.507 C 223.200 479.788,223.774 479.200,224.475 479.200 C 225.176 479.200,225.938 478.480,226.168 477.600 C 226.398 476.720,226.867 476.000,227.209 476.000 C 228.209 476.000,237.600 464.592,237.600 463.378 C 237.600 462.771,239.040 460.891,240.800 459.200 C 242.560 457.509,244.000 455.714,244.000 455.211 C 244.000 454.708,245.800 452.543,248.000 450.400 C 250.200 448.257,252.000 446.122,252.000 445.656 C 252.000 445.190,253.800 442.970,256.000 440.723 C 258.200 438.476,260.000 436.325,260.000 435.942 C 260.000 434.737,279.990 415.200,281.224 415.200 C 281.871 415.200,282.400 414.882,282.400 414.493 C 282.400 414.105,283.120 413.598,284.000 413.368 C 284.880 413.138,285.600 412.376,285.600 411.675 C 285.600 410.933,286.269 410.400,287.200 410.400 C 288.080 410.400,288.800 410.040,288.800 409.600 C 288.800 409.160,289.355 408.800,290.033 408.800 C 290.712 408.800,292.040 408.080,292.984 407.200 C 293.929 406.320,295.286 405.600,296.000 405.600 C 296.714 405.600,298.071 404.880,299.016 404.000 C 299.960 403.120,301.209 402.400,301.790 402.400 C 302.371 402.400,303.366 401.680,304.000 400.800 C 304.636 399.917,306.071 399.200,307.200 399.200 C 308.329 399.200,309.764 398.483,310.400 397.600 C 311.034 396.720,312.284 395.992,313.177 395.982 C 314.069 395.972,315.700 395.260,316.800 394.400 C 317.900 393.540,319.250 392.828,319.800 392.818 C 320.350 392.808,320.800 392.440,320.800 392.000 C 320.800 391.560,321.520 391.200,322.400 391.200 C 323.280 391.200,324.000 390.840,324.000 390.400 C 324.000 389.960,324.720 389.600,325.600 389.600 C 326.480 389.600,327.200 389.240,327.200 388.800 C 327.200 388.360,327.841 388.000,328.623 388.000 C 329.406 388.000,330.566 387.280,331.200 386.400 C 331.834 385.520,332.914 384.800,333.600 384.800 C 334.286 384.800,335.366 384.080,336.000 383.200 C 336.634 382.320,337.794 381.600,338.577 381.600 C 339.359 381.600,340.000 381.240,340.000 380.800 C 340.000 380.360,340.574 380.000,341.275 380.000 C 341.976 380.000,342.738 379.280,342.968 378.400 C 343.200 377.514,344.059 376.800,344.893 376.800 C 345.722 376.800,346.400 376.440,346.400 376.000 C 346.400 375.560,347.120 375.200,348.000 375.200 C 349.067 375.200,349.600 374.667,349.600 373.600 C 349.600 372.676,350.133 372.000,350.863 372.000 C 351.557 372.000,353.551 370.560,355.294 368.800 C 357.036 367.040,358.788 365.600,359.186 365.600 C 360.386 365.600,370.400 355.201,370.400 353.956 C 370.400 353.320,370.951 352.800,371.625 352.800 C 372.299 352.800,373.084 352.170,373.370 351.400 C 373.655 350.630,374.544 349.418,375.344 348.706 C 376.145 347.995,376.800 346.867,376.800 346.199 C 376.800 345.532,377.520 344.798,378.400 344.568 C 379.280 344.338,380.000 343.576,380.000 342.875 C 380.000 342.174,380.360 341.600,380.800 341.600 C 381.240 341.600,381.600 341.057,381.600 340.393 C 381.600 339.729,382.680 338.055,384.000 336.674 C 385.320 335.293,386.400 333.676,386.400 333.081 C 386.400 332.487,386.760 332.000,387.200 332.000 C 387.640 332.000,388.000 330.920,388.000 329.600 C 388.000 328.280,388.299 327.200,388.665 327.200 C 389.030 327.200,389.840 326.210,390.464 325.000 C 391.087 323.790,391.778 322.620,391.999 322.400 C 393.327 321.076,394.400 318.042,394.400 315.611 C 394.400 314.065,394.670 312.797,395.000 312.794 C 396.024 312.783,397.600 308.610,397.600 305.907 C 397.600 304.492,398.050 303.183,398.600 302.999 C 399.366 302.743,399.600 297.775,399.600 281.772 C 399.600 266.125,399.349 260.628,398.600 259.880 C 398.050 259.330,397.600 257.893,397.600 256.687 C 397.600 255.481,397.240 254.272,396.800 254.000 C 396.360 253.728,396.000 252.447,396.000 251.153 C 396.000 249.859,395.640 248.800,395.200 248.800 C 394.760 248.800,394.400 248.080,394.400 247.200 C 394.400 246.320,394.040 245.600,393.600 245.600 C 393.160 245.600,392.800 244.880,392.800 244.000 C 392.800 241.413,391.412 242.168,390.962 245.000 M48.800 328.000 C 48.800 328.440,49.160 328.800,49.600 328.800 C 50.040 328.800,50.400 329.880,50.400 331.200 C 50.400 332.520,50.760 333.600,51.200 333.600 C 51.640 333.600,52.000 334.320,52.000 335.200 C 52.000 336.080,52.360 336.800,52.800 336.800 C 53.240 336.800,53.600 337.880,53.600 339.200 C 53.600 340.520,53.960 341.600,54.400 341.600 C 54.840 341.600,55.200 342.072,55.200 342.649 C 55.200 343.226,55.920 344.471,56.800 345.416 C 57.680 346.360,58.400 347.688,58.400 348.367 C 58.400 349.045,58.760 349.600,59.200 349.600 C 59.640 349.600,60.000 350.241,60.000 351.023 C 60.000 351.806,60.720 352.966,61.600 353.600 C 62.480 354.234,63.200 355.262,63.200 355.883 C 63.200 356.504,63.832 357.595,64.605 358.306 C 65.378 359.018,66.519 360.590,67.141 361.800 C 67.762 363.010,68.775 364.000,69.392 364.000 C 70.742 364.000,72.800 365.929,72.800 367.195 C 72.800 368.261,79.611 375.036,83.853 378.191 C 85.474 379.396,87.382 381.016,88.094 381.791 C 88.805 382.566,89.831 383.200,90.373 383.200 C 90.915 383.200,92.367 384.280,93.600 385.600 C 94.833 386.920,96.241 388.000,96.728 388.000 C 97.216 388.000,98.745 389.080,100.126 390.400 C 101.507 391.720,102.899 392.800,103.220 392.800 C 103.540 392.800,105.331 394.240,107.200 396.000 C 109.069 397.760,110.913 399.200,111.298 399.200 C 111.683 399.200,113.482 400.640,115.296 402.400 C 117.109 404.160,118.879 405.600,119.228 405.600 C 120.206 405.600,125.600 411.059,125.600 412.049 C 125.600 412.531,127.040 414.309,128.800 416.000 C 130.560 417.691,132.000 419.460,132.000 419.930 C 132.000 420.401,133.080 421.818,134.400 423.080 C 135.720 424.341,136.801 425.694,136.802 426.087 C 136.803 426.479,137.882 428.060,139.200 429.600 C 140.950 431.645,141.597 432.023,141.598 431.000 C 141.599 430.230,141.240 429.600,140.800 429.600 C 140.360 429.600,140.000 428.959,140.000 428.177 C 140.000 427.394,139.280 426.234,138.400 425.600 C 137.520 424.966,136.800 423.997,136.800 423.448 C 136.800 422.351,134.269 417.607,131.906 414.277 C 131.078 413.109,130.400 411.759,130.400 411.277 C 130.400 410.794,130.040 410.400,129.600 410.400 C 129.160 410.400,128.800 410.015,128.800 409.544 C 128.800 408.761,125.064 402.945,122.681 400.018 C 122.135 399.348,119.966 396.460,117.859 393.600 C 115.753 390.740,113.663 387.980,113.215 387.467 C 105.883 379.077,100.521 373.374,97.600 370.858 C 94.178 367.911,87.290 361.866,79.260 354.762 C 77.247 352.982,74.340 350.516,72.800 349.284 C 71.260 348.052,65.471 342.579,59.935 337.122 C 50.101 327.429,48.800 326.363,48.800 328.000 M141.600 433.600 C 141.600 434.040,141.872 434.400,142.205 434.400 C 142.537 434.400,143.287 435.480,143.872 436.800 C 144.893 439.107,146.400 440.061,146.400 438.400 C 146.400 437.960,146.040 437.600,145.600 437.600 C 145.160 437.600,144.800 437.034,144.800 436.343 C 144.800 435.130,142.996 432.800,142.057 432.800 C 141.806 432.800,141.600 433.160,141.600 433.600 M146.400 441.600 C 146.400 442.040,146.672 442.400,147.005 442.400 C 147.337 442.400,148.087 443.480,148.672 444.800 C 149.693 447.107,151.200 448.061,151.200 446.400 C 151.200 445.960,150.840 445.600,150.400 445.600 C 149.960 445.600,149.600 445.034,149.600 444.343 C 149.600 443.130,147.796 440.800,146.857 440.800 C 146.606 440.800,146.400 441.160,146.400 441.600 M168.186 476.000 C 169.124 477.502,170.400 478.161,170.400 477.143 C 170.400 476.545,168.249 474.400,167.650 474.400 C 167.395 474.400,167.636 475.120,168.186 476.000 M175.200 484.608 C 175.200 484.942,175.920 485.665,176.800 486.214 C 178.660 487.376,178.909 486.794,177.257 485.143 C 175.996 483.882,175.200 483.675,175.200 484.608 " stroke="none" fill="#9e9e9e" fill-rule="evenodd"></path><path id="path2" d="M357.356 202.911 C 357.050 203.217,356.800 206.228,356.800 209.603 C 356.800 212.978,356.235 219.308,355.544 223.670 C 354.853 228.031,354.132 233.220,353.942 235.200 L 353.596 238.800 354.843 236.095 C 355.529 234.607,355.884 232.851,355.631 232.193 C 355.379 231.535,355.518 230.581,355.939 230.073 C 356.713 229.141,357.282 224.817,358.373 211.600 C 358.937 204.756,358.578 201.688,357.356 202.911 M387.293 256.535 C 387.242 257.049,386.967 258.129,386.682 258.935 C 386.281 260.072,386.387 260.195,387.157 259.485 C 387.703 258.982,387.978 257.902,387.768 257.085 C 387.558 256.268,387.344 256.021,387.293 256.535 M54.850 265.800 C 57.367 273.914,76.669 304.000,79.359 304.000 C 79.760 304.000,78.975 302.470,77.614 300.600 C 70.466 290.775,62.395 277.959,59.224 271.398 C 55.936 264.596,53.517 261.499,54.850 265.800 M369.972 297.000 L 368.704 299.600 370.334 297.600 C 371.904 295.674,372.416 294.400,371.621 294.400 C 371.412 294.400,370.670 295.570,369.972 297.000 M50.400 327.473 C 50.400 327.623,54.810 332.083,60.200 337.384 C 69.182 346.218,74.539 351.021,83.498 358.273 L 86.800 360.946 83.600 357.980 C 81.840 356.349,76.980 352.051,72.800 348.429 C 68.620 344.807,62.068 338.549,58.239 334.522 C 52.051 328.013,50.400 326.528,50.400 327.473 M87.281 361.400 C 87.326 361.730,89.216 363.607,91.481 365.571 L 95.600 369.142 91.630 364.971 C 87.573 360.708,87.139 360.352,87.281 361.400 M96.000 369.050 C 96.000 369.188,97.170 370.358,98.600 371.650 L 101.200 374.000 98.850 371.400 C 96.660 368.976,96.000 368.432,96.000 369.050 M105.200 378.400 C 107.367 380.600,109.320 382.400,109.540 382.400 C 109.760 382.400,108.167 380.600,106.000 378.400 C 103.833 376.200,101.880 374.400,101.660 374.400 C 101.440 374.400,103.033 376.200,105.200 378.400 M283.939 381.400 L 282.000 383.600 284.400 381.600 C 285.720 380.500,286.950 379.510,287.133 379.400 C 287.317 379.290,287.109 379.200,286.673 379.200 C 286.236 379.200,285.006 380.190,283.939 381.400 M111.203 385.200 C 112.301 386.520,113.290 387.750,113.400 387.933 C 113.510 388.117,113.776 388.090,113.992 387.875 C 114.207 387.660,113.218 386.430,111.795 385.142 L 109.206 382.800 111.203 385.200 M273.674 390.939 C 269.679 395.195,266.583 398.850,266.794 399.061 C 267.005 399.272,267.978 398.399,268.957 397.122 C 269.935 395.845,273.241 392.190,276.303 389.000 C 279.365 385.810,281.660 383.200,281.404 383.200 C 281.147 383.200,277.669 386.682,273.674 390.939 M115.961 390.800 C 116.900 392.120,118.823 394.904,120.234 396.986 C 121.645 399.068,123.069 400.778,123.399 400.786 C 124.058 400.801,119.672 394.581,116.358 390.800 L 114.254 388.400 115.961 390.800 M263.550 402.937 C 262.318 404.552,261.718 405.621,262.218 405.313 C 263.242 404.680,266.705 400.000,266.149 400.000 C 265.952 400.000,264.782 401.322,263.550 402.937 M130.430 411.600 C 130.433 412.040,131.172 413.300,132.071 414.400 C 133.158 415.728,133.430 415.863,132.880 414.800 C 131.532 412.191,130.424 410.744,130.430 411.600 M248.506 426.600 L 247.067 429.200 248.715 427.200 C 250.178 425.426,250.827 424.000,250.172 424.000 C 250.047 424.000,249.297 425.170,248.506 426.600 M238.906 444.200 L 237.467 446.800 239.115 444.800 C 240.578 443.026,241.227 441.600,240.572 441.600 C 240.447 441.600,239.697 442.770,238.906 444.200 M222.890 472.375 C 222.160 473.489,221.845 474.400,222.189 474.400 C 222.968 474.400,225.038 471.172,224.564 470.697 C 224.373 470.506,223.620 471.261,222.890 472.375 M218.139 479.221 C 216.506 481.410,215.313 483.200,215.488 483.200 C 216.087 483.200,221.780 475.914,221.444 475.578 C 221.260 475.393,219.773 477.033,218.139 479.221 M210.954 487.706 C 208.839 489.724,207.292 491.558,207.516 491.783 C 207.740 492.007,208.391 491.676,208.962 491.048 C 209.533 490.419,211.241 488.576,212.757 486.952 C 216.562 482.877,215.590 483.284,210.954 487.706 " stroke="none" fill="#2d2d30" fill-rule="evenodd"></path><path id="path3" d="M358.640 210.400 C 358.640 212.820,358.790 213.810,358.973 212.600 C 359.156 211.390,359.156 209.410,358.973 208.200 C 358.790 206.990,358.640 207.980,358.640 210.400 M355.709 215.872 C 355.362 219.542,355.253 222.720,355.468 222.935 C 356.020 223.487,357.016 213.524,356.646 211.158 C 356.478 210.081,356.056 212.202,355.709 215.872 M357.786 220.800 C 357.786 222.340,357.950 222.970,358.151 222.200 C 358.353 221.430,358.353 220.170,358.151 219.400 C 357.950 218.630,357.786 219.260,357.786 220.800 M354.036 228.436 C 353.730 230.477,353.660 232.327,353.880 232.547 C 354.100 232.767,354.530 231.277,354.836 229.236 C 355.142 227.196,355.213 225.346,354.993 225.126 C 354.773 224.906,354.342 226.396,354.036 228.436 M54.400 263.086 C 54.400 263.515,54.708 263.987,55.084 264.133 C 55.461 264.280,57.637 268.130,59.920 272.689 C 64.987 282.806,78.885 303.782,79.869 302.797 C 80.049 302.618,78.221 299.845,75.807 296.636 C 69.311 287.997,64.689 280.577,60.123 271.462 C 56.385 263.999,54.400 261.093,54.400 263.086 M72.400 296.800 C 74.431 299.440,76.274 301.600,76.494 301.600 C 76.714 301.600,75.231 299.440,73.200 296.800 C 71.169 294.160,69.326 292.000,69.106 292.000 C 68.886 292.000,70.369 294.160,72.400 296.800 M367.816 299.400 C 366.066 302.098,364.497 305.312,365.374 304.400 C 366.496 303.234,369.796 297.600,369.357 297.600 C 369.152 297.600,368.459 298.410,367.816 299.400 M61.586 337.800 C 66.198 342.530,70.068 346.400,70.186 346.400 C 70.763 346.400,69.788 345.375,61.800 337.586 L 53.200 329.200 61.586 337.800 M77.600 352.250 C 77.600 352.388,78.770 353.558,80.200 354.850 L 82.800 357.200 80.450 354.600 C 78.260 352.176,77.600 351.632,77.600 352.250 M95.147 367.735 C 98.476 370.889,104.053 376.469,107.540 380.135 C 111.027 383.801,112.404 385.000,110.600 382.800 C 107.312 378.789,99.579 371.163,92.747 365.192 C 90.738 363.437,91.818 364.581,95.147 367.735 M277.813 386.200 C 270.767 393.090,271.542 392.434,284.378 380.649 C 285.246 379.852,285.734 379.200,285.464 379.200 C 285.193 379.200,281.750 382.350,277.813 386.200 M262.246 403.800 C 260.836 405.441,259.779 407.200,260.202 407.200 C 260.366 407.200,261.298 406.120,262.274 404.800 C 264.202 402.192,264.184 401.543,262.246 403.800 M256.975 411.400 C 254.055 415.712,253.423 416.800,253.840 416.800 C 254.023 416.800,255.488 414.820,257.095 412.400 C 258.702 409.980,259.850 408.000,259.647 408.000 C 259.443 408.000,258.241 409.530,256.975 411.400 M134.250 417.000 C 135.120 418.430,136.589 421.035,137.516 422.788 C 138.442 424.542,139.200 425.551,139.200 425.031 C 139.200 423.930,133.729 414.400,133.096 414.400 C 132.862 414.400,133.381 415.570,134.250 417.000 M251.016 421.000 C 249.266 423.698,247.697 426.912,248.574 426.000 C 249.696 424.834,252.996 419.200,252.557 419.200 C 252.352 419.200,251.659 420.010,251.016 421.000 M143.227 433.400 C 143.212 433.950,143.560 434.400,144.000 434.400 C 144.440 434.400,144.800 435.120,144.800 436.000 C 144.800 436.880,145.160 437.600,145.600 437.600 C 146.841 437.600,146.551 436.358,144.827 434.289 C 143.961 433.250,143.241 432.850,143.227 433.400 M239.600 441.600 C 238.917 442.920,238.539 444.000,238.759 444.000 C 238.979 444.000,239.717 442.920,240.400 441.600 C 241.083 440.280,241.461 439.200,241.241 439.200 C 241.021 439.200,240.283 440.280,239.600 441.600 M148.780 442.127 C 149.231 442.350,149.600 443.223,149.600 444.067 C 149.600 444.910,149.948 445.600,150.374 445.600 C 151.461 445.600,150.080 442.127,148.904 441.901 C 148.385 441.802,148.329 441.903,148.780 442.127 M228.428 462.069 C 227.682 463.208,227.210 464.277,227.378 464.445 C 227.546 464.613,228.316 463.682,229.087 462.375 C 230.811 459.457,230.297 459.218,228.428 462.069 M225.905 466.600 C 223.151 471.272,222.972 471.671,224.374 470.000 C 225.999 468.064,227.400 465.600,226.875 465.600 C 226.666 465.600,226.229 466.050,225.905 466.600 M211.453 486.057 C 205.283 492.438,204.435 493.878,209.720 489.000 C 212.594 486.348,218.174 479.906,217.467 480.057 C 217.320 480.088,214.614 482.788,211.453 486.057 M204.000 492.667 C 204.000 493.180,203.460 493.600,202.800 493.600 C 202.140 493.600,201.600 493.960,201.600 494.400 C 201.600 495.716,203.789 495.304,204.333 493.885 C 204.611 493.163,204.649 492.383,204.419 492.152 C 204.188 491.922,204.000 492.153,204.000 492.667 " stroke="none" fill="#5e5e60" fill-rule="evenodd"></path><path id="path4" d="M182.261 44.406 C 182.037 44.629,179.367 45.168,176.327 45.604 C 167.224 46.908,155.258 49.617,151.600 51.202 C 150.720 51.583,147.660 52.678,144.800 53.636 C 139.299 55.478,124.171 62.544,120.800 64.847 C 119.700 65.598,117.360 67.013,115.600 67.992 C 98.441 77.534,73.971 102.978,62.507 123.200 C 60.421 126.881,54.562 139.209,52.623 144.000 C 52.178 145.100,51.495 146.625,51.107 147.389 C 50.718 148.153,50.400 149.328,50.400 150.000 C 50.400 150.672,50.084 151.847,49.698 152.611 C 48.531 154.922,47.200 159.608,47.200 161.410 C 47.200 162.342,46.878 163.305,46.485 163.548 C 46.091 163.791,45.542 165.522,45.265 167.395 C 44.988 169.268,44.363 173.140,43.877 176.000 C 42.039 186.803,42.895 225.960,45.152 234.400 C 45.447 235.500,45.998 237.660,46.378 239.200 C 47.737 244.713,48.993 249.226,49.605 250.800 C 49.948 251.680,50.987 254.338,51.914 256.707 C 52.841 259.075,53.606 261.775,53.612 262.707 C 53.621 263.902,53.818 264.095,54.283 263.362 C 55.194 261.925,55.830 262.822,60.409 272.000 C 64.597 280.395,69.266 287.903,75.582 296.400 C 80.169 302.570,81.277 304.793,79.775 304.812 C 79.162 304.820,79.246 305.105,80.000 305.581 C 80.660 305.997,84.080 309.155,87.600 312.599 C 95.140 319.977,107.706 330.401,111.567 332.480 C 112.465 332.964,116.080 335.137,119.600 337.309 C 136.581 347.787,155.823 354.474,179.600 358.160 C 184.789 358.964,215.211 358.964,220.400 358.160 C 236.971 355.591,250.744 351.760,263.000 346.312 C 271.225 342.655,274.387 341.019,280.400 337.309 C 283.920 335.137,287.535 332.964,288.433 332.480 C 292.785 330.136,305.358 319.563,313.200 311.654 C 327.755 296.973,341.005 276.236,347.994 257.200 C 348.963 254.560,350.031 251.680,350.367 250.800 C 351.831 246.969,352.800 243.360,352.800 241.743 C 352.800 240.784,353.173 240.000,353.628 240.000 C 354.175 240.000,354.148 239.424,353.550 238.307 C 352.859 237.016,352.940 234.881,353.892 229.307 C 357.462 208.390,358.245 189.334,356.083 176.000 C 355.619 173.140,355.012 169.268,354.735 167.395 C 354.458 165.522,353.909 163.791,353.515 163.548 C 353.122 163.305,352.800 162.342,352.800 161.410 C 352.800 159.608,351.469 154.922,350.302 152.611 C 349.916 151.847,349.600 150.672,349.600 150.000 C 349.600 149.328,349.282 148.153,348.893 147.389 C 348.505 146.625,347.822 145.100,347.377 144.000 C 343.024 133.245,337.969 123.548,332.395 115.260 C 330.198 111.993,328.040 108.769,327.600 108.094 C 327.160 107.419,326.345 106.371,325.788 105.765 C 325.231 105.158,323.810 103.343,322.630 101.731 C 316.184 92.927,293.942 73.298,284.400 67.992 C 282.640 67.013,280.300 65.598,279.200 64.847 C 276.163 62.772,260.351 55.200,259.057 55.200 C 258.432 55.200,257.578 54.913,257.160 54.563 C 256.742 54.213,254.960 53.469,253.200 52.910 C 251.440 52.352,249.280 51.599,248.400 51.238 C 246.807 50.585,242.135 49.278,236.800 47.994 C 234.119 47.348,231.035 46.761,220.352 44.862 C 215.560 44.010,183.046 43.621,182.261 44.406 M189.129 111.261 C 190.989 113.471,191.200 114.392,191.200 120.283 C 191.200 131.083,186.749 134.979,180.054 130.040 L 177.398 128.080 172.899 130.949 C 167.848 134.170,157.486 140.681,151.916 144.134 C 144.794 148.549,142.876 153.349,146.705 157.177 C 151.071 161.544,158.834 157.915,191.876 136.058 C 205.228 127.226,216.866 120.000,217.738 120.000 C 220.227 120.000,224.000 124.279,224.000 127.101 C 224.000 132.517,223.554 132.895,192.000 154.207 C 178.376 163.409,178.400 163.305,178.400 213.318 C 178.400 262.749,179.298 260.400,160.400 260.400 C 146.457 260.400,139.104 257.545,133.713 250.038 L 131.200 246.538 131.200 197.254 L 131.200 147.971 133.198 144.150 C 136.163 138.478,139.761 135.486,155.146 125.894 C 162.816 121.112,171.996 115.343,175.546 113.074 C 183.385 108.061,186.128 107.695,189.129 111.261 M241.600 133.716 C 244.817 136.389,245.084 148.989,242.001 152.653 C 239.437 155.700,235.664 156.096,232.984 153.600 C 230.464 151.252,230.688 151.148,214.615 162.159 C 203.041 170.088,199.546 172.892,198.693 174.933 C 195.984 181.415,198.476 184.333,206.285 183.825 C 215.135 183.250,217.854 181.519,257.249 151.382 C 267.843 143.277,270.090 142.531,274.483 145.659 L 276.813 147.318 276.606 193.859 L 276.400 240.400 262.000 251.429 C 225.549 279.346,224.407 280.000,212.114 280.000 C 201.522 280.000,196.517 278.465,190.855 273.482 C 183.961 267.413,184.400 271.104,184.400 219.200 L 184.400 173.200 186.654 168.609 C 189.415 162.987,190.467 162.126,215.121 145.313 C 236.052 131.039,237.576 130.371,241.600 133.716 M249.200 191.638 C 229.183 207.294,230.400 205.955,230.400 212.321 C 230.400 219.329,229.688 219.611,247.991 205.344 L 263.200 193.488 263.200 187.544 C 263.200 180.136,264.329 179.806,249.200 191.638 " stroke="none" fill="#9757b1" fill-rule="evenodd"></path><path id="path5" d="M87.579 89.800 L 82.000 95.600 87.800 90.021 C 93.187 84.840,93.965 84.000,93.379 84.000 C 93.257 84.000,90.647 86.610,87.579 89.800 M311.600 89.600 C 314.656 92.680,317.337 95.200,317.557 95.200 C 317.777 95.200,315.456 92.680,312.400 89.600 C 309.344 86.520,306.663 84.000,306.443 84.000 C 306.223 84.000,308.544 86.520,311.600 89.600 M175.546 113.074 C 171.996 115.343,162.816 121.112,155.146 125.894 C 139.761 135.486,136.163 138.478,133.198 144.150 L 131.200 147.971 131.200 197.254 L 131.200 246.538 133.713 250.038 C 139.104 257.545,146.457 260.400,160.400 260.400 C 179.298 260.400,178.400 262.749,178.400 213.318 C 178.400 163.305,178.376 163.409,192.000 154.207 C 223.554 132.895,224.000 132.517,224.000 127.101 C 224.000 124.279,220.227 120.000,217.738 120.000 C 216.866 120.000,205.228 127.226,191.876 136.058 C 158.834 157.915,151.071 161.544,146.705 157.177 C 142.876 153.349,144.794 148.549,151.916 144.134 C 157.486 140.681,167.848 134.170,172.899 130.949 L 177.398 128.080 180.054 130.040 C 186.749 134.979,191.200 131.083,191.200 120.283 C 191.200 108.015,186.699 105.942,175.546 113.074 M188.145 112.022 C 195.396 119.273,187.806 135.518,180.348 128.708 C 177.888 126.461,177.338 126.653,166.031 133.709 C 160.294 137.289,153.800 141.337,151.600 142.706 C 143.852 147.526,141.328 154.128,145.600 158.400 C 150.693 163.493,159.366 159.418,196.948 134.276 C 207.369 127.304,216.559 121.600,217.370 121.600 C 222.054 121.600,224.146 127.964,220.842 132.165 C 219.985 133.254,211.756 139.227,202.554 145.439 C 175.175 163.923,177.330 158.345,176.808 212.078 C 176.461 247.887,176.221 254.372,175.200 255.602 C 170.072 261.780,146.719 260.135,138.394 253.010 C 131.672 247.256,132.000 250.110,132.000 197.331 L 132.000 150.599 133.922 146.254 C 136.372 140.712,139.039 137.566,143.802 134.596 C 145.891 133.293,152.640 129.038,158.800 125.140 C 187.336 107.082,184.481 108.358,188.145 112.022 M215.121 145.313 C 190.467 162.126,189.415 162.987,186.654 168.609 L 184.400 173.200 184.400 219.200 C 184.400 271.104,183.961 267.413,190.855 273.482 C 196.517 278.465,201.522 280.000,212.114 280.000 C 224.407 280.000,225.549 279.346,262.000 251.429 L 276.400 240.400 276.606 193.859 L 276.813 147.318 274.483 145.659 C 270.090 142.531,267.843 143.277,257.249 151.382 C 217.854 181.519,215.135 183.250,206.285 183.825 C 198.476 184.333,195.984 181.415,198.693 174.933 C 199.546 172.892,203.041 170.088,214.615 162.159 C 230.688 151.148,230.464 151.252,232.984 153.600 C 238.762 158.983,244.270 153.490,243.872 142.742 C 243.319 127.774,240.465 128.029,215.121 145.313 M240.292 134.458 C 242.955 136.553,243.526 149.429,241.076 152.137 C 239.292 154.109,235.042 154.035,233.200 152.000 C 230.915 149.475,230.045 149.877,214.454 160.674 C 198.025 172.052,196.725 173.347,196.655 178.414 C 196.582 183.725,199.417 185.875,205.942 185.456 C 214.926 184.879,216.751 183.725,257.200 153.049 C 268.512 144.471,269.449 144.082,273.212 146.407 L 276.000 148.130 275.998 193.465 L 275.997 238.800 269.484 243.947 C 255.676 254.860,229.323 274.298,225.357 276.496 C 213.267 283.196,191.041 277.236,186.823 266.163 C 184.751 260.723,185.340 173.727,187.478 169.428 C 190.219 163.916,191.943 162.547,220.177 143.464 C 237.179 131.973,237.149 131.986,240.292 134.458 M258.319 182.869 C 256.383 184.487,249.462 189.959,242.937 195.030 C 228.713 206.084,228.651 206.166,228.962 213.318 C 229.311 221.343,229.878 221.171,246.800 207.931 C 266.682 192.375,264.903 194.480,264.630 186.842 C 264.353 179.091,263.489 178.547,258.319 182.869 M263.200 187.544 L 263.200 193.488 247.991 205.344 C 229.688 219.611,230.400 219.329,230.400 212.321 C 230.400 205.955,229.183 207.294,249.200 191.638 C 264.329 179.806,263.200 180.136,263.200 187.544 M358.976 215.509 C 358.633 219.860,358.511 223.578,358.706 223.772 C 359.266 224.332,360.160 214.334,359.866 210.800 C 359.705 208.864,359.354 210.724,358.976 215.509 M357.235 228.651 C 356.906 230.989,356.826 233.092,357.058 233.325 C 357.628 233.895,358.662 226.773,358.201 225.450 C 357.999 224.873,357.565 226.313,357.235 228.651 M355.762 236.144 C 355.452 237.323,354.632 238.853,353.942 239.544 C 353.251 240.235,353.063 240.800,353.524 240.800 C 354.806 240.800,356.971 237.062,356.630 235.439 C 356.399 234.346,356.191 234.515,355.762 236.144 M390.200 242.464 C 389.430 242.913,388.800 243.936,388.800 244.738 C 388.800 245.950,384.498 260.996,382.683 266.133 C 382.340 267.103,382.432 267.329,382.955 266.800 C 383.390 266.360,384.548 263.300,385.528 260.000 C 386.508 256.700,387.622 253.100,388.005 252.000 C 388.387 250.900,388.939 248.793,389.231 247.319 C 389.524 245.844,390.446 243.954,391.281 243.119 C 392.930 241.470,392.428 241.166,390.200 242.464 M53.709 265.418 C 53.423 270.196,70.340 297.864,77.793 304.808 C 80.789 307.599,80.723 306.516,77.706 303.371 C 69.973 295.311,55.381 271.807,54.173 265.466 L 53.818 263.600 53.709 265.418 M378.021 277.354 C 375.864 282.456,371.435 291.287,368.178 296.978 C 364.922 302.669,362.409 307.476,362.594 307.661 C 362.780 307.846,363.441 307.012,364.065 305.808 C 364.689 304.604,366.566 301.345,368.236 298.565 C 373.718 289.439,383.117 269.251,382.276 268.410 C 382.093 268.227,380.178 272.252,378.021 277.354 M87.600 313.600 C 89.767 315.800,91.720 317.600,91.940 317.600 C 92.160 317.600,90.567 315.800,88.400 313.600 C 86.233 311.400,84.280 309.600,84.060 309.600 C 83.840 309.600,85.433 311.400,87.600 313.600 M311.570 313.800 L 307.600 318.000 311.800 314.030 C 314.110 311.847,316.000 309.957,316.000 309.830 C 316.000 309.233,315.259 309.897,311.570 313.800 M98.400 322.650 C 98.400 322.788,99.570 323.958,101.000 325.250 L 103.600 327.600 101.250 325.000 C 99.060 322.576,98.400 322.032,98.400 322.650 M298.750 325.000 L 296.400 327.600 299.000 325.250 C 300.430 323.958,301.600 322.788,301.600 322.650 C 301.600 322.032,300.940 322.576,298.750 325.000 M49.993 326.189 C 50.870 326.410,55.370 330.443,59.993 335.149 C 68.393 343.699,71.026 346.134,80.800 354.395 C 83.660 356.812,86.180 358.972,86.400 359.195 C 86.620 359.418,90.205 362.660,94.366 366.400 C 108.404 379.016,116.792 388.804,127.960 405.600 C 133.410 413.796,135.801 416.765,132.792 411.600 C 121.188 391.679,107.419 376.312,79.600 352.231 C 73.440 346.899,64.626 338.725,60.014 334.068 C 54.521 328.521,51.072 325.632,50.014 325.693 C 48.419 325.785,48.419 325.790,49.993 326.189 M104.400 327.714 C 108.473 331.329,109.974 332.383,108.403 330.526 C 107.531 329.495,106.094 328.281,105.209 327.828 C 104.324 327.375,103.960 327.324,104.400 327.714 M292.974 329.400 C 291.061 331.270,291.029 331.362,292.761 330.012 C 296.176 327.352,296.339 327.200,295.773 327.200 C 295.472 327.200,294.212 328.190,292.974 329.400 M111.200 332.839 C 113.975 334.723,115.555 335.271,113.600 333.671 C 112.500 332.772,111.240 332.033,110.800 332.030 C 110.360 332.027,110.540 332.391,111.200 332.839 M286.400 333.671 C 285.072 334.758,284.937 335.030,286.000 334.480 C 288.609 333.132,290.056 332.024,289.200 332.030 C 288.760 332.033,287.500 332.772,286.400 333.671 M118.400 337.159 C 118.400 337.379,119.480 338.117,120.800 338.800 C 122.120 339.483,123.200 339.861,123.200 339.641 C 123.200 339.421,122.120 338.683,120.800 338.000 C 119.480 337.317,118.400 336.939,118.400 337.159 M279.000 338.058 C 276.009 339.680,276.191 340.356,279.200 338.800 C 280.520 338.117,281.600 337.388,281.600 337.179 C 281.600 336.665,281.514 336.694,279.000 338.058 M169.200 356.800 C 170.080 357.178,171.340 357.488,172.000 357.488 C 172.756 357.488,172.609 357.233,171.600 356.800 C 170.720 356.422,169.460 356.112,168.800 356.112 C 168.044 356.112,168.191 356.367,169.200 356.800 M228.400 356.800 C 227.391 357.233,227.244 357.488,228.000 357.488 C 228.660 357.488,229.920 357.178,230.800 356.800 C 231.809 356.367,231.956 356.112,231.200 356.112 C 230.540 356.112,229.280 356.422,228.400 356.800 M179.200 358.400 C 180.300 358.752,181.920 359.041,182.800 359.041 C 184.067 359.041,183.984 358.907,182.400 358.400 C 181.300 358.048,179.680 357.759,178.800 357.759 C 177.533 357.759,177.616 357.893,179.200 358.400 M217.600 358.400 C 216.016 358.907,215.933 359.041,217.200 359.041 C 218.080 359.041,219.700 358.752,220.800 358.400 C 222.384 357.893,222.467 357.759,221.200 357.759 C 220.320 357.759,218.700 358.048,217.600 358.400 M285.600 378.184 C 276.247 384.280,258.258 405.398,252.026 417.600 C 250.287 421.004,252.367 418.331,257.628 410.400 C 266.882 396.451,277.352 384.966,286.733 378.475 C 292.542 374.455,291.667 374.230,285.600 378.184 M134.418 415.640 C 134.428 416.058,135.140 417.300,136.000 418.400 C 136.860 419.500,137.572 420.644,137.582 420.941 C 137.592 421.239,139.310 424.299,141.400 427.741 C 143.490 431.184,146.035 435.710,147.056 437.800 C 148.077 439.890,149.231 441.600,149.620 441.600 C 150.009 441.600,150.564 442.860,150.853 444.400 C 151.142 445.940,151.698 447.200,152.089 447.200 C 152.480 447.200,152.800 447.575,152.800 448.033 C 152.800 448.492,153.520 449.640,154.400 450.584 C 155.280 451.529,156.000 453.234,156.000 454.374 C 156.000 455.529,156.708 456.957,157.600 457.600 C 158.480 458.234,159.200 459.235,159.200 459.824 C 159.200 460.413,159.560 460.672,160.000 460.400 C 160.457 460.118,160.800 460.818,160.800 462.032 C 160.800 463.363,161.698 464.997,163.200 466.400 C 164.520 467.633,165.600 469.218,165.600 469.921 C 165.600 470.624,165.960 471.200,166.400 471.200 C 166.840 471.200,167.200 471.862,167.200 472.672 C 167.200 473.481,168.074 474.541,169.142 475.028 C 170.210 475.514,171.699 477.210,172.452 478.796 C 173.952 481.958,180.221 488.800,181.617 488.800 C 182.100 488.800,182.316 489.088,182.099 489.440 C 181.881 489.792,182.432 490.535,183.322 491.090 C 186.478 493.061,184.139 489.076,179.529 484.627 C 177.120 482.302,174.182 478.892,173.001 477.048 C 171.819 475.204,170.211 473.528,169.426 473.323 C 168.642 473.118,168.000 472.249,168.000 471.392 C 168.000 470.535,167.190 468.954,166.200 467.879 C 165.210 466.804,163.680 464.524,162.800 462.812 C 161.920 461.100,159.850 457.434,158.200 454.664 C 156.550 451.895,155.200 449.262,155.200 448.814 C 155.200 448.367,154.930 447.994,154.600 447.988 C 154.270 447.981,153.119 446.181,152.043 443.988 C 150.966 441.794,149.796 440.000,149.443 440.000 C 149.089 440.000,148.800 439.654,148.800 439.232 C 148.800 438.410,136.339 416.914,135.125 415.640 C 134.667 415.160,134.407 415.160,134.418 415.640 M248.555 423.337 C 242.722 433.510,233.632 450.699,233.929 450.995 C 234.117 451.183,234.710 450.496,235.247 449.469 C 236.432 447.199,241.318 438.217,247.794 426.400 C 248.879 424.420,250.141 422.341,250.598 421.781 C 251.054 421.220,251.228 420.562,250.985 420.318 C 250.741 420.074,249.648 421.433,248.555 423.337 M228.519 459.996 C 217.415 479.798,206.929 491.917,200.032 492.922 C 197.347 493.313,196.934 495.200,199.533 495.200 C 200.670 495.200,201.600 494.840,201.600 494.400 C 201.600 493.960,201.925 493.600,202.323 493.600 C 202.997 493.600,207.450 490.010,210.334 487.141 C 215.654 481.850,221.360 474.259,225.671 466.737 C 230.809 457.775,233.585 452.519,233.321 452.254 C 233.159 452.092,230.998 455.576,228.519 459.996 M186.912 491.755 C 186.011 492.656,186.363 493.600,187.600 493.600 C 188.260 493.600,188.800 493.261,188.800 492.847 C 188.800 491.838,187.551 491.116,186.912 491.755 M190.000 494.400 C 190.272 494.840,191.193 495.200,192.047 495.200 C 192.901 495.200,193.600 494.840,193.600 494.400 C 193.600 493.960,192.679 493.600,191.553 493.600 C 190.392 493.600,189.720 493.946,190.000 494.400 " stroke="none" fill="#c4bdc7" fill-rule="evenodd"></path></g></svg>