<svg id="svg" version="1.1" width="500" height="630" xmlns="http://www.w3.org/2000/svg" xmlns:xlink="http://www.w3.org/1999/xlink" style="display: block;"><g id="svgg"><path id="path0" d="M173.600 6.400 C 173.600 6.851,171.349 7.200,168.447 7.200 C 165.613 7.200,163.072 7.560,162.800 8.000 C 162.528 8.440,160.728 8.800,158.800 8.800 C 156.872 8.800,155.072 9.160,154.800 9.600 C 154.528 10.040,153.247 10.400,151.953 10.400 C 150.659 10.400,149.600 10.760,149.600 11.200 C 149.600 11.640,148.160 12.000,146.400 12.000 C 144.640 12.000,143.200 12.360,143.200 12.800 C 143.200 13.240,142.120 13.600,140.800 13.600 C 139.480 13.600,138.400 13.960,138.400 14.400 C 138.400 14.840,137.320 15.200,136.000 15.200 C 134.680 15.200,133.600 15.560,133.600 16.000 C 133.600 16.440,132.901 16.800,132.047 16.800 C 131.193 16.800,130.272 17.160,130.000 17.600 C 129.728 18.040,128.627 18.400,127.553 18.400 C 126.479 18.400,125.600 18.760,125.600 19.200 C 125.600 19.640,124.520 20.000,123.200 20.000 C 121.880 20.000,120.800 20.360,120.800 20.800 C 120.800 21.240,120.080 21.600,119.200 21.600 C 118.320 21.600,117.600 21.960,117.600 22.400 C 117.600 22.840,116.880 23.200,116.000 23.200 C 115.120 23.200,114.400 23.560,114.400 24.000 C 114.400 24.440,113.680 24.800,112.800 24.800 C 111.920 24.800,111.200 25.160,111.200 25.600 C 111.200 26.040,110.480 26.400,109.600 26.400 C 108.720 26.400,108.000 26.760,108.000 27.200 C 108.000 27.640,107.280 28.000,106.400 28.000 C 105.520 28.000,104.800 28.360,104.800 28.800 C 104.800 29.240,104.328 29.600,103.751 29.600 C 103.174 29.600,101.929 30.320,100.984 31.200 C 100.040 32.080,98.791 32.800,98.210 32.800 C 97.629 32.800,96.634 33.520,96.000 34.400 C 95.366 35.280,94.206 36.000,93.423 36.000 C 92.641 36.000,92.000 36.360,92.000 36.800 C 92.000 37.240,91.424 37.600,90.721 37.600 C 90.018 37.600,88.433 38.680,87.200 40.000 C 85.967 41.320,84.527 42.400,84.000 42.400 C 83.473 42.400,82.033 43.480,80.800 44.800 C 79.567 46.120,78.165 47.200,77.685 47.200 C 77.205 47.200,74.261 49.720,71.144 52.800 C 68.028 55.880,65.136 58.400,64.718 58.400 C 63.728 58.400,56.800 65.328,56.800 66.318 C 56.800 66.736,54.280 69.628,51.200 72.744 C 48.120 75.861,45.600 78.805,45.600 79.285 C 45.600 79.765,44.520 81.167,43.200 82.400 C 41.880 83.633,40.800 85.073,40.800 85.600 C 40.800 86.127,39.720 87.567,38.400 88.800 C 37.080 90.033,36.000 91.618,36.000 92.321 C 36.000 93.024,35.640 93.600,35.200 93.600 C 34.760 93.600,34.400 94.241,34.400 95.023 C 34.400 95.806,33.680 96.966,32.800 97.600 C 31.920 98.234,31.200 99.394,31.200 100.177 C 31.200 100.959,30.840 101.600,30.400 101.600 C 29.960 101.600,29.600 102.241,29.600 103.023 C 29.600 103.806,28.880 104.966,28.000 105.600 C 27.120 106.234,26.400 107.394,26.400 108.177 C 26.400 108.959,26.040 109.600,25.600 109.600 C 25.160 109.600,24.800 110.320,24.800 111.200 C 24.800 112.080,24.440 112.800,24.000 112.800 C 23.560 112.800,23.200 113.520,23.200 114.400 C 23.200 115.280,22.840 116.000,22.400 116.000 C 21.960 116.000,21.600 116.529,21.600 117.176 C 21.600 117.822,20.880 119.633,20.000 121.200 C 19.120 122.767,18.400 124.758,18.400 125.624 C 18.400 126.491,18.040 127.200,17.600 127.200 C 17.160 127.200,16.800 128.280,16.800 129.600 C 16.800 130.920,16.440 132.000,16.000 132.000 C 15.560 132.000,15.200 132.699,15.200 133.553 C 15.200 134.407,14.840 135.328,14.400 135.600 C 13.960 135.872,13.600 136.973,13.600 138.047 C 13.600 139.121,13.240 140.000,12.800 140.000 C 12.360 140.000,12.000 141.059,12.000 142.353 C 12.000 143.647,11.640 144.928,11.200 145.200 C 10.760 145.472,10.400 146.933,10.400 148.447 C 10.400 149.961,10.040 151.200,9.600 151.200 C 9.160 151.200,8.800 152.640,8.800 154.400 C 8.800 156.160,8.440 157.600,8.000 157.600 C 7.560 157.600,7.200 159.400,7.200 161.600 C 7.200 163.800,6.840 165.600,6.400 165.600 C 5.943 165.600,5.600 168.000,5.600 171.200 C 5.600 174.400,5.257 176.800,4.800 176.800 C 3.705 176.800,3.705 223.724,4.800 224.400 C 5.240 224.672,5.600 227.192,5.600 230.000 C 5.600 232.808,5.960 235.328,6.400 235.600 C 6.840 235.872,7.200 237.492,7.200 239.200 C 7.200 240.908,7.560 242.528,8.000 242.800 C 8.440 243.072,8.800 244.692,8.800 246.400 C 8.800 248.108,9.160 249.728,9.600 250.000 C 10.040 250.272,10.400 251.532,10.400 252.800 C 10.400 254.068,10.760 255.328,11.200 255.600 C 11.640 255.872,12.000 256.952,12.000 258.000 C 12.000 259.048,12.360 260.128,12.800 260.400 C 13.240 260.672,13.600 261.932,13.600 263.200 C 13.600 264.468,13.960 265.728,14.400 266.000 C 14.840 266.272,15.200 267.193,15.200 268.047 C 15.200 268.901,15.560 269.600,16.000 269.600 C 16.440 269.600,16.800 270.680,16.800 272.000 C 16.800 273.320,17.160 274.400,17.600 274.400 C 18.040 274.400,18.400 275.120,18.400 276.000 C 18.400 276.880,18.760 277.600,19.200 277.600 C 19.640 277.600,20.000 278.320,20.000 279.200 C 20.000 280.080,20.360 280.800,20.800 280.800 C 21.240 280.800,21.608 281.610,21.618 282.600 C 21.628 283.590,22.340 285.300,23.200 286.400 C 24.060 287.500,24.772 288.962,24.782 289.649 C 24.792 290.336,25.520 291.671,26.400 292.616 C 27.280 293.560,28.000 294.888,28.000 295.567 C 28.000 296.245,28.360 296.800,28.800 296.800 C 29.240 296.800,29.600 297.520,29.600 298.400 C 29.600 299.280,29.960 300.000,30.400 300.000 C 30.840 300.000,31.200 300.472,31.200 301.049 C 31.200 301.626,31.920 302.871,32.800 303.816 C 33.680 304.760,34.400 306.009,34.400 306.590 C 34.400 307.171,35.120 308.166,36.000 308.800 C 36.880 309.434,37.600 310.449,37.600 311.056 C 37.600 311.662,38.680 313.167,40.000 314.400 C 41.320 315.633,42.400 317.073,42.400 317.600 C 42.400 318.127,43.390 319.523,44.600 320.703 C 45.810 321.883,47.178 323.525,47.641 324.351 C 48.103 325.177,49.304 325.979,50.310 326.132 C 51.349 326.291,55.815 330.150,60.669 335.084 C 65.361 339.855,71.900 346.062,75.200 348.878 C 78.500 351.694,81.380 354.179,81.600 354.399 C 81.820 354.620,84.700 357.124,88.000 359.965 C 104.555 374.216,116.149 387.117,127.138 403.518 C 132.288 411.204,139.200 422.267,139.200 422.823 C 139.200 422.966,141.000 426.015,143.200 429.600 C 145.400 433.185,147.200 436.305,147.200 436.535 C 147.200 436.765,147.877 437.909,148.705 439.077 C 150.937 442.224,154.405 448.200,154.928 449.800 C 155.180 450.570,155.705 451.200,156.093 451.200 C 156.482 451.200,156.800 451.848,156.800 452.640 C 156.800 453.432,157.232 454.512,157.760 455.040 C 158.288 455.568,158.449 456.000,158.119 456.000 C 157.788 456.000,158.389 456.810,159.454 457.800 C 160.519 458.790,161.646 460.770,161.959 462.200 C 162.271 463.630,162.859 464.800,163.264 464.800 C 163.669 464.800,164.000 465.340,164.000 466.000 C 164.000 466.660,164.524 467.200,165.164 467.200 C 165.858 467.200,166.537 468.318,166.848 469.973 C 167.156 471.614,167.950 472.930,168.795 473.198 C 169.579 473.447,171.121 474.990,172.222 476.626 C 173.322 478.261,175.522 481.040,177.111 482.800 C 178.699 484.560,179.999 486.212,179.999 486.472 C 180.000 486.731,180.935 487.369,182.078 487.890 C 183.463 488.521,183.998 489.251,183.681 490.078 C 183.419 490.761,183.805 491.919,184.538 492.652 C 185.508 493.622,185.962 493.715,186.202 492.993 C 186.716 491.451,188.000 491.824,188.000 493.514 C 188.000 495.506,197.022 495.892,198.932 493.983 C 199.582 493.332,200.809 492.800,201.657 492.800 C 202.506 492.800,203.200 492.440,203.200 492.000 C 203.200 491.560,203.676 491.200,204.259 491.200 C 206.653 491.200,220.201 475.877,223.322 469.640 C 223.883 468.518,224.930 466.700,225.648 465.600 C 226.932 463.634,229.216 459.496,236.027 446.800 C 260.857 400.517,276.599 381.010,295.800 372.731 C 297.230 372.114,298.400 371.337,298.400 371.005 C 298.400 370.672,298.887 370.400,299.481 370.400 C 300.076 370.400,301.693 369.320,303.074 368.000 C 304.455 366.680,305.952 365.600,306.400 365.600 C 306.848 365.600,308.345 364.520,309.726 363.200 C 311.107 361.880,312.644 360.800,313.142 360.800 C 313.640 360.800,314.566 360.080,315.200 359.200 C 315.834 358.320,316.842 357.600,317.439 357.600 C 318.037 357.600,319.909 356.160,321.600 354.400 C 323.291 352.640,325.075 351.200,325.565 351.200 C 326.893 351.200,352.800 324.908,352.800 323.560 C 352.800 322.922,353.099 322.400,353.465 322.400 C 353.830 322.400,354.640 321.410,355.264 320.200 C 355.887 318.990,356.617 317.820,356.885 317.600 C 357.153 317.380,359.758 312.814,362.675 307.454 C 365.592 302.094,368.991 295.974,370.228 293.854 C 377.346 281.666,388.800 252.026,388.800 245.796 C 388.800 244.802,389.670 243.467,390.800 242.726 C 392.270 241.763,392.800 240.711,392.800 238.755 C 392.800 237.292,393.160 235.872,393.600 235.600 C 394.040 235.328,394.400 232.808,394.400 230.000 C 394.400 227.192,394.760 224.672,395.200 224.400 C 396.295 223.724,396.295 176.800,395.200 176.800 C 394.743 176.800,394.400 174.400,394.400 171.200 C 394.400 168.000,394.057 165.600,393.600 165.600 C 393.160 165.600,392.800 163.800,392.800 161.600 C 392.800 159.400,392.440 157.600,392.000 157.600 C 391.560 157.600,391.200 156.160,391.200 154.400 C 391.200 152.640,390.840 151.200,390.400 151.200 C 389.960 151.200,389.600 149.961,389.600 148.447 C 389.600 146.933,389.240 145.472,388.800 145.200 C 388.360 144.928,388.000 143.647,388.000 142.353 C 388.000 141.059,387.640 140.000,387.200 140.000 C 386.760 140.000,386.400 139.121,386.400 138.047 C 386.400 136.973,386.040 135.872,385.600 135.600 C 385.160 135.328,384.800 134.407,384.800 133.553 C 384.800 132.699,384.440 132.000,384.000 132.000 C 383.560 132.000,383.200 130.920,383.200 129.600 C 383.200 128.280,382.840 127.200,382.400 127.200 C 381.960 127.200,381.600 126.491,381.600 125.624 C 381.600 124.758,380.880 122.767,380.000 121.200 C 379.120 119.633,378.400 117.822,378.400 117.176 C 378.400 116.529,378.040 116.000,377.600 116.000 C 377.160 116.000,376.800 115.280,376.800 114.400 C 376.800 113.520,376.440 112.800,376.000 112.800 C 375.560 112.800,375.200 112.080,375.200 111.200 C 375.200 110.320,374.840 109.600,374.400 109.600 C 373.960 109.600,373.600 108.959,373.600 108.177 C 373.600 107.394,372.880 106.234,372.000 105.600 C 371.120 104.966,370.400 103.806,370.400 103.023 C 370.400 102.241,370.040 101.600,369.600 101.600 C 369.160 101.600,368.800 100.959,368.800 100.177 C 368.800 99.394,368.080 98.234,367.200 97.600 C 366.320 96.966,365.600 95.806,365.600 95.023 C 365.600 94.241,365.240 93.600,364.800 93.600 C 364.360 93.600,364.000 93.024,364.000 92.321 C 364.000 91.618,362.920 90.033,361.600 88.800 C 360.280 87.567,359.200 86.127,359.200 85.600 C 359.200 85.073,358.120 83.633,356.800 82.400 C 355.480 81.167,354.400 79.745,354.400 79.240 C 354.400 78.736,351.880 75.838,348.800 72.800 C 345.720 69.762,343.200 66.890,343.200 66.418 C 343.200 65.298,336.302 58.400,335.182 58.400 C 334.710 58.400,331.838 55.880,328.800 52.800 C 325.762 49.720,322.864 47.200,322.360 47.200 C 321.855 47.200,320.433 46.120,319.200 44.800 C 317.967 43.480,316.527 42.400,316.000 42.400 C 315.473 42.400,314.033 41.320,312.800 40.000 C 311.567 38.680,309.982 37.600,309.279 37.600 C 308.576 37.600,308.000 37.240,308.000 36.800 C 308.000 36.360,307.359 36.000,306.577 36.000 C 305.794 36.000,304.634 35.280,304.000 34.400 C 303.366 33.520,302.371 32.800,301.790 32.800 C 301.209 32.800,299.960 32.080,299.016 31.200 C 298.071 30.320,296.826 29.600,296.249 29.600 C 295.672 29.600,295.200 29.240,295.200 28.800 C 295.200 28.360,294.480 28.000,293.600 28.000 C 292.720 28.000,292.000 27.640,292.000 27.200 C 292.000 26.760,291.280 26.400,290.400 26.400 C 289.520 26.400,288.800 26.040,288.800 25.600 C 288.800 25.160,288.080 24.800,287.200 24.800 C 286.320 24.800,285.600 24.440,285.600 24.000 C 285.600 23.560,284.880 23.200,284.000 23.200 C 283.120 23.200,282.400 22.840,282.400 22.400 C 282.400 21.960,281.680 21.600,280.800 21.600 C 279.920 21.600,279.200 21.240,279.200 20.800 C 279.200 20.360,278.120 20.000,276.800 20.000 C 275.480 20.000,274.400 19.640,274.400 19.200 C 274.400 18.760,273.521 18.400,272.447 18.400 C 271.373 18.400,270.272 18.040,270.000 17.600 C 269.728 17.160,268.807 16.800,267.953 16.800 C 267.099 16.800,266.400 16.440,266.400 16.000 C 266.400 15.560,265.320 15.200,264.000 15.200 C 262.680 15.200,261.600 14.840,261.600 14.400 C 261.600 13.960,260.520 13.600,259.200 13.600 C 257.880 13.600,256.800 13.240,256.800 12.800 C 256.800 12.360,255.360 12.000,253.600 12.000 C 251.840 12.000,250.400 11.640,250.400 11.200 C 250.400 10.760,249.341 10.400,248.047 10.400 C 246.753 10.400,245.472 10.040,245.200 9.600 C 244.928 9.160,243.128 8.800,241.200 8.800 C 239.272 8.800,237.472 8.440,237.200 8.000 C 236.928 7.560,234.387 7.200,231.553 7.200 C 228.651 7.200,226.400 6.851,226.400 6.400 C 226.400 5.883,217.067 5.600,200.000 5.600 C 182.933 5.600,173.600 5.883,173.600 6.400 M226.000 45.467 C 232.045 46.522,237.203 47.647,240.800 48.695 C 242.340 49.143,244.860 49.849,246.400 50.263 C 249.351 51.056,251.361 51.725,254.000 52.792 C 254.880 53.148,256.860 53.888,258.400 54.436 C 262.897 56.039,277.714 63.301,281.200 65.610 C 282.960 66.776,284.942 67.926,285.605 68.166 C 287.096 68.704,299.697 78.170,304.246 82.170 C 314.799 91.449,328.827 107.802,333.608 116.400 C 334.587 118.160,336.012 120.500,336.775 121.600 C 338.106 123.518,345.737 139.046,347.391 143.200 C 347.828 144.300,348.505 145.825,348.893 146.589 C 349.282 147.353,349.600 148.682,349.600 149.542 C 349.600 150.402,349.960 151.328,350.400 151.600 C 350.840 151.872,351.200 152.952,351.200 154.000 C 351.200 155.048,351.560 156.128,352.000 156.400 C 352.440 156.672,352.800 158.112,352.800 159.600 C 352.800 161.088,353.122 162.505,353.515 162.748 C 353.909 162.991,354.439 164.542,354.692 166.195 C 354.946 167.848,355.559 171.540,356.055 174.400 C 356.551 177.260,357.122 184.249,357.324 189.931 C 357.581 197.130,358.042 200.761,358.846 201.909 C 360.195 203.834,360.406 213.395,359.247 220.067 C 358.833 222.450,358.070 227.100,357.552 230.400 C 356.553 236.762,355.643 239.200,353.883 240.240 C 353.287 240.592,352.800 241.646,352.800 242.583 C 352.800 244.162,351.831 247.759,350.370 251.600 C 350.035 252.480,349.329 254.460,348.800 256.000 C 347.226 260.583,346.777 261.610,342.333 270.800 C 339.993 275.640,337.131 281.040,335.974 282.800 C 334.816 284.560,333.674 286.542,333.434 287.205 C 332.238 290.523,319.486 306.152,311.574 314.000 C 300.649 324.836,283.093 337.378,270.800 343.129 C 261.247 347.598,258.410 348.812,254.718 350.010 C 252.563 350.709,250.080 351.581,249.200 351.949 C 246.689 352.998,237.286 355.440,230.800 356.727 C 220.549 358.761,215.084 359.200,200.000 359.200 C 184.916 359.200,179.451 358.761,169.200 356.727 C 162.714 355.440,153.311 352.998,150.800 351.949 C 149.920 351.581,147.437 350.709,145.282 350.010 C 141.590 348.812,138.753 347.598,129.200 343.129 C 115.651 336.790,98.057 323.922,86.270 311.730 C 83.339 308.698,80.128 305.808,79.136 305.309 C 73.510 302.476,54.940 272.748,53.862 264.850 C 53.648 263.282,53.177 261.280,52.817 260.400 C 52.456 259.520,51.729 257.540,51.200 256.000 C 50.671 254.460,49.965 252.480,49.630 251.600 C 48.171 247.764,47.200 244.163,47.200 242.590 C 47.200 241.658,46.840 240.672,46.400 240.400 C 45.960 240.128,45.600 238.559,45.600 236.913 C 45.600 235.267,45.272 233.578,44.870 233.160 C 42.884 231.091,42.121 184.356,43.912 174.400 C 44.426 171.540,45.054 167.848,45.308 166.195 C 45.561 164.542,46.091 162.991,46.485 162.748 C 46.878 162.505,47.200 161.088,47.200 159.600 C 47.200 158.112,47.560 156.672,48.000 156.400 C 48.440 156.128,48.800 155.048,48.800 154.000 C 48.800 152.952,49.160 151.872,49.600 151.600 C 50.040 151.328,50.400 150.402,50.400 149.542 C 50.400 148.682,50.718 147.353,51.107 146.589 C 51.495 145.825,52.172 144.300,52.609 143.200 C 54.263 139.046,61.894 123.518,63.225 121.600 C 63.988 120.500,65.413 118.160,66.392 116.400 C 71.173 107.802,85.201 91.449,95.754 82.170 C 100.303 78.170,112.904 68.704,114.395 68.166 C 115.058 67.926,117.040 66.776,118.800 65.610 C 122.707 63.021,137.607 55.772,142.000 54.322 C 143.760 53.741,145.560 53.046,146.000 52.777 C 146.440 52.508,148.420 51.822,150.400 51.251 C 152.380 50.681,154.900 49.938,156.000 49.600 C 162.450 47.618,171.677 45.608,174.611 45.544 C 176.035 45.513,177.920 45.169,178.800 44.781 C 180.936 43.837,219.911 44.403,226.000 45.467 M178.800 109.928 C 164.122 113.257,152.000 128.503,152.000 143.635 C 152.000 146.863,150.386 148.731,147.557 148.775 C 139.060 148.906,128.737 165.020,131.556 173.752 C 133.690 180.365,136.495 184.524,141.130 187.948 L 145.392 191.097 144.262 195.349 C 140.349 210.065,150.611 222.400,166.768 222.400 L 174.400 222.400 174.400 238.400 L 174.400 254.400 183.200 254.400 L 192.000 254.400 192.000 238.038 L 192.000 221.675 194.600 220.436 C 196.030 219.754,199.141 217.724,201.514 215.924 C 205.186 213.139,206.229 212.722,208.514 213.126 C 217.117 214.645,217.043 214.645,218.135 213.150 C 218.721 212.349,219.211 210.773,219.225 209.647 C 219.276 205.564,221.045 204.457,227.774 204.297 C 234.653 204.134,235.389 203.628,236.906 198.025 C 238.756 191.190,236.438 181.212,232.085 177.276 C 231.158 176.438,230.400 175.144,230.400 174.400 C 230.400 173.656,231.158 172.362,232.085 171.524 C 242.674 161.948,236.382 138.676,222.400 135.701 C 221.300 135.467,218.974 134.984,217.232 134.629 C 214.311 134.034,213.851 133.557,211.350 128.529 C 207.338 120.462,200.399 113.837,193.200 111.200 C 190.956 110.378,184.097 108.777,183.389 108.910 C 183.065 108.971,181.000 109.429,178.800 109.928 M240.000 117.225 C 240.000 118.453,240.551 119.423,241.400 119.690 C 250.013 122.397,253.669 124.723,256.525 129.313 C 257.387 130.699,257.651 130.596,260.416 127.800 C 263.365 124.817,265.094 124.302,271.200 124.586 C 275.275 124.775,276.919 124.047,276.652 122.172 C 276.320 119.837,266.222 119.143,261.966 121.163 C 258.777 122.676,257.265 122.724,256.123 121.349 C 255.643 120.770,253.349 119.469,251.025 118.457 C 248.701 117.446,246.175 116.299,245.411 115.909 C 242.518 114.433,240.000 115.045,240.000 117.225 M224.447 209.800 C 224.280 210.350,223.345 215.840,222.370 222.000 C 220.238 235.455,220.461 235.200,210.846 235.200 L 203.597 235.200 199.317 248.410 C 195.328 260.723,194.722 264.559,196.881 263.840 C 197.638 263.587,198.963 259.942,204.095 244.000 C 205.641 239.198,206.850 238.400,212.577 238.400 C 219.939 238.400,220.049 238.518,223.928 250.546 C 227.807 262.574,228.143 263.381,229.457 263.819 C 230.990 264.330,230.556 261.060,228.114 253.695 C 222.605 237.083,221.863 238.429,236.535 238.412 C 250.143 238.396,251.027 238.809,248.854 244.162 C 245.922 251.388,243.032 262.552,243.876 263.396 C 245.348 264.868,246.016 263.541,249.605 252.000 C 251.453 246.060,253.523 240.570,254.206 239.800 C 255.719 238.095,265.303 237.805,267.424 239.400 C 268.655 240.326,275.200 258.582,275.200 261.091 C 275.200 263.024,277.416 264.348,278.770 263.225 C 279.771 262.394,279.782 262.003,278.841 260.527 C 278.236 259.577,276.044 253.449,273.970 246.909 L 270.198 235.018 272.214 222.509 C 273.323 215.629,274.068 209.730,273.868 209.400 C 273.194 208.285,224.787 208.677,224.447 209.800 M267.423 228.863 C 267.975 229.740,267.876 230.840,267.099 232.463 L 265.979 234.800 245.688 235.014 C 222.498 235.258,220.076 234.458,225.019 228.187 C 226.331 226.522,266.349 227.160,267.423 228.863 " stroke="none" fill="#ffffff" fill-rule="evenodd"></path><path id="path1" d="" stroke="none" fill="#37a29a" fill-rule="evenodd"></path><path id="path2" d="M179.000 44.551 C 175.986 45.339,177.833 46.399,182.200 46.389 C 187.376 46.377,190.400 45.756,190.400 44.707 C 190.400 43.994,181.594 43.874,179.000 44.551 M209.600 44.707 C 209.600 45.756,212.624 46.377,217.800 46.389 C 222.438 46.400,223.929 45.396,220.600 44.504 C 217.826 43.761,209.600 43.912,209.600 44.707 M167.600 46.568 C 162.892 47.694,158.270 48.903,156.000 49.600 C 154.900 49.938,152.380 50.681,150.400 51.251 C 148.420 51.822,146.440 52.508,146.000 52.777 C 145.560 53.046,143.760 53.741,142.000 54.322 C 137.607 55.772,122.707 63.021,118.800 65.610 C 117.040 66.776,115.058 67.926,114.395 68.166 C 112.904 68.704,100.303 78.170,95.754 82.170 C 85.201 91.449,71.173 107.802,66.392 116.400 C 65.413 118.160,63.988 120.500,63.225 121.600 C 61.894 123.518,54.263 139.046,52.609 143.200 C 52.172 144.300,51.495 145.825,51.107 146.589 C 50.718 147.353,50.400 148.682,50.400 149.542 C 50.400 150.402,50.040 151.328,49.600 151.600 C 49.160 151.872,48.800 152.952,48.800 154.000 C 48.800 155.048,48.440 156.128,48.000 156.400 C 47.560 156.672,47.200 158.112,47.200 159.600 C 47.200 161.088,46.878 162.505,46.485 162.748 C 44.974 163.681,43.454 177.914,44.916 177.432 C 45.583 177.212,46.095 175.560,46.248 173.137 C 46.384 170.972,46.834 168.858,47.248 168.440 C 47.662 168.022,48.000 166.513,48.000 165.087 C 48.000 163.661,48.360 162.272,48.800 162.000 C 49.240 161.728,49.600 160.468,49.600 159.200 C 49.600 157.932,49.960 156.672,50.400 156.400 C 50.840 156.128,51.200 155.048,51.200 154.000 C 51.200 152.952,51.560 151.872,52.000 151.600 C 52.440 151.328,52.800 150.402,52.800 149.542 C 52.800 148.682,53.118 147.353,53.507 146.589 C 53.895 145.825,54.577 144.300,55.021 143.200 C 59.076 133.162,71.278 111.440,74.345 108.800 C 74.600 108.580,75.864 106.960,77.154 105.200 C 80.439 100.716,98.505 82.572,103.038 79.205 C 105.107 77.668,106.980 76.201,107.200 75.945 C 109.835 72.881,131.561 60.677,141.600 56.621 C 142.700 56.177,144.225 55.495,144.989 55.107 C 145.753 54.718,147.082 54.400,147.942 54.400 C 148.802 54.400,149.728 54.040,150.000 53.600 C 150.272 53.160,151.352 52.800,152.400 52.800 C 153.448 52.800,154.528 52.440,154.800 52.000 C 155.072 51.560,156.332 51.200,157.600 51.200 C 158.868 51.200,160.128 50.840,160.400 50.400 C 160.672 49.960,162.061 49.600,163.487 49.600 C 164.913 49.600,166.422 49.262,166.840 48.848 C 167.258 48.434,169.372 47.984,171.537 47.848 C 173.784 47.707,175.616 47.171,175.804 46.600 C 176.193 45.419,172.464 45.404,167.600 46.568 M224.166 46.512 C 224.388 47.184,226.032 47.695,228.463 47.848 C 230.628 47.984,232.742 48.434,233.160 48.848 C 233.578 49.262,235.087 49.600,236.513 49.600 C 237.939 49.600,239.328 49.960,239.600 50.400 C 239.872 50.840,241.132 51.200,242.400 51.200 C 243.668 51.200,244.928 51.560,245.200 52.000 C 245.472 52.440,246.552 52.800,247.600 52.800 C 248.648 52.800,249.728 53.160,250.000 53.600 C 250.272 54.040,251.198 54.400,252.058 54.400 C 252.918 54.400,254.247 54.718,255.011 55.107 C 255.775 55.495,257.300 56.177,258.400 56.621 C 268.439 60.677,290.165 72.881,292.800 75.945 C 293.020 76.201,294.893 77.668,296.962 79.205 C 301.495 82.572,319.561 100.716,322.846 105.200 C 324.136 106.960,325.400 108.580,325.655 108.800 C 328.722 111.440,340.924 133.162,344.979 143.200 C 345.423 144.300,346.105 145.825,346.493 146.589 C 346.882 147.353,347.200 148.682,347.200 149.542 C 347.200 150.402,347.560 151.328,348.000 151.600 C 348.440 151.872,348.800 152.952,348.800 154.000 C 348.800 155.048,349.160 156.128,349.600 156.400 C 350.040 156.672,350.400 157.932,350.400 159.200 C 350.400 160.468,350.760 161.728,351.200 162.000 C 351.640 162.272,352.000 163.661,352.000 165.087 C 352.000 166.513,352.338 168.022,352.752 168.440 C 353.166 168.858,353.616 170.972,353.752 173.137 C 353.905 175.560,354.417 177.212,355.084 177.432 C 356.546 177.914,355.026 163.681,353.515 162.748 C 353.122 162.505,352.800 161.088,352.800 159.600 C 352.800 158.112,352.440 156.672,352.000 156.400 C 351.560 156.128,351.200 155.048,351.200 154.000 C 351.200 152.952,350.840 151.872,350.400 151.600 C 349.960 151.328,349.600 150.402,349.600 149.542 C 349.600 148.682,349.282 147.353,348.893 146.589 C 348.505 145.825,347.828 144.300,347.391 143.200 C 345.737 139.046,338.106 123.518,336.775 121.600 C 336.012 120.500,334.587 118.160,333.608 116.400 C 328.827 107.802,314.799 91.449,304.246 82.170 C 299.697 78.170,287.096 68.704,285.605 68.166 C 284.942 67.926,282.960 66.776,281.200 65.610 C 277.714 63.301,262.897 56.039,258.400 54.436 C 256.860 53.888,254.880 53.148,254.000 52.792 C 251.506 51.784,249.407 51.073,246.800 50.353 C 245.480 49.988,242.960 49.283,241.200 48.785 C 231.369 46.003,223.660 44.974,224.166 46.512 M170.747 111.195 C 159.575 116.615,151.067 129.693,150.208 142.767 C 150.010 145.780,149.809 146.002,146.064 147.337 C 127.490 153.960,123.789 177.826,139.608 188.976 C 142.976 191.350,143.204 191.728,142.626 193.972 C 138.510 209.940,149.653 224.000,166.423 224.000 L 172.800 224.000 172.800 240.024 L 172.800 256.048 183.000 255.824 L 193.200 255.600 193.416 239.118 L 193.632 222.635 197.045 220.880 C 198.922 219.914,201.632 218.028,203.065 216.688 C 205.589 214.329,205.831 214.271,210.636 214.870 C 218.818 215.889,220.800 215.100,220.800 210.826 C 220.800 206.961,222.831 205.600,228.598 205.600 C 235.060 205.600,235.758 205.243,237.723 200.931 C 241.257 193.172,240.350 185.400,235.100 178.463 L 232.025 174.400 235.043 170.412 C 245.745 156.272,236.763 135.937,218.571 133.118 C 215.528 132.646,214.972 132.216,213.630 129.293 C 208.302 117.698,195.714 107.897,187.535 108.975 C 185.341 109.265,185.393 109.320,188.400 109.899 C 191.410 110.479,192.707 110.930,197.600 113.102 C 201.266 114.729,208.553 122.904,211.350 128.529 C 213.851 133.557,214.311 134.034,217.232 134.629 C 218.974 134.984,221.300 135.467,222.400 135.701 C 236.382 138.676,242.674 161.948,232.085 171.524 C 231.158 172.362,230.400 173.656,230.400 174.400 C 230.400 175.144,231.158 176.438,232.085 177.276 C 236.438 181.212,238.756 191.190,236.906 198.025 C 235.389 203.628,234.653 204.134,227.774 204.297 C 221.045 204.457,219.276 205.564,219.225 209.647 C 219.211 210.773,218.721 212.349,218.135 213.150 C 217.043 214.645,217.117 214.645,208.514 213.126 C 206.229 212.722,205.186 213.139,201.514 215.924 C 199.141 217.724,196.030 219.754,194.600 220.436 L 192.000 221.675 192.000 238.038 L 192.000 254.400 183.200 254.400 L 174.400 254.400 174.400 238.400 L 174.400 222.400 166.768 222.400 C 150.611 222.400,140.349 210.065,144.262 195.349 L 145.392 191.097 141.130 187.948 C 136.495 184.524,133.690 180.365,131.556 173.752 C 128.737 165.020,139.060 148.906,147.557 148.775 C 150.386 148.731,152.000 146.863,152.000 143.635 C 152.000 128.441,164.386 113.025,179.200 109.781 L 182.800 108.992 179.200 108.917 C 176.730 108.865,174.076 109.580,170.747 111.195 M238.852 115.143 C 237.998 116.086,237.650 117.296,237.954 118.257 C 238.423 119.733,239.288 120.204,245.800 122.528 C 249.109 123.709,253.596 126.990,253.612 128.241 C 253.664 132.259,257.811 132.732,261.139 129.099 C 263.814 126.179,264.056 126.092,269.746 125.987 C 276.169 125.868,279.200 124.739,279.200 122.464 C 279.200 118.618,269.795 117.068,262.187 119.660 C 258.558 120.897,258.423 120.881,254.877 118.803 C 246.774 114.054,241.025 112.741,238.852 115.143 M245.411 115.909 C 246.175 116.299,248.701 117.446,251.025 118.457 C 253.349 119.469,255.643 120.770,256.123 121.349 C 257.265 122.724,258.777 122.676,261.966 121.163 C 266.222 119.143,276.320 119.837,276.652 122.172 C 276.919 124.047,275.275 124.775,271.200 124.586 C 265.094 124.302,263.365 124.817,260.416 127.800 C 257.651 130.596,257.387 130.699,256.525 129.313 C 253.669 124.723,250.013 122.397,241.400 119.690 C 240.551 119.423,240.000 118.453,240.000 117.225 C 240.000 115.045,242.518 114.433,245.411 115.909 M42.884 179.670 C 42.129 181.638,42.316 192.000,43.107 192.000 C 44.153 192.000,44.777 188.979,44.789 183.847 C 44.800 179.354,43.825 177.217,42.884 179.670 M355.745 178.921 C 355.074 179.593,355.044 187.737,355.704 190.200 C 356.674 193.819,357.600 191.854,357.588 186.200 C 357.576 180.584,356.870 177.796,355.745 178.921 M359.363 208.488 C 359.273 211.617,359.026 215.937,358.812 218.088 L 358.424 222.000 359.241 218.800 C 359.691 217.040,359.938 212.720,359.792 209.200 L 359.526 202.800 359.363 208.488 M355.655 212.877 C 355.314 216.219,355.190 219.639,355.380 220.477 C 355.570 221.314,356.004 219.266,356.345 215.923 C 356.686 212.581,356.810 209.161,356.620 208.323 C 356.430 207.486,355.996 209.534,355.655 212.877 M222.862 209.000 C 222.363 210.735,220.924 218.573,219.961 224.800 C 219.451 228.100,218.903 231.250,218.742 231.800 C 218.537 232.503,216.347 232.800,211.378 232.800 C 201.904 232.800,202.220 232.372,195.980 253.600 C 195.398 255.580,194.624 257.542,194.261 257.960 C 193.086 259.311,193.485 264.000,194.775 264.000 C 195.486 264.000,195.770 263.530,195.493 262.810 C 195.242 262.156,196.963 255.676,199.317 248.410 L 203.597 235.200 210.799 235.188 C 220.516 235.171,220.057 235.714,222.455 221.434 L 224.509 209.200 248.803 208.988 C 262.164 208.871,273.356 209.051,273.675 209.388 C 273.993 209.725,273.340 215.636,272.223 222.524 L 270.193 235.048 274.315 247.888 C 276.582 254.950,278.788 260.946,279.218 261.211 C 280.546 262.032,280.082 257.824,278.449 254.221 C 272.186 240.410,271.543 234.933,274.431 220.000 C 274.813 218.020,275.357 214.510,275.638 212.200 L 276.150 208.000 249.650 208.000 C 229.137 208.000,223.085 208.226,222.862 209.000 M42.400 216.335 C 42.400 221.735,42.898 224.000,44.086 224.000 C 44.886 224.000,45.043 215.787,44.296 213.000 C 43.368 209.539,42.400 211.243,42.400 216.335 M354.206 225.600 C 353.884 226.700,353.640 228.500,353.662 229.600 L 353.701 231.600 354.488 229.631 C 354.920 228.548,355.165 226.748,355.031 225.631 L 354.789 223.600 354.206 225.600 M357.200 228.000 C 356.890 230.256,356.816 232.282,357.036 232.502 C 357.256 232.722,357.690 231.056,358.000 228.800 C 358.310 226.544,358.384 224.518,358.164 224.298 C 357.944 224.078,357.510 225.744,357.200 228.000 M44.000 229.086 C 44.000 231.077,44.360 232.928,44.800 233.200 C 45.240 233.472,45.600 235.092,45.600 236.800 C 45.600 238.508,45.960 240.128,46.400 240.400 C 46.840 240.672,47.200 241.658,47.200 242.590 C 47.200 244.198,48.261 248.086,49.658 251.600 C 50.008 252.480,50.752 254.640,51.310 256.400 C 51.869 258.160,52.613 259.942,52.963 260.360 C 53.313 260.778,53.636 262.398,53.680 263.960 C 53.749 266.433,53.831 266.545,54.310 264.823 L 54.861 262.846 56.231 264.801 C 58.978 268.724,57.757 265.061,53.500 256.611 C 53.115 255.847,52.800 254.518,52.800 253.658 C 52.800 252.798,52.440 251.872,52.000 251.600 C 51.560 251.328,51.200 250.248,51.200 249.200 C 51.200 248.152,50.840 247.072,50.400 246.800 C 49.960 246.528,49.600 245.268,49.600 244.000 C 49.600 242.732,49.240 241.472,48.800 241.200 C 48.360 240.928,48.000 239.539,48.000 238.113 C 48.000 236.687,47.662 235.178,47.248 234.760 C 46.834 234.342,46.384 232.228,46.248 230.063 C 45.920 224.862,44.000 224.028,44.000 229.086 M225.019 228.187 C 220.076 234.458,222.498 235.258,245.688 235.014 L 265.979 234.800 267.099 232.463 C 269.361 227.742,268.874 227.623,246.222 227.387 C 230.503 227.222,225.635 227.406,225.019 228.187 M265.780 229.246 C 266.025 229.492,266.046 230.380,265.827 231.219 C 265.450 232.662,264.339 232.759,245.811 232.973 C 225.521 233.208,224.705 233.086,225.889 230.000 C 226.351 228.797,264.607 228.074,265.780 229.246 M352.606 234.400 C 352.285 235.500,352.017 237.369,352.011 238.553 C 352.005 239.737,351.640 240.928,351.200 241.200 C 350.760 241.472,350.400 242.732,350.400 244.000 C 350.400 245.268,350.040 246.528,349.600 246.800 C 349.160 247.072,348.800 248.152,348.800 249.200 C 348.800 250.248,348.440 251.328,348.000 251.600 C 347.560 251.872,347.200 252.798,347.200 253.658 C 347.200 254.518,346.882 255.847,346.493 256.611 C 346.105 257.375,345.423 258.900,344.979 260.000 C 340.923 270.039,328.719 291.765,325.655 294.400 C 325.399 294.620,323.932 296.493,322.395 298.562 C 319.028 303.095,300.884 321.161,296.400 324.446 C 294.640 325.736,293.020 327.000,292.800 327.255 C 290.160 330.322,268.438 342.524,258.400 346.579 C 257.300 347.023,255.775 347.705,255.011 348.093 C 254.247 348.482,252.918 348.800,252.058 348.800 C 251.198 348.800,250.272 349.160,250.000 349.600 C 249.728 350.040,248.648 350.400,247.600 350.400 C 246.552 350.400,245.472 350.760,245.200 351.200 C 244.928 351.640,243.668 352.000,242.400 352.000 C 241.132 352.000,239.872 352.360,239.600 352.800 C 239.328 353.240,237.939 353.600,236.513 353.600 C 235.087 353.600,233.578 353.938,233.160 354.352 C 232.742 354.766,230.628 355.216,228.463 355.352 C 226.216 355.493,224.384 356.029,224.196 356.600 C 223.783 357.853,227.017 357.914,231.507 356.737 C 233.318 356.262,236.240 355.512,238.000 355.071 C 245.536 353.180,247.690 352.580,249.200 351.949 C 250.080 351.581,252.563 350.709,254.718 350.010 C 258.410 348.812,261.247 347.598,270.800 343.129 C 283.093 337.378,300.649 324.836,311.574 314.000 C 319.486 306.152,332.238 290.523,333.434 287.205 C 333.674 286.542,334.816 284.560,335.974 282.800 C 337.131 281.040,339.993 275.640,342.333 270.800 C 346.777 261.610,347.226 260.583,348.800 256.000 C 349.329 254.460,350.035 252.480,350.370 251.600 C 351.831 247.759,352.800 244.162,352.800 242.583 C 352.800 241.646,353.287 240.592,353.883 240.240 C 355.320 239.391,356.816 236.463,356.737 234.653 C 356.688 233.528,356.572 233.471,356.222 234.400 C 354.209 239.749,354.117 239.806,353.640 236.000 C 353.250 232.884,353.111 232.669,352.606 234.400 M206.222 239.800 C 205.548 240.570,204.592 242.460,204.098 244.000 C 203.604 245.540,202.260 249.680,201.112 253.200 C 197.691 263.689,197.620 264.000,198.656 263.995 C 199.504 263.991,206.411 244.215,206.403 241.815 C 206.399 240.462,209.280 239.859,214.336 240.153 C 219.234 240.438,218.682 239.550,223.451 254.800 C 225.383 260.976,226.606 263.680,227.551 263.868 C 228.626 264.082,228.743 263.839,228.132 262.668 C 227.710 261.861,225.819 256.406,223.929 250.546 C 221.768 243.849,219.974 239.614,219.099 239.146 C 216.548 237.781,207.592 238.236,206.222 239.800 M224.852 239.151 C 223.582 239.954,223.635 240.189,228.114 253.695 C 229.371 257.487,230.400 261.357,230.400 262.295 C 230.400 264.030,231.537 264.596,232.357 263.269 C 232.768 262.605,230.922 256.096,227.188 245.042 C 225.399 239.745,224.908 240.000,236.886 240.000 C 249.195 240.000,248.556 239.121,244.733 250.802 C 241.348 261.144,240.924 264.000,242.775 264.000 C 243.470 264.000,243.769 263.529,243.507 262.845 C 243.263 262.210,243.780 259.600,244.655 257.045 C 249.797 242.034,250.283 239.633,248.335 238.886 C 246.332 238.117,226.125 238.345,224.852 239.151 M254.212 239.800 C 252.414 241.837,245.566 264.000,246.734 264.000 C 247.753 264.000,248.091 263.134,252.054 250.400 C 255.365 239.760,255.153 240.000,261.251 240.000 C 267.246 240.000,266.299 238.748,270.688 252.461 C 273.193 260.284,274.648 263.680,275.576 263.868 C 276.630 264.082,276.740 263.838,276.120 262.668 C 275.692 261.861,273.828 256.421,271.979 250.579 C 269.761 243.571,268.122 239.693,267.161 239.179 C 264.561 237.788,255.609 238.217,254.212 239.800 M389.632 243.562 C 389.102 244.200,388.788 245.318,388.934 246.044 C 389.112 246.926,389.509 246.540,390.131 244.883 C 391.164 242.124,391.058 241.843,389.632 243.562 M386.000 256.000 C 385.700 256.946,385.634 257.901,385.854 258.121 C 386.074 258.341,386.500 257.746,386.800 256.800 C 387.100 255.854,387.166 254.899,386.946 254.679 C 386.726 254.459,386.300 255.054,386.000 256.000 M59.200 270.840 C 59.200 271.744,61.732 276.135,62.062 275.804 C 62.439 275.427,60.094 270.400,59.541 270.400 C 59.354 270.400,59.200 270.598,59.200 270.840 M63.279 278.400 C 65.459 282.817,70.873 291.129,75.309 296.871 C 80.992 304.225,81.770 307.315,76.852 303.000 L 74.800 301.200 76.739 303.400 C 77.806 304.610,79.126 305.600,79.671 305.600 C 80.217 305.600,82.152 307.310,83.970 309.400 C 93.615 320.486,115.188 336.574,129.200 343.129 C 138.753 347.598,141.590 348.812,145.282 350.010 C 147.437 350.709,149.920 351.581,150.800 351.949 C 152.392 352.614,157.061 353.924,162.400 355.203 C 163.940 355.572,166.682 356.262,168.493 356.737 C 172.983 357.914,176.217 357.853,175.804 356.600 C 175.616 356.029,173.784 355.493,171.537 355.352 C 169.372 355.216,167.258 354.766,166.840 354.352 C 166.422 353.938,164.913 353.600,163.487 353.600 C 162.061 353.600,160.672 353.240,160.400 352.800 C 160.128 352.360,158.868 352.000,157.600 352.000 C 156.332 352.000,155.072 351.640,154.800 351.200 C 154.528 350.760,153.448 350.400,152.400 350.400 C 151.352 350.400,150.272 350.040,150.000 349.600 C 149.728 349.160,148.802 348.800,147.942 348.800 C 147.082 348.800,145.753 348.482,144.989 348.093 C 144.225 347.705,142.700 347.023,141.600 346.579 C 131.561 342.523,109.835 330.319,107.200 327.255 C 106.980 326.999,105.113 325.532,103.052 323.995 C 97.891 320.147,81.044 303.044,76.657 297.200 C 71.989 290.980,67.851 284.917,66.556 282.400 C 65.991 281.300,64.800 279.500,63.910 278.400 L 62.293 276.400 63.279 278.400 M377.343 279.637 C 375.464 283.578,375.728 284.249,377.693 280.525 C 378.586 278.833,379.174 277.308,379.001 277.135 C 378.828 276.962,378.082 278.088,377.343 279.637 M60.400 280.000 C 61.083 281.320,61.821 282.400,62.041 282.400 C 62.261 282.400,61.883 281.320,61.200 280.000 C 60.517 278.680,59.779 277.600,59.559 277.600 C 59.339 277.600,59.717 278.680,60.400 280.000 M65.707 288.819 C 66.702 290.589,68.218 292.659,69.077 293.419 C 69.935 294.179,69.273 292.730,67.605 290.200 C 64.099 284.880,63.074 284.134,65.707 288.819 M370.800 292.800 C 370.117 294.120,369.739 295.200,369.959 295.200 C 370.179 295.200,370.917 294.120,371.600 292.800 C 372.283 291.480,372.661 290.400,372.441 290.400 C 372.221 290.400,371.483 291.480,370.800 292.800 M71.880 297.431 C 72.867 298.817,74.089 300.208,74.595 300.520 C 75.101 300.833,74.707 299.955,73.720 298.569 C 72.733 297.183,71.511 295.792,71.005 295.480 C 70.499 295.167,70.893 296.045,71.880 297.431 M367.572 298.600 L 366.304 301.200 367.934 299.200 C 369.504 297.274,370.016 296.000,369.221 296.000 C 369.012 296.000,368.270 297.170,367.572 298.600 M364.400 304.000 C 363.717 305.320,363.339 306.400,363.559 306.400 C 363.779 306.400,364.517 305.320,365.200 304.000 C 365.883 302.680,366.261 301.600,366.041 301.600 C 365.821 301.600,365.083 302.680,364.400 304.000 M54.161 329.200 C 56.731 332.463,68.811 344.671,68.787 343.980 C 68.779 343.771,64.918 339.640,60.207 334.800 C 55.495 329.960,52.775 327.440,54.161 329.200 M75.189 349.462 C 78.483 352.556,81.333 354.934,81.522 354.744 C 81.712 354.555,81.717 354.296,81.533 354.169 C 81.350 354.041,78.500 351.664,75.200 348.886 L 69.200 343.835 75.189 349.462 M88.800 361.264 C 97.868 369.616,110.501 382.241,112.673 385.122 C 113.635 386.399,114.643 387.224,114.912 386.954 C 115.532 386.334,94.129 364.950,87.200 359.267 C 83.067 355.877,83.395 356.287,88.800 361.264 M177.600 357.495 C 177.600 358.330,182.305 359.179,187.000 359.191 C 190.636 359.201,191.569 358.100,188.600 357.304 C 185.847 356.566,177.600 356.710,177.600 357.495 M211.000 357.351 C 208.349 358.044,209.606 359.200,213.000 359.191 C 217.695 359.179,222.400 358.330,222.400 357.495 C 222.400 356.791,213.572 356.679,211.000 357.351 M274.558 388.457 C 269.547 393.548,265.669 397.936,265.942 398.208 C 266.214 398.481,267.013 397.825,267.717 396.752 C 268.422 395.678,272.567 391.290,276.928 387.000 C 281.289 382.710,284.590 379.200,284.264 379.200 C 283.937 379.200,279.570 383.365,274.558 388.457 M119.288 393.425 C 121.567 396.628,123.808 399.481,124.267 399.765 C 125.312 400.411,120.593 393.803,117.474 390.252 C 116.192 388.794,117.008 390.221,119.288 393.425 M263.888 400.600 C 261.587 403.379,260.612 404.800,261.007 404.800 C 261.229 404.800,262.371 403.540,263.546 402.000 C 265.726 399.142,265.989 398.063,263.888 400.600 M132.300 412.400 C 132.948 413.720,134.063 415.520,134.778 416.400 C 135.993 417.896,136.001 417.844,134.900 415.600 C 134.252 414.280,133.137 412.480,132.422 411.600 C 131.207 410.104,131.199 410.156,132.300 412.400 M250.800 420.000 C 250.117 421.320,249.739 422.400,249.959 422.400 C 250.179 422.400,250.917 421.320,251.600 420.000 C 252.283 418.680,252.661 417.600,252.441 417.600 C 252.221 417.600,251.483 418.680,250.800 420.000 M137.172 420.600 C 137.870 422.030,138.612 423.200,138.821 423.200 C 139.616 423.200,139.104 421.926,137.534 420.000 L 135.904 418.000 137.172 420.600 M247.600 425.600 C 246.917 426.920,246.539 428.000,246.759 428.000 C 246.979 428.000,247.717 426.920,248.400 425.600 C 249.083 424.280,249.461 423.200,249.241 423.200 C 249.021 423.200,248.283 424.280,247.600 425.600 M144.399 433.327 C 146.426 437.137,148.785 441.145,149.642 442.235 C 150.499 443.324,151.200 444.887,151.200 445.708 C 151.200 446.529,151.560 447.200,152.000 447.200 C 152.440 447.200,152.800 447.740,152.800 448.400 C 152.800 449.060,153.160 449.600,153.600 449.600 C 154.040 449.600,154.400 450.140,154.400 450.800 C 154.400 451.460,154.760 452.000,155.200 452.000 C 155.640 452.000,156.000 453.080,156.000 454.400 C 156.000 455.720,156.339 456.800,156.753 456.800 C 157.910 456.800,158.527 455.373,157.613 454.808 C 157.166 454.532,156.800 453.607,156.800 452.753 C 156.800 451.899,156.482 451.200,156.093 451.200 C 155.705 451.200,155.180 450.570,154.928 449.800 C 154.429 448.273,151.035 442.384,148.820 439.200 C 148.054 438.100,147.287 436.840,147.114 436.400 C 146.458 434.734,141.431 426.400,141.081 426.400 C 140.880 426.400,142.373 429.517,144.399 433.327 M244.372 431.400 L 243.104 434.000 244.734 432.000 C 246.304 430.074,246.816 428.800,246.021 428.800 C 245.812 428.800,245.070 429.970,244.372 431.400 M238.800 441.600 C 237.685 443.800,236.953 445.600,237.173 445.600 C 237.393 445.600,238.485 443.800,239.600 441.600 C 240.715 439.400,241.447 437.600,241.227 437.600 C 241.007 437.600,239.915 439.400,238.800 441.600 M233.200 452.000 C 232.517 453.320,232.139 454.400,232.359 454.400 C 232.579 454.400,233.317 453.320,234.000 452.000 C 234.683 450.680,235.061 449.600,234.841 449.600 C 234.621 449.600,233.883 450.680,233.200 452.000 M157.600 457.600 C 157.600 458.040,157.960 458.400,158.400 458.400 C 158.840 458.400,159.200 458.940,159.200 459.600 C 159.200 460.260,159.560 460.800,160.000 460.800 C 160.440 460.800,160.800 461.546,160.800 462.457 C 160.800 464.301,162.974 466.893,163.815 466.052 C 164.111 465.755,163.943 465.259,163.440 464.948 C 162.938 464.638,162.265 463.339,161.944 462.062 C 161.080 458.619,157.600 455.045,157.600 457.600 M228.400 460.800 C 227.717 462.120,227.339 463.200,227.559 463.200 C 227.779 463.200,228.517 462.120,229.200 460.800 C 229.883 459.480,230.261 458.400,230.041 458.400 C 229.821 458.400,229.083 459.480,228.400 460.800 M225.228 466.069 C 224.482 467.208,224.054 468.321,224.277 468.544 C 224.500 468.766,225.258 467.835,225.962 466.474 C 227.517 463.466,227.089 463.230,225.228 466.069 M164.600 467.730 C 165.150 467.952,165.600 468.823,165.600 469.667 C 165.600 470.510,165.999 471.200,166.486 471.200 C 166.973 471.200,167.153 470.631,166.886 469.935 C 166.619 469.239,166.400 468.339,166.400 467.935 C 166.400 467.531,165.770 467.228,165.000 467.263 C 164.164 467.301,164.003 467.489,164.600 467.730 M167.200 473.600 C 167.200 474.040,167.505 474.400,167.878 474.400 C 169.146 474.400,172.000 477.383,172.000 478.709 C 172.000 480.127,181.829 490.400,183.185 490.400 C 184.749 490.400,183.985 488.759,182.000 487.854 C 180.900 487.353,180.000 486.721,180.000 486.450 C 180.000 486.179,178.928 484.783,177.619 483.349 C 176.309 481.915,174.259 479.405,173.064 477.771 C 169.851 473.378,167.200 471.492,167.200 473.600 M215.525 480.600 C 213.837 482.690,211.756 485.032,210.900 485.805 C 210.044 486.578,209.530 487.397,209.758 487.625 C 210.109 487.976,214.383 483.266,218.311 478.200 C 220.793 474.998,218.345 477.106,215.525 480.600 M203.200 491.900 C 203.200 492.285,202.120 492.816,200.800 493.080 C 198.115 493.617,197.518 495.200,200.000 495.200 C 200.880 495.200,201.600 494.840,201.600 494.400 C 201.600 493.960,202.101 493.600,202.714 493.600 C 203.327 493.600,204.036 493.060,204.289 492.400 C 204.543 491.740,204.401 491.200,203.975 491.200 C 203.549 491.200,203.200 491.515,203.200 491.900 " stroke="none" fill="#86cfca" fill-rule="evenodd"></path><path id="path3" d="M190.201 45.000 C 189.970 45.694,187.811 46.000,183.134 46.000 C 178.621 46.000,176.189 46.330,175.760 47.000 C 175.391 47.577,173.463 48.000,171.207 48.000 C 169.055 48.000,167.072 48.360,166.800 48.800 C 166.528 49.240,165.088 49.600,163.600 49.600 C 162.112 49.600,160.672 49.960,160.400 50.400 C 160.128 50.840,158.868 51.200,157.600 51.200 C 156.332 51.200,155.072 51.560,154.800 52.000 C 154.528 52.440,153.448 52.800,152.400 52.800 C 151.352 52.800,150.272 53.160,150.000 53.600 C 149.728 54.040,148.802 54.400,147.942 54.400 C 147.082 54.400,145.753 54.718,144.989 55.107 C 144.225 55.495,142.700 56.177,141.600 56.621 C 131.561 60.677,109.835 72.881,107.200 75.945 C 106.980 76.201,105.107 77.668,103.038 79.205 C 98.505 82.572,80.439 100.716,77.154 105.200 C 75.864 106.960,74.600 108.580,74.345 108.800 C 71.278 111.440,59.076 133.162,55.021 143.200 C 54.577 144.300,53.895 145.825,53.507 146.589 C 53.118 147.353,52.800 148.682,52.800 149.542 C 52.800 150.402,52.440 151.328,52.000 151.600 C 51.560 151.872,51.200 152.952,51.200 154.000 C 51.200 155.048,50.840 156.128,50.400 156.400 C 49.960 156.672,49.600 157.932,49.600 159.200 C 49.600 160.468,49.240 161.728,48.800 162.000 C 48.360 162.272,48.000 163.712,48.000 165.200 C 48.000 166.688,47.640 168.128,47.200 168.400 C 46.760 168.672,46.400 170.655,46.400 172.807 C 46.400 175.063,45.977 176.991,45.400 177.360 C 44.730 177.789,44.400 180.221,44.400 184.734 C 44.400 189.411,44.094 191.570,43.400 191.801 C 42.675 192.042,42.400 194.737,42.400 201.600 C 42.400 208.463,42.675 211.158,43.400 211.399 C 44.094 211.630,44.400 213.789,44.400 218.466 C 44.400 222.979,44.730 225.411,45.400 225.840 C 45.977 226.209,46.400 228.137,46.400 230.393 C 46.400 232.545,46.760 234.528,47.200 234.800 C 47.640 235.072,48.000 236.512,48.000 238.000 C 48.000 239.488,48.360 240.928,48.800 241.200 C 49.240 241.472,49.600 242.732,49.600 244.000 C 49.600 245.268,49.960 246.528,50.400 246.800 C 50.840 247.072,51.200 248.152,51.200 249.200 C 51.200 250.248,51.560 251.328,52.000 251.600 C 52.440 251.872,52.800 252.798,52.800 253.658 C 52.800 254.518,53.121 255.847,53.512 256.611 C 53.904 257.375,54.940 259.620,55.813 261.600 C 59.412 269.760,62.860 276.594,64.965 279.744 C 66.194 281.583,67.200 283.297,67.200 283.552 C 67.200 284.106,71.658 290.540,76.657 297.200 C 81.044 303.044,97.891 320.147,103.052 323.995 C 105.113 325.532,106.980 326.999,107.200 327.255 C 109.835 330.319,131.561 342.523,141.600 346.579 C 142.700 347.023,144.225 347.705,144.989 348.093 C 145.753 348.482,147.082 348.800,147.942 348.800 C 148.802 348.800,149.728 349.160,150.000 349.600 C 150.272 350.040,151.352 350.400,152.400 350.400 C 153.448 350.400,154.528 350.760,154.800 351.200 C 155.072 351.640,156.332 352.000,157.600 352.000 C 158.868 352.000,160.128 352.360,160.400 352.800 C 160.672 353.240,162.112 353.600,163.600 353.600 C 165.088 353.600,166.528 353.960,166.800 354.400 C 167.072 354.840,169.055 355.200,171.207 355.200 C 173.463 355.200,175.391 355.623,175.760 356.200 C 176.189 356.870,178.621 357.200,183.134 357.200 C 187.811 357.200,189.970 357.506,190.201 358.200 C 190.442 358.925,193.137 359.200,200.000 359.200 C 206.863 359.200,209.558 358.925,209.799 358.200 C 210.030 357.506,212.189 357.200,216.866 357.200 C 221.379 357.200,223.811 356.870,224.240 356.200 C 224.609 355.623,226.537 355.200,228.793 355.200 C 230.945 355.200,232.928 354.840,233.200 354.400 C 233.472 353.960,234.912 353.600,236.400 353.600 C 237.888 353.600,239.328 353.240,239.600 352.800 C 239.872 352.360,241.132 352.000,242.400 352.000 C 243.668 352.000,244.928 351.640,245.200 351.200 C 245.472 350.760,246.552 350.400,247.600 350.400 C 248.648 350.400,249.728 350.040,250.000 349.600 C 250.272 349.160,251.198 348.800,252.058 348.800 C 252.918 348.800,254.247 348.482,255.011 348.093 C 255.775 347.705,257.300 347.023,258.400 346.579 C 268.439 342.523,290.165 330.319,292.800 327.255 C 293.020 326.999,294.893 325.532,296.962 323.995 C 301.495 320.628,319.561 302.484,322.846 298.000 C 324.136 296.240,325.400 294.620,325.655 294.400 C 328.722 291.760,340.924 270.038,344.979 260.000 C 345.423 258.900,346.105 257.375,346.493 256.611 C 346.882 255.847,347.200 254.518,347.200 253.658 C 347.200 252.798,347.560 251.872,348.000 251.600 C 348.440 251.328,348.800 250.248,348.800 249.200 C 348.800 248.152,349.160 247.072,349.600 246.800 C 350.040 246.528,350.400 245.268,350.400 244.000 C 350.400 242.732,350.712 241.501,351.094 241.266 C 351.476 241.030,352.015 239.298,352.292 237.418 C 352.570 235.538,353.163 232.020,353.612 229.600 C 354.060 227.180,354.753 221.741,355.152 217.513 C 355.551 213.285,356.265 207.729,356.739 205.166 C 357.920 198.777,357.852 192.217,356.600 191.801 C 355.906 191.570,355.600 189.411,355.600 184.734 C 355.600 180.221,355.270 177.789,354.600 177.360 C 354.023 176.991,353.600 175.063,353.600 172.807 C 353.600 170.655,353.240 168.672,352.800 168.400 C 352.360 168.128,352.000 166.688,352.000 165.200 C 352.000 163.712,351.640 162.272,351.200 162.000 C 350.760 161.728,350.400 160.468,350.400 159.200 C 350.400 157.932,350.040 156.672,349.600 156.400 C 349.160 156.128,348.800 155.048,348.800 154.000 C 348.800 152.952,348.440 151.872,348.000 151.600 C 347.560 151.328,347.200 150.402,347.200 149.542 C 347.200 148.682,346.882 147.353,346.493 146.589 C 346.105 145.825,345.423 144.300,344.979 143.200 C 340.924 133.162,328.722 111.440,325.655 108.800 C 325.400 108.580,324.136 106.960,322.846 105.200 C 319.561 100.716,301.495 82.572,296.962 79.205 C 294.893 77.668,293.020 76.201,292.800 75.945 C 290.165 72.881,268.439 60.677,258.400 56.621 C 257.300 56.177,255.775 55.495,255.011 55.107 C 254.247 54.718,252.918 54.400,252.058 54.400 C 251.198 54.400,250.272 54.040,250.000 53.600 C 249.728 53.160,248.648 52.800,247.600 52.800 C 246.552 52.800,245.472 52.440,245.200 52.000 C 244.928 51.560,243.668 51.200,242.400 51.200 C 241.132 51.200,239.872 50.840,239.600 50.400 C 239.328 49.960,237.888 49.600,236.400 49.600 C 234.912 49.600,233.472 49.240,233.200 48.800 C 232.928 48.360,230.945 48.000,228.793 48.000 C 226.537 48.000,224.609 47.577,224.240 47.000 C 223.811 46.330,221.379 46.000,216.866 46.000 C 212.189 46.000,210.030 45.694,209.799 45.000 C 209.558 44.275,206.863 44.000,200.000 44.000 C 193.137 44.000,190.442 44.275,190.201 45.000 M194.177 109.861 C 201.207 112.423,209.970 121.260,213.846 129.696 C 214.988 132.183,215.658 132.666,218.588 133.120 C 236.763 135.936,245.740 156.279,235.043 170.412 L 232.025 174.400 235.100 178.463 C 240.350 185.400,241.257 193.172,237.723 200.931 C 235.758 205.243,235.060 205.600,228.598 205.600 C 222.831 205.600,220.800 206.961,220.800 210.826 C 220.800 215.100,218.818 215.889,210.636 214.870 C 205.831 214.271,205.589 214.329,203.065 216.688 C 201.632 218.028,198.922 219.914,197.045 220.880 L 193.632 222.635 193.416 239.118 L 193.200 255.600 183.000 255.824 L 172.800 256.048 172.800 240.024 L 172.800 224.000 166.423 224.000 C 149.653 224.000,138.510 209.940,142.626 193.972 C 143.204 191.728,142.976 191.350,139.608 188.976 C 123.789 177.826,127.490 153.960,146.064 147.337 C 149.809 146.002,150.010 145.780,150.208 142.767 C 151.722 119.718,174.484 102.683,194.177 109.861 M247.043 115.143 C 249.365 115.991,252.890 117.638,254.877 118.803 C 258.423 120.881,258.558 120.897,262.187 119.660 C 269.795 117.068,279.200 118.618,279.200 122.464 C 279.200 124.739,276.169 125.868,269.746 125.987 C 264.056 126.092,263.814 126.179,261.139 129.099 C 257.811 132.732,253.664 132.259,253.612 128.241 C 253.596 126.990,249.109 123.709,245.800 122.528 C 239.288 120.204,238.423 119.733,237.954 118.257 C 236.666 114.197,240.687 112.819,247.043 115.143 M275.638 212.200 C 275.357 214.510,274.813 218.020,274.431 220.000 C 271.543 234.933,272.186 240.410,278.449 254.221 C 281.171 260.225,280.631 264.151,277.125 263.848 L 274.250 263.600 270.686 252.461 C 266.299 238.749,267.247 240.000,261.251 240.000 C 255.153 240.000,255.365 239.760,252.054 250.400 C 247.482 265.092,248.077 264.000,244.639 264.000 C 240.683 264.000,240.689 263.158,244.733 250.802 C 248.556 239.121,249.195 240.000,236.886 240.000 C 224.908 240.000,225.399 239.745,227.188 245.042 C 233.411 263.465,233.484 264.323,228.800 263.858 C 226.230 263.603,226.161 263.487,223.448 254.800 C 218.686 239.556,219.235 240.438,214.336 240.153 C 209.280 239.859,206.399 240.462,206.403 241.815 C 206.405 242.357,204.875 247.568,203.003 253.395 L 199.600 263.990 196.600 263.995 C 193.558 264.000,192.155 260.381,194.261 257.960 C 194.624 257.542,195.398 255.580,195.980 253.600 C 202.220 232.372,201.904 232.800,211.378 232.800 C 216.347 232.800,218.537 232.503,218.742 231.800 C 218.903 231.250,219.451 228.100,219.961 224.800 C 220.924 218.573,222.363 210.735,222.862 209.000 C 223.085 208.226,229.137 208.000,249.650 208.000 L 276.150 208.000 275.638 212.200 M225.889 230.000 C 224.705 233.086,225.521 233.208,245.811 232.973 C 264.339 232.759,265.450 232.662,265.827 231.219 C 266.457 228.811,266.367 228.800,245.842 228.800 C 229.254 228.800,226.281 228.979,225.889 230.000 " stroke="none" fill="#56fff4" fill-rule="evenodd"></path><path id="path4" d="M357.863 207.600 C 357.866 210.680,358.011 211.842,358.184 210.182 C 358.357 208.522,358.354 206.002,358.177 204.582 C 358.001 203.162,357.859 204.520,357.863 207.600 M390.492 246.600 C 389.937 248.910,389.192 251.700,388.838 252.800 C 388.483 253.900,387.365 257.500,386.353 260.800 C 385.340 264.100,384.217 267.142,383.856 267.560 C 383.495 267.978,383.200 268.777,383.200 269.336 C 383.200 273.022,361.873 313.313,358.500 316.000 C 358.223 316.220,357.487 317.390,356.864 318.600 C 356.240 319.810,355.430 320.800,355.065 320.800 C 354.699 320.800,354.400 321.343,354.400 322.007 C 354.400 322.671,353.320 324.345,352.000 325.726 C 350.680 327.107,349.600 328.724,349.600 329.319 C 349.600 329.913,349.240 330.400,348.800 330.400 C 348.360 330.400,348.000 330.923,348.000 331.563 C 348.000 332.795,328.538 352.800,327.340 352.800 C 326.953 352.800,325.507 353.880,324.126 355.200 C 322.745 356.520,321.200 357.600,320.694 357.600 C 320.188 357.600,318.741 358.680,317.480 360.000 C 316.218 361.320,314.649 362.400,313.993 362.400 C 313.337 362.400,312.800 362.760,312.800 363.200 C 312.800 363.640,312.080 364.000,311.200 364.000 C 310.320 364.000,309.600 364.303,309.600 364.674 C 309.600 365.045,307.890 366.215,305.800 367.274 C 303.710 368.333,301.880 369.470,301.733 369.800 C 301.587 370.130,300.777 370.400,299.933 370.400 C 299.090 370.400,298.400 370.699,298.400 371.065 C 298.400 371.430,297.415 372.240,296.211 372.865 C 295.007 373.489,293.477 374.430,292.811 374.955 C 292.145 375.481,289.260 377.638,286.400 379.749 C 277.196 386.542,269.635 394.731,260.348 407.966 C 253.989 417.029,251.353 421.497,241.216 440.400 C 239.564 443.480,237.222 447.800,236.012 450.000 C 234.802 452.200,232.448 456.520,230.783 459.600 C 229.117 462.680,227.148 466.100,226.407 467.200 C 225.666 468.300,224.861 469.740,224.617 470.400 C 223.867 472.430,216.093 482.573,211.970 486.899 C 209.822 489.153,208.290 491.223,208.566 491.499 C 208.841 491.775,208.287 492.000,207.333 492.000 C 206.380 492.000,205.600 492.360,205.600 492.800 C 205.600 494.121,207.585 493.705,209.416 492.000 C 210.360 491.120,211.544 490.400,212.046 490.400 C 212.547 490.400,213.967 489.320,215.200 488.000 C 216.433 486.680,217.748 485.600,218.121 485.599 C 219.419 485.597,223.200 481.806,223.200 480.507 C 223.200 479.788,223.774 479.200,224.475 479.200 C 225.176 479.200,225.938 478.480,226.168 477.600 C 226.398 476.720,226.867 476.000,227.209 476.000 C 228.209 476.000,237.600 464.592,237.600 463.378 C 237.600 462.771,239.040 460.891,240.800 459.200 C 242.560 457.509,244.000 455.714,244.000 455.211 C 244.000 454.708,245.800 452.543,248.000 450.400 C 250.200 448.257,252.000 446.122,252.000 445.656 C 252.000 445.190,253.800 442.970,256.000 440.723 C 258.200 438.476,260.000 436.325,260.000 435.942 C 260.000 434.737,279.990 415.200,281.224 415.200 C 281.871 415.200,282.400 414.882,282.400 414.493 C 282.400 414.105,283.120 413.598,284.000 413.368 C 284.880 413.138,285.600 412.376,285.600 411.675 C 285.600 410.933,286.269 410.400,287.200 410.400 C 288.080 410.400,288.800 410.040,288.800 409.600 C 288.800 409.160,289.355 408.800,290.033 408.800 C 290.712 408.800,292.040 408.080,292.984 407.200 C 293.929 406.320,295.286 405.600,296.000 405.600 C 296.714 405.600,298.071 404.880,299.016 404.000 C 299.960 403.120,301.209 402.400,301.790 402.400 C 302.371 402.400,303.366 401.680,304.000 400.800 C 304.636 399.917,306.071 399.200,307.200 399.200 C 308.329 399.200,309.764 398.483,310.400 397.600 C 311.034 396.720,312.284 395.992,313.177 395.982 C 314.069 395.972,315.700 395.260,316.800 394.400 C 317.900 393.540,319.250 392.828,319.800 392.818 C 320.350 392.808,320.800 392.440,320.800 392.000 C 320.800 391.560,321.520 391.200,322.400 391.200 C 323.280 391.200,324.000 390.840,324.000 390.400 C 324.000 389.960,324.720 389.600,325.600 389.600 C 326.480 389.600,327.200 389.240,327.200 388.800 C 327.200 388.360,327.841 388.000,328.623 388.000 C 329.406 388.000,330.566 387.280,331.200 386.400 C 331.834 385.520,332.914 384.800,333.600 384.800 C 334.286 384.800,335.366 384.080,336.000 383.200 C 336.634 382.320,337.794 381.600,338.577 381.600 C 339.359 381.600,340.000 381.240,340.000 380.800 C 340.000 380.360,340.574 380.000,341.275 380.000 C 341.976 380.000,342.738 379.280,342.968 378.400 C 343.200 377.514,344.059 376.800,344.893 376.800 C 345.722 376.800,346.400 376.440,346.400 376.000 C 346.400 375.560,347.120 375.200,348.000 375.200 C 349.067 375.200,349.600 374.667,349.600 373.600 C 349.600 372.676,350.133 372.000,350.863 372.000 C 351.557 372.000,353.551 370.560,355.294 368.800 C 357.036 367.040,358.788 365.600,359.186 365.600 C 360.386 365.600,370.400 355.201,370.400 353.956 C 370.400 353.320,370.951 352.800,371.625 352.800 C 372.299 352.800,373.084 352.170,373.370 351.400 C 373.655 350.630,374.544 349.418,375.344 348.706 C 376.145 347.995,376.800 346.867,376.800 346.199 C 376.800 345.532,377.520 344.798,378.400 344.568 C 379.280 344.338,380.000 343.576,380.000 342.875 C 380.000 342.174,380.360 341.600,380.800 341.600 C 381.240 341.600,381.600 341.057,381.600 340.393 C 381.600 339.729,382.680 338.055,384.000 336.674 C 385.320 335.293,386.400 333.676,386.400 333.081 C 386.400 332.487,386.760 332.000,387.200 332.000 C 387.640 332.000,388.000 330.920,388.000 329.600 C 388.000 328.280,388.299 327.200,388.665 327.200 C 389.030 327.200,389.840 326.210,390.464 325.000 C 391.087 323.790,391.778 322.620,391.999 322.400 C 393.327 321.076,394.400 318.042,394.400 315.611 C 394.400 314.065,394.670 312.797,395.000 312.794 C 396.024 312.783,397.600 308.610,397.600 305.907 C 397.600 304.492,398.050 303.183,398.600 302.999 C 399.366 302.743,399.600 297.775,399.600 281.772 C 399.600 266.125,399.349 260.628,398.600 259.880 C 398.050 259.330,397.600 257.893,397.600 256.687 C 397.600 255.481,397.240 254.272,396.800 254.000 C 396.360 253.728,396.000 252.447,396.000 251.153 C 396.000 249.859,395.640 248.800,395.200 248.800 C 394.760 248.800,394.400 248.080,394.400 247.200 C 394.400 246.320,394.040 245.600,393.600 245.600 C 393.160 245.600,392.800 244.880,392.800 244.000 C 392.800 240.952,391.498 242.419,390.492 246.600 M48.800 328.000 C 48.800 328.440,49.160 328.800,49.600 328.800 C 50.040 328.800,50.400 329.880,50.400 331.200 C 50.400 332.520,50.760 333.600,51.200 333.600 C 51.640 333.600,52.000 334.320,52.000 335.200 C 52.000 336.080,52.360 336.800,52.800 336.800 C 53.240 336.800,53.600 337.880,53.600 339.200 C 53.600 340.520,53.960 341.600,54.400 341.600 C 54.840 341.600,55.200 342.072,55.200 342.649 C 55.200 343.226,55.920 344.471,56.800 345.416 C 57.680 346.360,58.400 347.688,58.400 348.367 C 58.400 349.045,58.760 349.600,59.200 349.600 C 59.640 349.600,60.000 350.241,60.000 351.023 C 60.000 351.806,60.720 352.966,61.600 353.600 C 62.480 354.234,63.200 355.262,63.200 355.883 C 63.200 356.504,63.832 357.595,64.605 358.306 C 65.378 359.018,66.519 360.590,67.141 361.800 C 67.762 363.010,68.775 364.000,69.392 364.000 C 70.742 364.000,72.800 365.929,72.800 367.195 C 72.800 368.261,79.611 375.036,83.853 378.191 C 85.474 379.396,87.382 381.016,88.094 381.791 C 88.805 382.566,89.831 383.200,90.373 383.200 C 90.915 383.200,92.367 384.280,93.600 385.600 C 94.833 386.920,96.241 388.000,96.728 388.000 C 97.216 388.000,98.745 389.080,100.126 390.400 C 101.507 391.720,102.899 392.800,103.220 392.800 C 103.540 392.800,105.331 394.240,107.200 396.000 C 109.069 397.760,110.913 399.200,111.298 399.200 C 111.683 399.200,113.482 400.640,115.296 402.400 C 117.109 404.160,118.879 405.600,119.228 405.600 C 120.206 405.600,125.600 411.059,125.600 412.049 C 125.600 412.531,127.040 414.309,128.800 416.000 C 130.560 417.691,132.000 419.460,132.000 419.930 C 132.000 420.401,133.080 421.818,134.400 423.080 C 135.720 424.341,136.801 425.694,136.802 426.087 C 136.803 426.479,137.882 428.060,139.200 429.600 C 140.518 431.140,141.597 432.850,141.598 433.400 C 141.599 433.950,141.872 434.400,142.205 434.400 C 142.537 434.400,143.287 435.480,143.872 436.800 C 144.893 439.107,146.400 440.061,146.400 438.400 C 146.400 437.960,146.040 437.600,145.600 437.600 C 145.160 437.600,144.800 436.880,144.800 436.000 C 144.800 435.120,144.440 434.400,144.000 434.400 C 143.560 434.400,143.200 433.860,143.200 433.200 C 143.200 432.540,142.928 432.000,142.595 432.000 C 142.263 432.000,141.482 430.830,140.859 429.400 C 140.237 427.970,139.519 426.620,139.264 426.400 C 139.009 426.180,137.580 423.660,136.090 420.800 C 127.118 403.589,109.930 381.526,95.178 368.287 C 87.299 361.215,79.132 354.073,76.000 351.513 C 74.460 350.255,73.011 349.040,72.780 348.813 C 51.275 327.685,48.800 325.537,48.800 328.000 M146.400 441.600 C 146.400 442.040,146.672 442.400,147.005 442.400 C 147.337 442.400,148.087 443.480,148.672 444.800 C 149.693 447.107,151.200 448.061,151.200 446.400 C 151.200 445.960,150.840 445.600,150.400 445.600 C 149.960 445.600,149.600 445.034,149.600 444.343 C 149.600 443.130,147.796 440.800,146.857 440.800 C 146.606 440.800,146.400 441.160,146.400 441.600 M168.102 475.797 C 170.171 478.430,171.277 479.390,171.723 478.944 C 171.969 478.698,171.248 477.575,170.121 476.448 C 167.796 474.123,166.443 473.687,168.102 475.797 M175.200 484.608 C 175.200 484.942,175.920 485.665,176.800 486.214 C 178.660 487.376,178.909 486.794,177.257 485.143 C 175.996 483.882,175.200 483.675,175.200 484.608 " stroke="none" fill="#9e9e9e" fill-rule="evenodd"></path><path id="path5" d="M358.102 207.474 L 358.204 213.200 357.637 208.400 L 357.069 203.600 356.934 210.070 C 356.861 213.628,356.235 220.108,355.544 224.470 C 353.645 236.458,353.342 239.200,353.916 239.200 C 356.435 239.200,361.047 203.642,358.716 202.193 C 358.317 201.944,358.045 204.279,358.102 207.474 M389.647 246.146 C 389.145 247.826,388.334 250.640,387.846 252.400 C 383.640 267.559,374.104 290.047,368.000 299.200 C 365.857 302.414,361.284 310.876,362.164 310.000 C 365.636 306.543,383.200 272.783,383.200 269.565 C 383.200 269.133,383.549 268.153,383.975 267.389 C 384.796 265.916,386.964 259.607,388.026 255.600 C 388.375 254.280,389.241 251.079,389.950 248.486 C 391.370 243.294,391.106 241.263,389.647 246.146 M54.400 264.993 C 54.400 267.391,59.948 278.526,60.862 277.962 C 61.258 277.717,61.393 278.009,61.162 278.611 C 60.554 280.195,75.622 302.683,78.471 304.444 C 80.808 305.888,79.726 303.448,75.597 297.961 C 69.237 289.511,62.951 279.363,58.649 270.600 C 54.766 262.691,54.400 262.207,54.400 264.993 M50.185 327.449 C 51.167 327.994,56.747 333.130,62.585 338.863 C 68.423 344.595,74.460 350.301,76.000 351.543 C 79.037 353.992,86.899 360.856,95.178 368.287 C 109.930 381.526,127.118 403.589,136.090 420.800 C 137.580 423.660,139.009 426.180,139.264 426.400 C 139.519 426.620,140.237 427.970,140.859 429.400 C 141.482 430.830,142.263 432.000,142.595 432.000 C 142.928 432.000,143.200 432.540,143.200 433.200 C 143.200 433.860,143.560 434.400,144.000 434.400 C 144.440 434.400,144.800 435.120,144.800 436.000 C 144.800 436.880,145.160 437.600,145.600 437.600 C 146.770 437.600,146.623 437.080,144.286 432.942 C 128.141 404.352,117.600 389.511,103.245 375.155 C 95.775 367.684,93.051 365.207,73.059 347.706 C 67.702 343.016,60.647 336.303,57.383 332.789 C 53.887 329.026,50.821 326.412,49.924 326.428 C 48.559 326.454,48.586 326.560,50.185 327.449 M287.189 378.140 C 276.580 385.248,261.708 402.625,252.050 419.200 C 247.722 426.627,243.013 435.121,237.192 446.000 C 228.699 461.871,225.851 466.793,220.755 474.400 C 215.143 482.779,204.754 493.600,202.323 493.600 C 201.925 493.600,201.600 493.960,201.600 494.400 C 201.600 495.774,203.592 495.275,204.800 493.600 C 205.434 492.720,206.654 492.000,207.510 492.000 C 208.366 492.000,208.841 491.775,208.566 491.499 C 208.290 491.223,209.822 489.153,211.970 486.899 C 216.093 482.573,223.867 472.430,224.617 470.400 C 224.861 469.740,225.666 468.300,226.407 467.200 C 227.148 466.100,229.117 462.680,230.783 459.600 C 232.448 456.520,234.802 452.200,236.012 450.000 C 237.222 447.800,239.564 443.480,241.216 440.400 C 248.046 427.664,248.614 426.643,253.703 417.966 C 262.293 403.321,275.444 387.882,286.007 380.042 C 293.926 374.164,294.498 373.244,287.189 378.140 M146.400 439.423 C 146.400 439.986,147.120 440.966,148.000 441.600 C 148.880 442.234,149.600 443.394,149.600 444.177 C 149.600 444.959,149.960 445.600,150.400 445.600 C 151.644 445.600,151.370 444.732,149.091 441.443 C 146.813 438.156,146.400 437.846,146.400 439.423 " stroke="none" fill="#5e5e60" fill-rule="evenodd"></path></g></svg>