<?xml version="1.0" encoding="UTF-8"?>
<svg width="512px" height="346px" viewBox="0 0 512 346" version="1.1" xmlns="http://www.w3.org/2000/svg" xmlns:xlink="http://www.w3.org/1999/xlink" xmlns:sketch="http://www.bohemiancoding.com/sketch/ns">
    <!-- Generator: Sketch 3.4.4 (17249) - http://www.bohemiancoding.com/sketch -->
    <title>open (1) copy</title>
    <desc>Created with Sketch.</desc>
    <defs></defs>
    <g id="Page-1" stroke="none" stroke-width="1" fill="none" fill-rule="evenodd" sketch:type="MSPage">
        <g id="open-(1)-copy" sketch:type="MSLayerGroup" fill="#000000">
            <g id="open" sketch:type="MSShapeGroup">
                <path d="M477.261,107.805 L367.065,107.805 L287.304,28.045 C285.353,12.503 272.063,0.436 256,0.436 C239.936,0.436 226.647,12.502 224.695,28.045 L144.934,107.805 L34.739,107.805 C15.584,107.805 0,123.389 0,142.544 L0,310.824 C0,329.98 15.584,345.563 34.739,345.563 L477.262,345.563 C496.418,345.563 512.001,329.979 512.001,310.824 L512.001,142.544 C512,123.389 496.416,107.805 477.261,107.805 L477.261,107.805 Z M256.001,18.283 C263.563,18.283 269.716,24.435 269.716,31.998 C269.716,39.56 263.564,45.713 256.001,45.713 C248.438,45.713 242.286,39.561 242.286,31.998 C242.284,24.435 248.438,18.283 256.001,18.283 L256.001,18.283 Z M229.255,48.724 C234.842,57.624 244.739,63.559 256.001,63.559 C267.263,63.559 277.16,57.626 282.746,48.724 L341.828,107.805 L170.172,107.805 L229.255,48.724 L229.255,48.724 Z M494.154,310.824 C494.154,320.139 486.576,327.717 477.261,327.717 L34.739,327.717 C25.424,327.717 17.846,320.139 17.846,310.824 L17.846,142.544 C17.846,133.229 25.424,125.651 34.739,125.651 L477.262,125.651 C486.577,125.651 494.155,133.229 494.155,142.544 L494.155,310.824 L494.154,310.824 Z" id="Shape"></path>
                <path d="M136.247,175.454 L127.591,175.454 C111.261,175.454 97.975,188.74 97.975,205.07 L97.975,248.3 C97.975,264.63 111.261,277.916 127.591,277.916 L136.247,277.916 C152.577,277.916 165.863,264.63 165.863,248.3 L165.863,205.069 C165.862,188.739 152.576,175.454 136.247,175.454 L136.247,175.454 Z M148.016,248.299 C148.016,254.789 142.736,260.069 136.246,260.069 L127.59,260.069 C121.1,260.069 115.82,254.789 115.82,248.299 L115.82,205.068 C115.82,198.578 121.1,193.298 127.59,193.298 L136.246,193.298 C142.736,193.298 148.016,198.578 148.016,205.068 L148.016,248.299 L148.016,248.299 Z" id="Shape"></path>
                <path d="M225.225,175.454 L189.619,175.454 C184.691,175.454 180.696,179.449 180.696,184.377 L180.696,268.992 C180.696,273.92 184.691,277.915 189.619,277.915 C194.547,277.915 198.542,273.92 198.542,268.992 L198.542,240.611 L225.225,240.611 C238.105,240.611 248.584,230.132 248.584,217.253 L248.584,198.812 C248.583,185.932 238.105,175.454 225.225,175.454 L225.225,175.454 Z M230.737,217.253 C230.737,220.293 228.264,222.765 225.224,222.765 L198.541,222.765 L198.541,193.299 L225.224,193.299 C228.264,193.299 230.737,195.772 230.737,198.812 L230.737,217.253 L230.737,217.253 Z" id="Shape"></path>
                <path d="M405.102,175.454 C400.174,175.454 396.179,179.449 396.179,184.377 L396.179,236.376 L362.741,179.836 C360.695,176.375 356.587,174.711 352.706,175.771 C348.828,176.832 346.138,180.356 346.138,184.377 L346.138,268.992 C346.138,273.92 350.133,277.915 355.061,277.915 C359.989,277.915 363.984,273.92 363.984,268.992 L363.984,216.993 L397.422,273.533 C399.057,276.297 402.005,277.915 405.102,277.915 C405.884,277.915 406.675,277.813 407.456,277.599 C411.334,276.538 414.024,273.014 414.024,268.993 L414.024,184.378 C414.025,179.449 410.031,175.454 405.102,175.454 L405.102,175.454 Z" id="Shape"></path>
                <path d="M322.381,193.299 C327.309,193.299 331.304,189.304 331.304,184.376 C331.304,179.448 327.309,175.453 322.381,175.453 L272.339,175.453 C267.411,175.453 263.416,179.448 263.416,184.376 L263.416,268.991 C263.416,273.919 267.411,277.914 272.339,277.914 L322.381,277.914 C327.309,277.914 331.304,273.919 331.304,268.991 C331.304,264.063 327.309,260.068 322.381,260.068 L281.262,260.068 L281.262,236.516 L297.36,236.516 C302.288,236.516 306.283,232.521 306.283,227.593 C306.283,222.665 302.288,218.67 297.36,218.67 L281.262,218.67 L281.262,193.298 L322.381,193.298 L322.381,193.299 Z" id="Shape"></path>
            </g>
        </g>
    </g>
</svg>