<?xml version="1.0" encoding="UTF-8"?>
<svg width="512px" height="346px" viewBox="0 0 512 346" version="1.1" xmlns="http://www.w3.org/2000/svg" xmlns:xlink="http://www.w3.org/1999/xlink" xmlns:sketch="http://www.bohemiancoding.com/sketch/ns">
    <!-- Generator: Sketch 3.4.4 (17249) - http://www.bohemiancoding.com/sketch -->
    <title>open (1) copy</title>
    <desc>Created with Sketch.</desc>
    <defs></defs>
    <g id="Page-1" stroke="none" stroke-width="1" fill="none" fill-rule="evenodd" sketch:type="MSPage">
        <g id="open-(1)-copy" sketch:type="MSLayerGroup" fill="#000000">
            <g id="open">
                <path d="M477.261,107.805 L367.065,107.805 L287.304,28.045 C285.353,12.503 272.063,0.436 256,0.436 C239.936,0.436 226.647,12.502 224.695,28.045 L144.934,107.805 L34.739,107.805 C15.584,107.805 0,123.389 0,142.544 L0,310.824 C0,329.98 15.584,345.563 34.739,345.563 L477.262,345.563 C496.418,345.563 512.001,329.979 512.001,310.824 L512.001,142.544 C512,123.389 496.416,107.805 477.261,107.805 L477.261,107.805 Z M256.001,18.283 C263.563,18.283 269.716,24.435 269.716,31.998 C269.716,39.56 263.564,45.713 256.001,45.713 C248.438,45.713 242.286,39.561 242.286,31.998 C242.284,24.435 248.438,18.283 256.001,18.283 L256.001,18.283 Z M229.255,48.724 C234.842,57.624 244.739,63.559 256.001,63.559 C267.263,63.559 277.16,57.626 282.746,48.724 L341.828,107.805 L170.172,107.805 L229.255,48.724 L229.255,48.724 Z M494.154,310.824 C494.154,320.139 486.576,327.717 477.261,327.717 L34.739,327.717 C25.424,327.717 17.846,320.139 17.846,310.824 L17.846,142.544 C17.846,133.229 25.424,125.651 34.739,125.651 L477.262,125.651 C486.577,125.651 494.155,133.229 494.155,142.544 L494.155,310.824 L494.154,310.824 Z" id="Shape" sketch:type="MSShapeGroup"></path>
                <text id="?" sketch:type="MSTextLayer" font-family="Arial Rounded MT Bold" font-size="153" font-weight="normal">
                    <tspan x="218" y="285">?</tspan>
                </text>
            </g>
        </g>
    </g>
</svg>